<?xml version="1.0" encoding="utf-8"?>
<!-- Generator: Adobe Illustrator 16.0.0, SVG Export Plug-In . SVG Version: 6.00 Build 0)  -->
<!DOCTYPE svg PUBLIC "-//W3C//DTD SVG 1.1//EN" "https://www.w3.org/Graphics/SVG/1.1/DTD/svg11.dtd">
<svg version="1.1" xmlns="https://www.w3.org/2000/svg" xmlns:xlink="https://www.w3.org/1999/xlink" x="0px" y="0px" width="2100px"
	 height="2100px" viewBox="0 0 2100 2100" enable-background="new 0 0 2100 2100" xml:space="preserve">
<g id="Background">
</g>
<g id="Illustration">
	<g id="Internal_education_1_">
		<g>
			<g>
				<path d="M811.746,192.665l1058.059-2.842c23.674,0,43.104,16.825,41.998,36.365l-11.287,998.151
					c-0.976,17.232-17.727,30.443-38.604,30.443l-46.428-0.005l-9.887-5.029l-1328.933,4.854c-23.671,0-43.43-18.568-42.324-38.108
					l11.547-993.386c0.975-17.233,16.962-32.319,37.839-32.319L811.746,192.665z"/>
				<g>
					<path fill="#FFFFFF" d="M767.405,193.324h1055.392c23.614,0,42.996,16.818,41.896,36.35l-10.954,994.348
						c-0.972,17.227-17.68,30.431-38.505,30.431H433.398c-23.613,0-42.996-16.817-41.896-36.35l10.955-994.347
						c0.971-17.226,17.679-30.431,38.505-30.431H767.405z"/>
					<path d="M1815.234,1256.532H433.398c-13.421,0-25.994-5.157-34.494-14.151c-6.604-6.986-9.97-15.65-9.478-24.395
						l10.951-994.254c1.044-18.562,18.491-32.487,40.585-32.487h1381.834c13.422,0,25.994,5.157,34.495,14.15
						c6.604,6.987,9.97,15.651,9.478,24.396l-10.951,994.253C1854.775,1242.605,1837.328,1256.532,1815.234,1256.532z
						 M440.962,195.403c-19.854,0-35.515,12.24-36.428,28.469l-10.952,994.255c-0.431,7.684,2.533,15.25,8.345,21.397
						c7.717,8.165,19.188,12.848,31.471,12.848h1381.836c19.854,0,35.514-12.238,36.428-28.468l10.951-994.253
						c0.432-7.686-2.534-15.251-8.346-21.399c-7.717-8.165-19.188-12.849-31.471-12.849H440.962z"/>
				</g>
				<g>
					<path d="M396.391,843.331c-0.005,0-0.011,0-0.017,0c-1.148-0.009-2.071-0.948-2.063-2.097l2.774-337.321
						c0.009-1.143,0.939-2.063,2.079-2.063c0.006,0,0.012,0,0.018,0c1.149,0.01,2.072,0.948,2.063,2.096l-2.774,337.322
						C398.461,842.411,397.532,843.331,396.391,843.331z"/>
				</g>
			</g>
			<g>
				<path d="M1774.597,305.917h-185.989c-7.902,0-14.518-6.695-14.474-14.646c0.042-7.337,5.774-13.072,13.065-13.072h185.99
					c7.9,0,14.516,6.695,14.473,14.645C1787.62,300.181,1781.889,305.917,1774.597,305.917z"/>
				<path d="M1771.368,477.404h-80.401c-7.9,0-14.516-6.694-14.471-14.645c0.041-7.337,5.773-13.073,13.064-13.073h80.4
					c7.901,0,14.517,6.695,14.473,14.646C1784.393,471.668,1778.659,477.404,1771.368,477.404z"/>
				<path d="M1773.559,362.169h-244.073c-7.902,0-14.519-6.694-14.474-14.645c0.041-7.337,5.774-13.073,13.065-13.073h244.073
					c7.902,0,14.518,6.695,14.474,14.646C1786.582,356.434,1780.85,362.169,1773.559,362.169z"/>
				<path d="M1772.772,418.521h-244.073c-7.9,0-14.518-6.695-14.472-14.646c0.04-7.336,5.773-13.072,13.064-13.072h244.074
					c7.901,0,14.517,6.695,14.472,14.646C1785.797,412.785,1780.064,418.521,1772.772,418.521z"/>
			</g>
			<g>
				<g>
					<polygon fill="#FFFFFF" points="556.241,1046.709 559.014,799.012 470.659,799.012 467.9,1046.709 					"/>
					<path d="M662.164,1048.788h-88.341c-0.558,0-1.093-0.223-1.484-0.621c-0.391-0.398-0.605-0.936-0.596-1.494l5.91-342.091
						c0.02-1.134,0.945-2.043,2.08-2.043h88.354c0.558,0,1.092,0.224,1.483,0.622c0.391,0.397,0.605,0.936,0.596,1.494
						l-5.923,342.091C664.223,1047.879,663.298,1048.788,662.164,1048.788z M575.938,1044.629h84.181l5.851-337.931h-84.194
						L575.938,1044.629z"/>
					<path d="M768.087,1048.788h-88.342c-0.557,0-1.09-0.223-1.481-0.62c-0.391-0.397-0.606-0.934-0.599-1.492l4.911-315.982
						c0.019-1.136,0.944-2.047,2.08-2.047h88.354c0.558,0,1.09,0.224,1.481,0.62c0.391,0.397,0.606,0.936,0.599,1.492
						l-4.923,315.981C770.148,1047.877,769.223,1048.788,768.087,1048.788z M681.857,1044.629h84.183l4.858-311.823h-84.195
						L681.857,1044.629z"/>
					<path d="M874.009,1048.788h-88.342c-0.558,0-1.093-0.223-1.483-0.621c-0.391-0.398-0.605-0.937-0.597-1.494l7.523-432.467
						c0.021-1.134,0.946-2.043,2.08-2.043h88.354c0.558,0,1.093,0.224,1.484,0.622c0.391,0.398,0.605,0.936,0.596,1.494
						l-7.535,432.467C876.068,1047.879,875.144,1048.788,874.009,1048.788z M787.784,1044.629h84.182l7.463-428.309h-84.194
						L787.784,1044.629z"/>
					<path d="M979.932,1048.788H891.59c-0.557,0-1.091-0.223-1.482-0.621c-0.39-0.397-0.605-0.935-0.597-1.492l8.599-544.937
						c0.019-1.136,0.945-2.047,2.08-2.047h88.354c0.557,0,1.091,0.224,1.482,0.621c0.391,0.397,0.605,0.935,0.597,1.491
						l-8.611,544.937C981.993,1047.877,981.067,1048.788,979.932,1048.788z M893.703,1044.629h84.182l8.545-540.777h-84.193
						L893.703,1044.629z"/>
					<path d="M1085.854,1048.788h-88.342c-0.558,0-1.095-0.225-1.486-0.624s-0.604-0.939-0.594-1.498l10.521-510.794
						c0.023-1.131,0.948-2.037,2.08-2.037h88.354c0.56,0,1.096,0.225,1.486,0.624s0.605,0.939,0.594,1.499l-10.533,510.794
						C1087.91,1047.883,1086.986,1048.788,1085.854,1048.788z M999.635,1044.629h84.182l10.447-506.635h-84.194L999.635,1044.629z"
						/>
					<path d="M1193.775,1048.788h-88.342c-0.56,0-1.096-0.225-1.486-0.625c-0.392-0.399-0.604-0.939-0.594-1.499l12.826-595.146
						c0.025-1.13,0.948-2.034,2.08-2.034h88.354c0.56,0,1.095,0.225,1.485,0.625c0.391,0.399,0.604,0.94,0.593,1.5l-12.838,595.146
						C1195.83,1047.885,1194.906,1048.788,1193.775,1048.788z M1107.559,1044.629h84.182l12.748-590.987h-84.193L1107.559,1044.629z
						"/>
					<path d="M1301.668,1048.54h-88.343c-0.56,0-1.097-0.226-1.488-0.627c-0.392-0.402-0.604-0.943-0.589-1.504l15.438-624.606
						c0.027-1.128,0.95-2.028,2.078-2.028h88.354c0.562,0,1.099,0.226,1.489,0.628c0.391,0.4,0.604,0.943,0.59,1.503
						l-15.451,624.606C1303.719,1047.64,1302.795,1048.54,1301.668,1048.54z M1215.457,1044.381h84.182l15.35-620.446h-84.194
						L1215.457,1044.381z"/>
					<path d="M1409.588,1048.54h-88.34c-0.561,0-1.097-0.225-1.488-0.626c-0.391-0.4-0.604-0.941-0.591-1.501l10.454-457.329
						c0.024-1.13,0.948-2.032,2.078-2.032h88.354c0.56,0,1.097,0.226,1.487,0.626c0.391,0.401,0.605,0.942,0.592,1.502
						l-10.469,457.329C1411.642,1047.638,1410.719,1048.54,1409.588,1048.54z M1323.375,1044.381h84.18l10.375-453.17h-84.195
						L1323.375,1044.381z"/>
					<path d="M1517.539,1048.788h-88.342c-0.564,0-1.102-0.228-1.494-0.633c-0.393-0.403-0.603-0.95-0.585-1.514l11.491-357.255
						c0.037-1.121,0.957-2.013,2.079-2.013h88.354c0.563,0,1.102,0.229,1.494,0.633c0.392,0.405,0.603,0.95,0.584,1.513
						l-11.504,357.255C1519.58,1047.897,1518.66,1048.788,1517.539,1048.788z M1431.345,1044.629h84.181l11.369-353.096h-84.192
						L1431.345,1044.629z"/>
					<path d="M1625.459,1048.788h-88.341c-0.562,0-1.099-0.226-1.489-0.626s-0.604-0.943-0.59-1.503l7.602-309.957
						c0.027-1.128,0.949-2.028,2.079-2.028h88.353c0.562,0,1.098,0.227,1.49,0.626c0.391,0.401,0.604,0.944,0.59,1.504
						l-7.613,309.957C1627.512,1047.889,1626.588,1048.788,1625.459,1048.788z M1539.25,1044.629h84.182l7.51-305.797h-84.193
						L1539.25,1044.629z"/>
					<path d="M1733.381,1048.788h-88.342c-0.562,0-1.099-0.226-1.489-0.628c-0.392-0.401-0.604-0.943-0.59-1.504l8.217-322.007
						c0.028-1.128,0.95-2.027,2.079-2.027h88.354c0.561,0,1.098,0.226,1.49,0.628c0.391,0.402,0.604,0.944,0.59,1.505l-8.23,322.006
						C1735.43,1047.89,1734.508,1048.788,1733.381,1048.788z M1647.172,1044.629h84.182l8.122-317.848h-84.193L1647.172,1044.629z"
						/>
				</g>
				<g>
					<path d="M1051.063,484.528c-0.513,0-1.009-0.19-1.392-0.534l-65.273-58.809c-0.853-0.769-0.922-2.084-0.154-2.937
						c0.771-0.853,2.084-0.922,2.938-0.153l63.71,57.4l156.645-177.949c0.365-0.417,0.885-0.67,1.439-0.701
						c0.543-0.037,1.101,0.159,1.514,0.531l83.125,74.893L1393.85,262.4c0.76-0.862,2.072-0.946,2.936-0.188
						c0.861,0.759,0.946,2.073,0.188,2.936l-101.627,115.447c-0.365,0.418-0.885,0.67-1.439,0.702c-0.564,0.03-1.1-0.16-1.514-0.531
						l-83.125-74.894l-156.644,177.95c-0.367,0.417-0.886,0.669-1.441,0.702C1051.143,484.527,1051.103,484.528,1051.063,484.528z"
						/>
					<path d="M706.708,678.08c-0.513,0-1.009-0.189-1.392-0.534l-91.979-82.87c-0.854-0.769-0.922-2.084-0.153-2.937
						c0.77-0.852,2.083-0.922,2.938-0.153l90.417,81.461l218.971-248.753c0.759-0.861,2.072-0.945,2.935-0.187
						c0.862,0.759,0.946,2.073,0.187,2.935L708.27,677.375c-0.367,0.417-0.886,0.67-1.441,0.702
						C706.789,678.079,706.748,678.08,706.708,678.08z"/>
					<path d="M599.85,593.131c-0.948-8.258,4.945-14.952,13.162-14.952c8.218,0,15.648,6.694,16.596,14.952
						c0.948,8.258-4.944,14.952-13.161,14.952C608.229,608.083,600.799,601.389,599.85,593.131z"/>
					<path d="M1036.575,481.838c-0.948-8.258,4.944-14.953,13.162-14.953c8.217,0,15.647,6.694,16.596,14.953
						c0.948,8.258-4.944,14.952-13.162,14.952C1044.954,496.791,1037.523,490.096,1036.575,481.838z"/>
					<path d="M1195.559,301.23c-0.947-8.258,4.945-14.951,13.164-14.951c8.216,0,15.646,6.693,16.595,14.951
						c0.948,8.258-4.945,14.953-13.162,14.953C1203.938,316.183,1196.508,309.488,1195.559,301.23z"/>
					<path d="M1280.881,378.101c-0.949-8.257,4.944-14.952,13.161-14.952c8.218,0,15.647,6.695,16.597,14.952
						c0.947,8.259-4.945,14.953-13.163,14.953C1289.259,393.054,1281.829,386.359,1280.881,378.101z"/>
					<path d="M1377.612,268.212c-0.948-8.258,4.944-14.953,13.163-14.953c8.217,0,15.646,6.695,16.595,14.953
						c0.947,8.258-4.944,14.953-13.161,14.953C1385.99,283.165,1378.56,276.47,1377.612,268.212z"/>
					<path d="M693.006,674.268c-0.948-8.258,4.944-14.953,13.162-14.953c8.217,0,15.647,6.695,16.596,14.953
						c0.948,8.257-4.945,14.952-13.162,14.952C701.385,689.22,693.954,682.524,693.006,674.268z"/>
					<path d="M939.266,396.195c-0.948-8.258,4.945-14.952,13.162-14.952c8.218,0,15.648,6.694,16.596,14.952
						c0.948,8.258-4.944,14.952-13.162,14.952S940.214,404.453,939.266,396.195z"/>
				</g>
			</g>
			<path d="M869.942,1174.023H476.389c-9.091,0-16.939-6.637-16.823-14.226l0.573-37.259c0.1-6.487,6.055-11.396,13.828-11.396
				h393.552c9.091,0,16.939,6.637,16.822,14.226l-0.572,37.259C883.669,1169.115,877.714,1174.023,869.942,1174.023z"/>
		</g>
		<g>
			<path d="M503.467,548.374c18.162-0.944,37.253,16.549,32.893,43.189c-3.563,21.763-26.965,26.414-38.543,37.199
				c-37.451,34.886-49.831,149.077-104.587,178.896c-43.687,23.79-120.992,14.813-160.429-39.241
				c-37.498-51.396-40.848-123.984,4.829-154.93c41.06-27.818,64.989,10.834,108.427-14.843
				c42.825-25.313,34.16-54.182,60.39-64.037C442.315,521.128,451.992,551.049,503.467,548.374z"/>
			<g>
				<path fill="#FFFFFF" d="M569.424,832.432c19.224,117.726,21.456,119.458,24.053,131.79c0,0,7.625,34.667,9.741,68.064
					c1.835,28.979-3.614,203.018-93.571,241.34c-32.484,13.839-41.899-11.601-111.069-8.838
					c-70.885,2.83-85.255,28.052-116.184,19.215c-66.936-19.126-88.796-162.741-85.111-251.487
					c3.003-72.279,38.973-140.528,110.916-277.028c10.957-20.79,28.497-52.541,56.753-56.583
					c12.953-1.853,18.13,0.136,70.135,14.411c56.568,15.529,70.927-0.989,95.208,14.312
					C555.38,743.436,559.804,773.516,569.424,832.432z"/>
				<path d="M295.277,1287.96c-4.257,0-8.66-0.587-13.455-1.956c-38.612-11.033-59.637-61.065-70.474-101.093
					c-12.202-45.069-18.237-102.07-16.143-152.481c3.021-72.75,39.158-141.314,111.153-277.912
					c9.827-18.646,28.12-53.354,58.297-57.672c12.168-1.741,17.335-0.316,57.534,10.765l13.446,3.7
					c28.377,7.79,45.728,7.438,59.675,7.156c13.698-0.278,23.589-0.478,36.091,7.401c25.353,15.977,30.073,44.913,39.477,102.561
					l0.598,3.668c15.999,97.969,20.175,115.36,22.669,125.752c0.5,2.08,0.927,3.862,1.367,5.944
					c0.072,0.33,7.68,35.188,9.781,68.362c2.482,39.216-6.587,205.792-94.832,243.384c-17.033,7.256-28.125,4.101-43.478-0.269
					c-15.288-4.349-34.325-9.761-68.323-8.405c-35.989,1.438-56.872,8.553-73.652,14.271
					C313.927,1284.912,304.981,1287.96,295.277,1287.96z M372.158,700.402c-2.289,0-4.452,0.209-6.913,0.562
					c-28.077,4.016-45.726,37.503-55.207,55.495c-71.704,136.045-107.695,204.331-110.678,276.144
					c-3.843,92.542,19.554,231.1,83.605,249.402c14.466,4.133,24.905,0.579,40.701-4.805c16.137-5.498,38.235-13.028,74.828-14.489
					c34.677-1.385,54.876,4.363,69.627,8.561c15.072,4.288,25.029,7.122,40.709,0.442c46.677-19.885,69.268-77.723,80-122.742
					c11.755-49.313,13.371-99.82,12.311-116.553c-2.081-32.847-9.62-67.404-9.697-67.75c-0.433-2.06-0.854-3.808-1.344-5.849
					c-2.508-10.447-6.707-27.932-22.729-126.052l-0.599-3.669c-9.202-56.416-13.821-84.733-37.589-99.711
					c-11.447-7.213-20.331-7.033-33.789-6.761c-14.208,0.287-31.9,0.646-60.86-7.303l-13.449-3.703
					C390.21,703.11,380.387,700.402,372.158,700.402z"/>
			</g>
			<g>
				<g>
					<polygon fill="#FFFFFF" points="466.176,1514.084 466.176,1571.016 438.783,1569.347 433.393,1514.084 					"/>
					<path d="M466.176,1573.095c-0.041,0-0.084-0.002-0.126-0.004l-27.393-1.668c-1.02-0.062-1.844-0.856-1.943-1.874l-5.391-55.263
						c-0.057-0.584,0.135-1.164,0.529-1.6c0.394-0.435,0.954-0.682,1.541-0.682h32.783c1.149,0,2.08,0.932,2.08,2.079v56.932
						c0,0.573-0.236,1.12-0.655,1.514C467.215,1572.894,466.704,1573.095,466.176,1573.095z M440.681,1567.379l23.416,1.426v-52.641
						h-28.412L440.681,1567.379z"/>
				</g>
				<g>
					<path fill="#FFFFFF" d="M434.673,1642.002c11.153,1.195,29.405,1.969,50.679-1.695c6.973-1.201,11.391-8.147,9.476-14.959
						c-5.337-18.974-15.871-54.332-24.264-71.271l-5.055,9.234l-4.044-9.749c-0.692-1.155-1.894-1.911-3.234-2.035l-14.54,0.084
						c-4.312-0.015-4.636,2.338-5.204,4.123l-2.884,7.577l-3.989-10.267L424.141,1629
						C423.502,1635.489,428.19,1641.307,434.673,1642.002z"/>
					<path d="M453.714,1645.075c-7.541,0-14.071-0.45-19.263-1.006c-7.577-0.813-13.13-7.664-12.38-15.272l7.475-75.955
						c0.094-0.959,0.833-1.728,1.787-1.857c0.955-0.131,1.872,0.411,2.221,1.307l2.03,5.227l1.046-2.823
						c0.541-1.806,1.548-5.163,7.022-5.163c0.016,0,0.03,0,0.046,0l14.52-0.085c2.197,0.196,4.001,1.331,5.03,3.046
						c0.053,0.088,0.098,0.18,0.139,0.273l2.382,5.743l2.972-5.431c0.371-0.68,1.094-1.121,1.866-1.08
						c0.775,0.016,1.477,0.461,1.821,1.155c8.879,17.919,20.023,56.063,24.401,71.631c1.069,3.802,0.474,7.896-1.632,11.235
						c-2.117,3.353-5.576,5.662-9.491,6.338C473.918,1644.386,463.043,1645.075,453.714,1645.075z M434.894,1639.934
						c11.352,1.216,29.26,1.914,50.105-1.676c2.757-0.475,5.191-2.1,6.68-4.458c1.501-2.38,1.909-5.181,1.147-7.889
						c-4.065-14.454-13.998-48.494-22.402-67.245l-3.091,5.645c-0.383,0.7-1.137,1.122-1.935,1.078
						c-0.799-0.043-1.503-0.541-1.809-1.28l-3.976-9.583c-0.359-0.524-0.938-0.869-1.576-0.929l-14.333,0.094
						c-2.445,0.013-2.622,0.638-3.089,2.197l-0.147,0.478l-2.92,7.687c-0.305,0.804-1.075,1.337-1.937,1.339
						c-0.002,0-0.005,0-0.007,0c-0.858,0-1.627-0.525-1.938-1.326l-0.833-2.146l-6.622,67.286
						C425.684,1634.551,429.579,1639.364,434.894,1639.934z"/>
				</g>
				<path d="M456.894,1632.174c-14.369,0-24.223-3.032-24.836-3.227c-1.094-0.345-1.702-1.513-1.357-2.606
					c0.344-1.096,1.51-1.704,2.607-1.36c0.216,0.068,21.94,6.718,47.604-0.027c1.113-0.295,2.249,0.373,2.54,1.482
					c0.292,1.111-0.371,2.248-1.482,2.541C472.849,1631.373,464.275,1632.174,456.894,1632.174z"/>
				<path d="M470.565,1602.603h-24.999c-1.148,0-2.08-0.931-2.08-2.079s0.931-2.08,2.08-2.08h24.999c1.148,0,2.079,0.932,2.079,2.08
					S471.713,1602.603,470.565,1602.603z"/>
				<g>
					<polygon fill="#FFFFFF" points="264.682,1483.963 256.584,1552.602 230.91,1551.709 230.91,1483.963 					"/>
					<path d="M256.585,1554.682c-0.024,0-0.049-0.002-0.073-0.002l-25.675-0.893c-1.12-0.039-2.007-0.958-2.007-2.078v-67.746
						c0-1.148,0.931-2.08,2.08-2.08h33.771c0.594,0,1.16,0.254,1.555,0.698c0.394,0.443,0.58,1.034,0.511,1.625l-8.098,68.639
						C258.526,1553.896,257.635,1554.682,256.585,1554.682z M232.989,1549.699l21.753,0.757l7.599-64.414h-29.353V1549.699z"/>
				</g>
				<g>
					<path fill="#FFFFFF" d="M262.691,1536.221c0,0,3.303,30.484,2.283,42.746c-0.73,8.775-12.77,35.276-19.56,49.641
						c-2.793,5.909-8.117,9.697-14.023,9.953c-7.202,0.313-17.221,0.673-25.3,0.683c-11.115,0.012-18.76-12.624-14.791-24.403
						c3.662-10.869,9.477-24.497,18.625-39.006c6.889-10.925,16.948-40.611,16.948-40.611h20.921l4.106,17.372L262.691,1536.221z"/>
					<path d="M206.077,1641.322c-5.454,0-10.53-2.713-13.934-7.447c-4.03-5.603-5.082-12.967-2.813-19.698
						c4.597-13.646,10.935-26.919,18.837-39.452c6.676-10.59,16.637-39.875,16.737-40.171c0.287-0.844,1.078-1.412,1.97-1.412
						h20.921c0.964,0,1.802,0.664,2.024,1.603l2.998,12.682l8.138-12.35c0.481-0.731,1.367-1.083,2.226-0.876
						c0.852,0.206,1.483,0.925,1.578,1.797c0.136,1.253,3.313,30.824,2.288,43.142c-0.714,8.592-11.135,32.127-19.751,50.357
						c-3.114,6.585-9.173,10.854-15.813,11.143c-7.079,0.307-17.229,0.674-25.389,0.684
						C206.089,1641.322,206.082,1641.322,206.077,1641.322z M228.36,1537.302c-2.115,6.112-10.521,29.882-16.674,39.642
						c-7.726,12.253-13.921,25.227-18.414,38.561c-1.842,5.465-1.001,11.425,2.248,15.943c2.613,3.633,6.46,5.717,10.558,5.717
						c0.004,0,0.008,0,0.013,0c8.086-0.01,18.174-0.375,25.211-0.681c5.095-0.222,9.782-3.579,12.232-8.765
						c11.799-24.964,18.859-42.795,19.368-48.924c0.725-8.709-0.806-27.119-1.698-36.537l-7.564,11.481
						c-0.456,0.692-1.279,1.05-2.099,0.902c-0.817-0.144-1.471-0.761-1.661-1.569l-3.728-15.771H228.36z"/>
				</g>
				<path d="M222.037,1628.257c-0.004,0-0.007,0-0.01,0l-18.062-0.024c-1.148-0.002-2.077-0.934-2.076-2.082
					c0-1.148,0.932-2.077,2.08-2.077c0.001,0,0.002,0,0.003,0l18.061,0.023c0.001,0,0.004,0,0.006,0
					c5.809,0,12.146-8.364,14.098-11.589l11.783-22.808c0.527-1.019,1.783-1.422,2.802-0.893c1.02,0.527,1.42,1.782,0.893,2.802
					l-11.851,22.93C239.36,1615.215,231.382,1628.257,222.037,1628.257z"/>
				<path d="M232.114,1603.451h-22.904c-1.148,0-2.08-0.931-2.08-2.079s0.932-2.08,2.08-2.08h22.904c1.149,0,2.08,0.932,2.08,2.08
					S233.263,1603.451,232.114,1603.451z"/>
				<path d="M510.182,944.925c0,0-2.729,209.48-11.531,345.855c-8.803,136.375-26.167,240.646-26.167,240.646
					s-29.877,10.737-49.491,5.114c0,0-16.238-119.63-19.927-160.065c-3.688-40.437,6.107-60.5,6.932-93.594
					c0.826-33.094-14.262-179.21-14.262-179.21s-112.625,330.327-125.507,403.285c0,0-27.277,4.624-46.5-5.884
					c0,0-0.598-129.904,2.128-149.972c5.053-37.188,34.096-73.799,39.313-113.295c5.218-39.497,8.244-138.627,22.612-198.083
					c14.368-59.456,42.551-126.254,42.551-126.254L510.182,944.925z"/>
				<path fill="#FFFFFF" d="M324.075,1022.716c-0.819,0-1.595-0.487-1.925-1.292c-0.436-1.063,0.073-2.277,1.136-2.712
					c14.33-5.872,26.364-15.503,35.768-28.63c0.669-0.934,1.964-1.147,2.902-0.479c0.933,0.669,1.148,1.969,0.479,2.902
					c-9.866,13.771-22.507,23.883-37.574,30.056C324.604,1022.666,324.336,1022.716,324.075,1022.716z"/>
				<path fill="#FFFFFF" d="M493.964,1021.901c-0.512,0-1.024-0.188-1.426-0.566c-13.049-12.294-15.032-20.101-17.778-30.904
					l-0.754-2.94c-0.289-1.112,0.377-2.248,1.489-2.538c1.107-0.289,2.247,0.377,2.537,1.488l0.76,2.964
					c2.668,10.501,4.431,17.438,16.598,28.902c0.837,0.788,0.875,2.104,0.089,2.94
					C495.069,1021.682,494.517,1021.901,493.964,1021.901z"/>
			</g>
			<g>
				<g>
					<path fill="#FFFFFF" d="M817.58,794.688c-7.854,1.552-22.691,9.303-24.608,11.298c-15.108,15.73-24.042-8.777-24.042-8.777
						s27.2-16.458,42.59-18.831C841.202,773.801,834.024,791.438,817.58,794.688z"/>
					<path d="M783.114,813.337c-0.752,0-1.502-0.079-2.251-0.236c-8.945-1.886-13.69-14.638-13.887-15.18
						c-0.34-0.934,0.027-1.977,0.877-2.491c1.125-0.681,27.731-16.699,43.349-19.106c18.954-2.924,22.142,3.227,22.632,6.007
						c1.038,5.901-6.221,12.495-15.85,14.398c-7.623,1.506-22.075,9.204-23.512,10.699
						C790.698,811.357,786.887,813.337,783.114,813.337z M771.541,798.082c1.68,3.704,5.42,9.95,10.186,10.951
						c2.997,0.629,6.281-0.879,9.746-4.487c2.283-2.377,17.681-10.313,25.705-11.898c8.277-1.636,13.042-6.86,12.559-9.598
						c-0.342-1.944-4.495-4.685-17.9-2.616C799.083,782.4,777.458,794.628,771.541,798.082z"/>
				</g>
				<g>
					<path d="M766.688,807.345c-0.655,0-1.3-0.309-1.705-0.885c-0.659-0.94-0.432-2.237,0.509-2.896l211.572-148.38
						c0.94-0.659,2.236-0.432,2.896,0.508c0.659,0.941,0.432,2.238-0.508,2.897L767.88,806.968
						C767.516,807.222,767.1,807.345,766.688,807.345z"/>
					<g>
						<g>
							<path fill="#FFFFFF" d="M792.639,771.944c-4.38,4.539-12.691,8.669-18.867,9.953c-2.675,0.556-5.545,0.906-8.347,0.8
								c-22.103-0.831-16.865,30.42-64.029,37.812c-1.656,0.26-4.038,28.696-3.962,36.096c19.287-8.205,44.806-26.294,56.84-22.952
								c22.203,6.165,29.535-5.295,34.184-10.577c12.21-13.875-4.288-27.423-4.288-27.423s2.815-0.493,11.583-5.246
								C809.156,783.143,812.161,751.716,792.639,771.944z"/>
							<path d="M697.433,858.685c-0.398,0-0.795-0.115-1.138-0.339c-0.582-0.38-0.934-1.025-0.941-1.72
								c-0.039-3.772,0.538-12.778,1.341-20.95c1.651-16.794,2.678-16.956,4.378-17.222c26.257-4.114,35.643-15.672,43.188-24.96
								c5.783-7.12,10.757-13.281,21.242-12.875c2.361,0.09,4.999-0.166,7.846-0.759c6.146-1.276,13.962-5.389,17.793-9.359
								c5.74-5.947,10.185-8.239,13.594-7.011c1.295,0.467,3.515,1.904,3.845,6.285c0.485,6.437-3.783,18.096-11.836,22.461
								c-3.988,2.162-6.803,3.475-8.719,4.271c2.64,2.874,6.451,8.035,6.957,14.281c0.395,4.875-1.276,9.472-4.965,13.662
								c-0.354,0.403-0.724,0.843-1.116,1.308c-4.694,5.57-13.433,15.938-35.185,9.899c-7.433-2.065-21.863,5.619-35.814,13.052
								c-6.631,3.533-13.489,7.187-19.656,9.81C697.985,858.63,697.709,858.685,697.433,858.685z M702.729,822.4
								c-1.146,4.043-2.833,21.722-3.162,30.983c5.225-2.401,10.881-5.416,16.381-8.345c15.347-8.175,29.841-15.9,38.883-13.39
								c19.179,5.327,26.228-3.037,30.892-8.571c0.412-0.489,0.802-0.952,1.175-1.375c2.915-3.312,4.241-6.872,3.94-10.579
								c-0.625-7.734-7.912-13.803-7.986-13.863c-0.628-0.516-0.898-1.35-0.692-2.136c0.207-0.786,0.852-1.379,1.653-1.52
								c-0.004,0,2.827-0.622,10.951-5.025c6.489-3.519,10.062-13.302,9.671-18.492c-0.11-1.448-0.534-2.478-1.11-2.685
								c-0.257-0.093-2.718-0.72-9.188,5.986c-4.404,4.564-12.977,9.097-19.94,10.543c-3.176,0.662-6.157,0.947-8.849,0.843
								c-8.436-0.321-12.362,4.575-17.858,11.34C740.011,805.323,729.804,817.89,702.729,822.4z"/>
						</g>
						<path d="M767.131,820.743c-0.184,0-0.369-0.024-0.554-0.075c-4.87-1.342-6.793-4.47-7.549-6.857
							c-1.792-5.658,1.119-12.704,4.8-17.177c3.594-4.366,7.675-6.526,12.079-6.47c8.034,0.137,14.021,7.82,14.271,8.148
							c0.698,0.91,0.527,2.211-0.381,2.912c-0.91,0.7-2.216,0.53-2.917-0.377c-0.049-0.064-5.042-6.433-11.059-6.524
							c-3.052-0.028-6.039,1.621-8.782,4.954c-3.508,4.264-5.172,9.724-4.045,13.278c0.656,2.072,2.189,3.415,4.688,4.104
							c1.107,0.305,1.757,1.45,1.452,2.558C768.88,820.138,768.043,820.743,767.131,820.743z"/>
					</g>
				</g>
				<g>
					<path fill="#FFFFFF" d="M530.672,713.433c0,0-67.214-9.618-133.375-11.541c0,0-86.997,232.347-86.989,246.953
						c0.007,14.606,41.666,47.751,82.977,21.375c68.907-43.995,111.958-28.988,145.924-21.054
						C590.103,961.054,530.672,713.433,530.672,713.433z"/>
					<path d="M360.83,982.182c-13.853,0.001-24.935-4.848-30.623-7.963c-12.732-6.973-21.975-17.644-21.979-25.373
						c-0.007-14.813,83.564-238.182,87.121-247.684c0.311-0.833,1.12-1.38,2.009-1.349c65.521,1.905,132.936,11.464,133.609,11.561
						c0.843,0.121,1.529,0.745,1.727,1.574c2.007,8.362,48.818,205.143,19.47,234.67c-3.592,3.614-8.107,4.815-13.428,3.574
						c-2.36-0.551-4.763-1.137-7.216-1.734c-32.849-7.998-73.732-17.952-137.117,22.515
						C382.426,979.619,370.896,982.181,360.83,982.182z M398.723,704.015c-24.529,65.549-86.342,233.239-86.335,244.829
						c0.002,5.346,7.415,14.935,19.817,21.727c9.17,5.022,33.37,14.871,59.96-2.104c64.881-41.425,106.721-31.237,140.339-23.05
						c2.44,0.594,4.83,1.176,7.178,1.724c3.875,0.905,6.99,0.101,9.532-2.456c26.514-26.677-16.038-211.493-20.239-229.389
						C519.057,713.931,458.311,705.851,398.723,704.015z"/>
				</g>
				<path fill="#FFFFFF" d="M742.593,843.187c-8.367,10.162-23.699,30.895-59.247,42.432
					c-71.096,23.076-114.989-23.776-114.989-23.776l6.119,140.238c0,0-34.348,20.356-34.348,18.556s-15.019-312.834-15.019-312.834
					s27.73,0.447,40.094,18.046c12.363,17.599,59.158,90.32,112.954,91.199c24.467,0.399,36.311-9.72,44.048-12.493L742.593,843.187
					z"/>
				<path d="M535.47,924.94c-1.103,0-2.021-0.867-2.075-1.98c-4.411-91.782-10.363-215.057-10.363-215.057
					c-0.027-0.575,0.184-1.134,0.584-1.547c0.4-0.414,0.971-0.649,1.527-0.633c1.176,0.019,28.937,0.674,41.761,18.93
					c0.744,1.059,1.613,2.318,2.601,3.749c14.638,21.21,59.187,85.757,108.684,86.566c18.221,0.289,28.968-5.266,36.828-9.327
					c2.438-1.26,4.541-2.348,6.486-3.044c0.975-0.349,2.059,0.072,2.542,0.987l20.388,38.634c0.392,0.741,0.299,1.645-0.234,2.292
					l-1.462,1.791c-8.6,10.56-24.604,30.215-58.749,41.298c-14.13,4.587-27.242,6.43-39.175,6.431
					c-38.466,0.003-64.762-19.137-74.157-27.226l2.038,46.717c0.05,1.147-0.84,2.118-1.987,2.169
					c-1.091,0.054-2.118-0.839-2.168-1.987l-2.258-51.767c-0.038-0.869,0.469-1.669,1.27-2.006c0.801-0.338,1.729-0.142,2.325,0.492
					c0.431,0.459,43.89,45.599,112.829,23.222c32.978-10.704,48.479-29.74,56.807-39.968l0.6-0.735l-18.865-35.749
					c-1.292,0.581-2.732,1.324-4.32,2.146c-7.787,4.023-19.573,10.107-38.804,9.79c-51.638-0.844-97.101-66.715-112.041-88.362
					c-0.979-1.419-1.842-2.668-2.581-3.721c-9.639-13.721-29.544-16.485-36.203-17.031c0.837,17.317,6.197,128.349,10.252,212.747
					c0.055,1.147-0.831,2.123-1.979,2.178C535.538,924.938,535.503,924.94,535.47,924.94z"/>
				<g>
					<g>
						<path fill="#FFFFFF" d="M614.632,759.077H484.659c-4.101,0-7.981,3.439-8.669,7.684l-29.5,182.099
							c-0.688,4.243,2.079,7.683,6.179,7.683h129.974c4.1,0,7.981-3.44,8.669-7.683l29.499-182.099
							C621.499,762.517,618.733,759.077,614.632,759.077z"/>
						<path d="M582.643,958.622H452.669c-2.536,0-4.797-1.015-6.363-2.854c-1.625-1.908-2.305-4.548-1.869-7.242l29.5-182.098
							c0.857-5.288,5.566-9.43,10.722-9.43h129.974c2.536,0,4.796,1.014,6.362,2.854c1.625,1.908,2.305,4.547,1.87,7.24
							l-29.5,182.099C592.508,954.479,587.798,958.622,582.643,958.622z M484.659,761.157c-3.064,0-6.095,2.718-6.616,5.936
							l-29.5,182.099c-0.245,1.51,0.085,2.888,0.93,3.881c0.764,0.896,1.898,1.391,3.196,1.391h129.974
							c3.064,0,6.094-2.719,6.615-5.937l29.5-182.098c0.245-1.509-0.085-2.887-0.93-3.88c-0.764-0.896-1.898-1.391-3.195-1.391
							H484.659z"/>
					</g>
				</g>
				<g>
					<g>
						<path fill="#FFFFFF" d="M465.373,832.769l-2.16,13.76c-0.155,6.258,5.478,11.079,11.637,9.96l33.88-6.157
							c5.218-0.948,10.048,3.193,9.744,8.487c-0.174,3.019-1.53,6.521-5.278,10.165c-1.749,1.701-31.813,24.599-54.905,20.443
							c-1.007-0.181-22.641,11.986-23.472,11.392c-3.628-2.594-6.16-10.895-6.966-17.885c-0.069-0.601,17.925-10.74,19.743-16.308
							c1.877-5.754,0.354-9.945,2.633-19.764C452.902,835.335,465.373,832.769,465.373,832.769z"/>
						<path d="M434.761,902.977c-0.5,0-0.778-0.2-1.15-0.466c-4.499-3.217-7.027-12.428-7.824-19.339
							c-0.164-1.44,0.345-1.775,4.313-4.383c4.319-2.837,14.432-9.48,15.519-12.81c0.823-2.521,0.924-4.731,1.053-7.531
							c0.141-3.035,0.315-6.811,1.532-12.058c2.94-12.678,16.188-15.543,16.75-15.659c0.671-0.137,1.363,0.063,1.854,0.533
							c0.495,0.47,0.726,1.153,0.62,1.827l-2.138,13.618c-0.019,2.307,0.97,4.483,2.727,5.987c1.79,1.53,4.138,2.169,6.462,1.747
							l33.88-6.157c3.155-0.574,6.351,0.317,8.757,2.448c2.362,2.089,3.615,5.08,3.435,8.205c-0.237,4.075-2.223,7.956-5.905,11.537
							c-0.269,0.262-31.227,25.2-56.25,21.081c-1.352,0.549-5.768,2.859-9.371,4.743C438.928,901.58,436.08,902.977,434.761,902.977
							z M430.061,883.81c0.894,6.428,3.038,12.357,5.29,14.719c2.174-0.91,7.834-3.87,11.747-5.916
							c10.411-5.445,10.562-5.412,11.562-5.233c21.465,3.865,50.472-17.356,53.085-19.887c2.913-2.833,4.478-5.792,4.651-8.794
							c0.107-1.843-0.637-3.61-2.038-4.85c-1.446-1.28-3.363-1.816-5.257-1.471l-33.879,6.158c-3.556,0.646-7.167-0.332-9.911-2.68
							c-2.744-2.349-4.267-5.768-4.176-9.379c0.002-0.09,0.01-0.181,0.024-0.271l1.636-10.425c-3.49,1.438-8.958,4.725-10.54,11.55
							c-1.132,4.877-1.289,8.294-1.428,11.309c-0.138,2.991-0.256,5.574-1.254,8.631c-1.419,4.351-9.27,9.793-17.189,14.995
							C431.562,882.806,430.668,883.393,430.061,883.81z"/>
					</g>
					<path fill="#FFFFFF" d="M435.163,873.244c-14.924,2.425-16.995,9.776-35.518,1.638
						c-41.739-18.338-33.845-82.412-26.744-114.303c1.46-6.558,3.284-12.946,5.259-18.956c3.637-11.063-41.177-21.298-49.114-12.777
						c-9.594,10.301-19.716,23.366-28.446,39.358c-26.006,47.634-34.466,154.236,52.501,173.499
						c45.812,10.146,82.237-27.362,95.345-43.517C451.442,894.495,439.426,872.552,435.163,873.244z"/>
					<path d="M368.84,945.519c-5.239,0-10.642-0.558-16.188-1.786c-58.767-13.016-70.154-63.306-71.712-92.125
						c-0.062-1.146,0.817-2.127,1.965-2.188c1.133-0.064,2.126,0.817,2.188,1.964c1.494,27.641,12.374,75.866,68.458,88.288
						c44.793,9.921,80.156-26.624,93.28-42.797c0.224-0.569-0.166-3.875-3.155-9.921c-3.506-7.09-7.16-11.197-8.334-11.632
						c-4.338,0.72-7.597,1.894-10.477,2.931c-6.979,2.511-12.489,4.495-26.057-1.467C360.05,859.758,363,804.95,368.208,773.795
						c0.188-1.132,1.251-1.896,2.395-1.708c1.132,0.189,1.896,1.261,1.708,2.394c-5.009,29.962-8.008,82.601,28.171,98.497
						c12.053,5.295,16.399,3.729,22.975,1.361c3.083-1.109,6.58-2.368,11.373-3.147c2.854-0.461,6.391,2.967,10.574,10.188
						c1.893,3.265,7.82,14.222,4.659,18.117C438.055,914.293,408.052,945.519,368.84,945.519z"/>
				</g>
			</g>
			<g>
				<g>
					<path fill="#FFFFFF" d="M469.125,621.904c1.29,0.768,2.937,0.225,3.506-1.173c2.701-6.631,7.028-19.47,15.876-21.512
						c11.34-2.616,29.701-5.998,31.279,2.97c1.383,7.859-0.247,21.423,8.027,31.251c0.793,0.942,0.109,2.45-0.87,3.191l-5.208,4.393
						c-1.099,0.832-2.038,3.634-2.172,5.014c-0.416,4.265-4.794,19.103-6.269,20.273c-2.874,2.282-17.216,1.396-17.216,1.396
						l-7.662,33.789c-0.437,1.501,0.45,3.067,1.954,3.448l13.689,4.654c0,0-10.991,15.405-45.328,13.081
						c-21.95-1.486-38.01-16.953-38.01-16.953s42.671-6.062,48.432-56.501c0.127-1.11-0.352-2.205-1.24-2.872
						c-3.405-2.559-12.57-10.095-10.966-17.734C458.648,620.511,464.709,619.275,469.125,621.904z"/>
					<path d="M465.658,725c-2.243,0.001-4.596-0.077-7.067-0.244c-22.448-1.52-38.636-16.876-39.314-17.529
						c-0.572-0.551-0.779-1.379-0.535-2.135c0.242-0.756,0.897-1.308,1.683-1.421c1.678-0.243,41.16-6.504,46.662-54.68
						c0.042-0.372-0.121-0.745-0.424-0.973c-5.133-3.857-13.486-11.563-11.752-19.823c1.168-5.563,4.047-7.887,6.256-8.856
						c2.822-1.239,6.112-0.953,9.022,0.779c0,0,0,0,0.001,0c0.125,0.076,0.236,0.062,0.303,0.039
						c0.097-0.033,0.169-0.103,0.212-0.209l0.736-1.842c2.969-7.486,7.456-18.803,16.599-20.912
						c16.025-3.697,25.375-3.891,30.312-0.622c1.921,1.271,3.093,3.041,3.483,5.256c0.366,2.08,0.529,4.499,0.703,7.059
						c0.492,7.294,1.105,16.37,6.867,23.215c0.637,0.756,0.925,1.74,0.811,2.769c-0.143,1.275-0.916,2.584-2.016,3.419l-5.124,4.324
						c-0.515,0.448-1.326,2.428-1.443,3.625c-0.333,3.41-4.623,19.776-7.046,21.702c-2.824,2.241-12.153,2.143-16.87,1.936
						l-7.274,32.08c-0.104,0.368-0.022,0.565,0.033,0.662c0.064,0.111,0.186,0.255,0.405,0.311l13.846,4.701
						c0.623,0.212,1.109,0.705,1.31,1.332c0.202,0.626,0.095,1.311-0.286,1.846C505.309,711.429,495.258,725,465.658,725z
						 M425.227,706.812c5.557,4.346,18.163,12.746,33.644,13.793c24.924,1.687,37.017-6.153,41.439-10.083l-10.61-3.608
						c-1.117-0.276-2.18-1.085-2.834-2.23c-0.65-1.136-0.813-2.51-0.447-3.768l7.63-33.667c0.226-0.994,1.127-1.675,2.156-1.616
						c7.031,0.433,14.209,0.024,15.688-0.875c1.26-1.909,5.185-14.668,5.6-18.921c0.153-1.583,1.187-5.107,2.985-6.47l5.124-4.324
						c0.218-0.167,0.357-0.358,0.426-0.493c-6.457-7.845-7.114-17.56-7.642-25.381c-0.166-2.447-0.321-4.757-0.648-6.619
						c-0.19-1.077-0.726-1.874-1.684-2.51c-3.746-2.479-12.859-2.074-27.081,1.207c-7.016,1.619-11.018,11.713-13.667,18.394
						l-0.75,1.877c-0.498,1.224-1.498,2.167-2.742,2.583c-1.244,0.418-2.614,0.269-3.753-0.408
						c-1.744-1.038-3.648-1.236-5.225-0.545c-1.887,0.828-3.221,2.869-3.857,5.902c-1.309,6.232,6.685,13.016,10.181,15.643
						c1.479,1.112,2.266,2.94,2.057,4.771C466.434,691.357,436.436,703.656,425.227,706.812z M511.83,664.846
						C511.83,664.846,511.83,664.846,511.83,664.846S511.83,664.846,511.83,664.846z"/>
				</g>
			</g>
		</g>
		<g>
			<g>
				<g>
					<path fill="#FFFFFF" d="M1344.418,1539.475l-176.401,158.677l-488.579-1.502c-0.509-0.002-0.763-0.556-0.403-0.88
						l175.765-158.104l488.935,0.324C1344.596,1537.99,1345.027,1538.927,1344.418,1539.475z"/>
					<path d="M1168.017,1700.23c-0.003,0-0.005,0-0.007,0l-488.579-1.501c-1.116-0.005-2.087-0.667-2.477-1.687
						c-0.379-0.994-0.11-2.1,0.687-2.817l175.767-158.106c0.381-0.344,0.877-0.533,1.391-0.533l488.936,0.324
						c1.287,0,2.407,0.755,2.854,1.923c0.432,1.123,0.123,2.373-0.783,3.188l-176.399,158.676
						C1169.025,1700.041,1168.529,1700.23,1168.017,1700.23z M683.464,1694.582l483.756,1.487l173.429-156.003l-485.053-0.321
						L683.464,1694.582z M1343.026,1537.928c-0.001,0.002-0.003,0.004-0.007,0.006L1343.026,1537.928z"/>
				</g>
				<g>
					<path fill="#FFFFFF" d="M1345.203,1538.133v210.672l-175.843,158.264c-0.495,0.446-1.344,0.131-1.344-0.5v-208.417
						C1168.017,1698.151,1342.672,1538.247,1345.203,1538.133z"/>
					<path d="M1168.807,1909.357c-0.405,0-0.813-0.084-1.199-0.256c-1.031-0.459-1.672-1.429-1.672-2.533v-208.417
						c0-0.584,0.246-1.14,0.676-1.534c175.213-160.414,177.514-160.519,178.498-160.563c0.564-0.031,1.119,0.182,1.529,0.574
						c0.412,0.393,0.645,0.936,0.645,1.504v210.672c0,0.59-0.25,1.152-0.688,1.546l-175.843,158.265
						C1170.211,1909.102,1169.514,1909.357,1168.807,1909.357z M1170.096,1699.066v204.543l173.027-155.729v-205.511
						C1323.211,1559.21,1214.408,1658.501,1170.096,1699.066z"/>
				</g>
				<g>
					<path fill="#FFFFFF" d="M1168.017,1908.098l-489.21-1.484c1.047,0.941,0.373-209.624,0.373-209.624l488.837,1.162
						C1168.017,1698.151,1168.017,1908.643,1168.017,1908.098z"/>
					<path d="M1168.017,1910.178c-0.003,0-0.005,0-0.007,0l-489.114-1.484c-0.53,0.014-1.069-0.164-1.479-0.533
						c-0.611-0.549-0.839-1.403-0.591-2.179c0.75-7.585,0.453-153.06,0.274-208.985c-0.002-0.554,0.218-1.086,0.608-1.477
						c0.391-0.393,0.861-0.556,1.477-0.61l488.837,1.162c1.146,0.003,2.074,0.934,2.074,2.08v209.947
						c0,0.553-0.221,1.081-0.611,1.473C1169.096,1909.959,1168.566,1910.178,1168.017,1910.178z M681.014,1904.541l484.921,1.471
						v-205.786l-484.671-1.152c0.032,10.229,0.166,56.37,0.2,102.555c0.022,30.397-0.002,54.638-0.076,72.048
						C681.312,1892.022,681.276,1900.506,681.014,1904.541z"/>
				</g>
			</g>
			<path d="M1016.056,1821.021c-0.57,0-1.137-0.232-1.548-0.688c-0.768-0.854-0.699-2.169,0.156-2.937l44.532-40.057
				c0.855-0.769,2.166-0.698,2.938,0.155c0.768,0.854,0.697,2.168-0.156,2.937l-44.531,40.057
				C1017.047,1820.846,1016.551,1821.021,1016.056,1821.021z"/>
		</g>
		<g>
			<g>
				<g>
					<path fill="#FFFFFF" d="M1906.943,1335.931l-178.05,160.16l-482.103-1.5c-0.713-0.002-1.068-0.777-0.564-1.231l175.376-157.754
						L1906.943,1335.931z"/>
					<path d="M1728.894,1498.17c-0.002,0-0.005,0-0.007,0l-482.103-1.5c-1.212-0.003-2.269-0.719-2.691-1.824
						c-0.407-1.067-0.118-2.257,0.741-3.031l175.377-157.755c0.383-0.345,0.877-0.534,1.392-0.534l485.343,0.326
						c0.861,0.001,1.633,0.531,1.941,1.336c0.308,0.804,0.088,1.714-0.551,2.289l-178.052,160.16
						C1729.903,1497.98,1729.408,1498.17,1728.894,1498.17z M1250.267,1492.522l477.832,1.486l173.429-156.001l-479.127-0.322
						L1250.267,1492.522z"/>
				</g>
				<g>
					<path fill="#FFFFFF" d="M1906.943,1336.072v409.937l-175.354,157.825c-0.676,0.608-1.833,0.178-1.833-0.682v-407.062
						C1729.756,1496.091,1904.412,1336.187,1906.943,1336.072z"/>
					<path d="M1730.834,1906.198c-0.449,0-0.901-0.093-1.328-0.282c-1.127-0.502-1.828-1.563-1.828-2.764v-407.062
						c0-0.583,0.244-1.14,0.675-1.534c175.211-160.413,177.514-160.518,178.497-160.562c0.561-0.029,1.121,0.183,1.53,0.574
						c0.411,0.393,0.644,0.936,0.644,1.503v409.937c0,0.589-0.25,1.151-0.688,1.546l-175.356,157.826
						C1732.382,1905.918,1731.615,1906.198,1730.834,1906.198z M1731.837,1497.006v403.807l173.028-155.73V1340.31
						C1884.951,1357.15,1776.149,1456.44,1731.837,1497.006z"/>
				</g>
				<g>
					<path fill="#FFFFFF" d="M1729.756,1904.129l-484.146-1.484c1.047,0.941,0.373-407.716,0.373-407.716l483.773,1.162
						C1729.756,1496.091,1729.756,1904.674,1729.756,1904.129z"/>
					<path d="M1729.758,1906.209c-0.002,0-0.005,0-0.007,0l-484.081-1.484c-0.551,0.017-1.049-0.172-1.451-0.534
						c-0.578-0.521-0.813-1.313-0.625-2.056c0.759-9.213,0.535-269.882,0.31-407.202c-0.001-0.554,0.218-1.084,0.608-1.475
						c0.391-0.39,0.92-0.608,1.471-0.608c0.002,0,0.004,0,0.005,0l483.774,1.162c1.148,0.002,2.075,0.933,2.075,2.079v408.038
						c0,0.553-0.22,1.082-0.612,1.473C1730.836,1905.99,1730.307,1906.209,1729.758,1906.209z M1247.779,1900.572l479.898,1.471
						v-403.877l-479.613-1.152c0.025,14.989,0.168,108.27,0.203,201.599c0.022,59.15-0.004,106.298-0.078,140.137
						c-0.041,19.127-0.1,35.077-0.182,46.26C1247.949,1893.248,1247.916,1897.897,1247.779,1900.572z"/>
				</g>
			</g>
			<path d="M1451.6,1745.201c-0.568,0-1.137-0.232-1.548-0.689c-0.767-0.854-0.698-2.168,0.156-2.937l140.19-126.105
				c0.855-0.769,2.168-0.699,2.938,0.155c0.768,0.854,0.699,2.168-0.155,2.938l-140.19,126.104
				C1452.592,1745.025,1452.096,1745.201,1451.6,1745.201z"/>
			<path d="M1446.651,1650.251c-0.569,0-1.136-0.231-1.548-0.689c-0.768-0.854-0.699-2.168,0.155-2.937l44.532-40.058
				c0.855-0.769,2.169-0.698,2.938,0.155c0.768,0.854,0.697,2.168-0.156,2.938l-44.531,40.057
				C1447.643,1650.075,1447.146,1650.251,1446.651,1650.251z"/>
		</g>
		<g>
			<g>
				<g>
					<path fill="#FFFFFF" d="M1826.253,924.453h-525.806c-7.735,0-13.775,6.685-12.995,14.381l50.192,494.811
						c0.192,1.887,1.801,3.311,3.698,3.27l27.159-0.577c1.122-0.023,1.995-0.982,1.914-2.102l-33.047-460.104
						c-0.545-7.569,5.455-14.007,13.045-13.998l426.741,0.544c7.602,0.009,13.589,6.482,13.009,14.061l-35.113,457.727
						c-0.182,2.374,1.658,4.418,4.039,4.482l23.702,0.65c1.698,0.046,3.147-1.221,3.328-2.91l53.12-495.78
						C1840.067,931.187,1834.018,924.453,1826.253,924.453z"/>
					<path d="M1782.879,1439.678c-0.049,0-0.096,0-0.146-0.002l-23.7-0.65c-1.725-0.046-3.312-0.779-4.469-2.062
						c-1.155-1.282-1.721-2.937-1.589-4.658l35.114-457.727c0.236-3.082-0.79-6.028-2.889-8.298c-2.1-2.269-4.957-3.521-8.049-3.524
						l-426.742-0.544c-0.004,0-0.009,0-0.015,0c-3.081,0-5.933,1.24-8.032,3.494c-2.105,2.258-3.143,5.197-2.921,8.275
						l33.049,460.104c0.079,1.099-0.302,2.197-1.043,3.012c-0.743,0.813-1.8,1.295-2.901,1.318l-27.16,0.578
						c-2.947,0.078-5.511-2.194-5.811-5.141l-50.195-494.81c-0.43-4.252,0.967-8.51,3.832-11.681
						c2.865-3.17,6.961-4.988,11.234-4.988h525.806c4.29,0,8.395,1.83,11.262,5.021c2.868,3.191,4.251,7.468,3.794,11.734
						l-53.122,495.78C1787.898,1437.609,1785.581,1439.678,1782.879,1439.678z M1350.396,958.054c0.006,0,0.012,0,0.02,0
						l426.742,0.544c4.198,0.005,8.243,1.776,11.096,4.859c2.852,3.083,4.304,7.253,3.982,11.44l-35.113,457.726
						c-0.043,0.575,0.145,1.128,0.532,1.557c0.386,0.429,0.916,0.673,1.493,0.689l23.699,0.65c0.668-0.007,1.139-0.447,1.204-1.053
						l53.121-495.78c0.331-3.095-0.671-6.197-2.751-8.512s-5.059-3.642-8.169-3.642h-525.806c-3.1,0-6.069,1.319-8.148,3.618
						c-2.078,2.301-3.092,5.388-2.778,8.473l50.194,494.81c0.079,0.804,0.834,1.392,1.583,1.402l27.159-0.578l-33.164-459.977
						c-0.299-4.184,1.168-8.342,4.027-11.409C1342.174,959.809,1346.211,958.054,1350.396,958.054z"/>
				</g>
				<path fill="#FFFFFF" d="M1730.998,953.346c-1.148,0-2.079-0.932-2.079-2.079v-22.373c0-1.148,0.931-2.08,2.079-2.08
					s2.08,0.931,2.08,2.08v22.373C1733.078,952.414,1732.146,953.346,1730.998,953.346z"/>
			</g>
			<g>
				<g>
					<g>
						<g>
							<path fill="#FFFFFF" d="M1468.15,1347.646l-10.232,50.963c-0.346,1.724-1.95,2.889-3.452,2.508l-29.91-7.608
								c-1.29-0.327-2.053-1.696-1.771-3.179l8.615-45.541L1468.15,1347.646z"/>
							<path d="M1455.053,1403.27c-0.367,0-0.735-0.046-1.1-0.138l-29.91-7.606c-2.369-0.603-3.789-3.002-3.302-5.582l8.616-45.542
								c0.199-1.043,1.159-1.762,2.205-1.687l36.75,2.858c0.592,0.047,1.138,0.344,1.496,0.818c0.359,0.475,0.498,1.081,0.38,1.665
								l-10.231,50.962c-0.292,1.456-1.164,2.734-2.391,3.508C1456.785,1403.018,1455.92,1403.27,1455.053,1403.27z
								 M1433.098,1347.006l-8.27,43.711c-0.078,0.402,0.065,0.733,0.24,0.777l29.91,7.606c0.136,0.037,0.307-0.054,0.373-0.095
								c0.262-0.165,0.459-0.467,0.527-0.807l9.771-48.661L1433.098,1347.006z"/>
						</g>
						<g>
							<polygon fill="#FFFFFF" points="1564.577,1303.932 1589.778,1345.359 1560.977,1360.621 1535.057,1323.556 							"/>
							<path d="M1560.979,1362.701c-0.66,0-1.304-0.314-1.704-0.888l-25.923-37.066c-0.32-0.459-0.443-1.028-0.339-1.578
								s0.426-1.036,0.892-1.345l29.521-19.625c0.474-0.312,1.047-0.42,1.604-0.297c0.553,0.122,1.03,0.465,1.325,0.948l25.2,41.427
								c0.299,0.489,0.381,1.081,0.229,1.634c-0.152,0.552-0.524,1.017-1.032,1.286l-28.801,15.262
								C1561.643,1362.623,1561.309,1362.701,1560.979,1362.701z M1537.98,1324.107l23.648,33.816l25.226-13.369l-22.929-37.693
								L1537.98,1324.107z"/>
						</g>
						<g>
							<g>
								<path fill="#FFFFFF" d="M1468.57,1376.211c2.044,7.328,6.357,27.979,8.162,40.402c1.131,7.795-3.795,15.171-11.332,17.209
									c-21.314,5.766-72.268,5.518-114.688,7.391c-2.903,0.127-8.26-1.291-10.639-8.328
									c-8.072-23.873,36.513-31.268,80.582-55.538c0.866-0.477,1.92-0.433,2.727,0.143c0.506,0.361,1.15,0.803,1.911,1.287
									c7.667,4.878,20.408,4.885,28.193,0.202l8.793-5.287C1464.691,1372.241,1467.809,1373.484,1468.57,1376.211z"/>
								<path d="M1350.348,1443.301c-4.23,0-9.801-2.524-12.242-9.751c-6.238-18.445,15.478-27.851,42.969-39.756
									c11.858-5.135,25.299-10.955,38.578-18.269c1.584-0.872,3.477-0.771,4.937,0.27c0.485,0.346,1.099,0.766,1.821,1.226
									c6.927,4.408,18.836,4.487,26.005,0.177l8.793-5.288c1.708-1.026,3.749-1.195,5.599-0.459
									c1.854,0.738,3.228,2.27,3.768,4.202c2.123,7.611,6.417,28.282,8.217,40.661c1.276,8.8-4.248,17.189-12.848,19.517
									c-16.092,4.353-47.879,5.3-81.533,6.304c-11.186,0.333-22.754,0.677-33.605,1.156
									C1350.654,1443.297,1350.501,1443.301,1350.348,1443.301z M1421.916,1379.1c-0.085,0-0.174,0.022-0.258,0.069
									c-13.451,7.408-26.988,13.27-38.932,18.442c-29.182,12.638-45.461,20.476-40.683,34.606
									c2.313,6.843,7.556,6.961,8.579,6.917c10.879-0.479,22.463-0.825,33.664-1.159c31.932-0.952,64.951-1.935,80.569-6.16
									c6.573-1.778,10.792-8.185,9.817-14.903c-1.731-11.914-6.034-32.714-8.107-40.142c-0.188-0.671-0.66-1.202-1.299-1.455
									c-0.63-0.252-1.328-0.194-1.916,0.157l-8.792,5.289c-8.509,5.117-22.138,5.014-30.381-0.23
									c-0.798-0.508-1.474-0.971-2.005-1.35C1422.098,1379.127,1422.01,1379.1,1421.916,1379.1z"/>
							</g>
							<g>
								<path fill="#FFFFFF" d="M1478.017,1422.239c0.042,0.216,0.069,0.366,0.08,0.435c1.133,7.794-6.271,12.584-13.347,15.906
									c-21,9.857-105.807,4.208-109.081,3.986c-0.067-0.005-0.114-0.007-0.181-0.006c-1.057,0.017-11.82,0.017-14.924-6.678
									c-0.386-0.832-0.623-1.999-0.769-3.096c-0.237-1.79-0.114-3.609,0.28-5.371c0.322-1.438,1.736-2.334,3.151-1.972
									c15.743,4.024,52.661,6.654,89.226,1.315c13.482-1.969,35.025-8.014,40.686-11.398c1.543-0.923,3.517-0.027,3.867,1.749
									C1477.3,1418.594,1477.656,1420.398,1478.017,1422.239z"/>
								<path d="M1408.787,1446.438c-26.252,0.001-51.334-1.666-53.26-1.797c-1.358,0.006-13.209-0.029-16.85-7.883
									c-0.426-0.918-0.734-2.127-0.943-3.696c-0.26-1.963-0.154-4.015,0.312-6.101c0.282-1.261,1.04-2.324,2.133-2.994
									c1.075-0.658,2.344-0.852,3.563-0.537c13.648,3.49,49.717,6.922,88.412,1.271c13.178-1.924,34.441-7.85,39.916-11.125
									c1.297-0.776,2.895-0.874,4.276-0.26c1.392,0.618,2.401,1.885,2.699,3.39l1.01,5.132c0.054,0.262,0.085,0.445,0.099,0.528
									c1.374,9.466-7.629,14.861-14.521,18.097C1455.625,1445.161,1431.758,1446.438,1408.787,1446.438z M1355.471,1440.482
									c0.075,0,0.286,0.005,0.34,0.009c30.207,2.053,91.664,3.899,108.057-3.794c9.171-4.305,12.924-8.538,12.171-13.725
									l-0.062-0.33c0-0.001,0-0.002,0-0.004l-1.011-5.125c-0.048-0.248-0.214-0.355-0.308-0.396
									c-0.105-0.047-0.27-0.08-0.451,0.029c-5.926,3.543-27.619,9.651-41.453,11.671c-35.033,5.115-72.537,3.118-90.041-1.358
									c-0.127-0.032-0.249-0.016-0.36,0.055c-0.072,0.044-0.201,0.149-0.247,0.356c-0.359,1.606-0.444,3.17-0.248,4.644
									c0.199,1.482,0.455,2.199,0.594,2.495c2.581,5.567,12.559,5.469,13.007,5.474
									C1355.459,1440.482,1355.465,1440.482,1355.471,1440.482z"/>
							</g>
							<path d="M1417.634,1398.718c-0.438,0-0.882-0.139-1.259-0.425l-12.865-9.797c-0.914-0.695-1.09-2.001-0.395-2.915
								c0.694-0.913,1.998-1.09,2.914-0.395l12.865,9.797c0.915,0.696,1.092,2.001,0.395,2.915
								C1418.881,1398.436,1418.26,1398.718,1417.634,1398.718z"/>
							<path d="M1400.539,1405.724c-0.433,0-0.871-0.136-1.245-0.416l-11.255-8.446c-0.92-0.689-1.105-1.992-0.416-2.912
								c0.688-0.918,1.996-1.105,2.912-0.414l11.255,8.445c0.919,0.689,1.105,1.993,0.415,2.911
								C1401.797,1405.438,1401.173,1405.724,1400.539,1405.724z"/>
						</g>
						<g>
							<g>
								<path fill="#FFFFFF" d="M1559.093,1351.781l33.124-4.793l19.559,41.49c2.879,6.224,0.592,14.29-5.232,17.975
									c-7.587,4.8-18.918,11.055-31.934,15.238c-24.545,7.892-49.05,30.523-70.158,19.397
									c-21.109-11.126-19.711-11.952-20.768-19.573c-1.056-7.622,19.867-22.626,34.017-32.498
									C1529.258,1380.954,1559.093,1351.781,1559.093,1351.781z"/>
								<path d="M1516.822,1446.163c-4.545,0-9.006-0.95-13.341-3.235c-19.888-10.481-20.771-12.384-21.667-19.641
									c-0.057-0.467-0.117-0.961-0.191-1.486c-1.064-7.683,13.177-19.343,34.888-34.488c11.286-7.875,40.832-36.728,41.128-37.019
									c0.315-0.308,0.719-0.508,1.156-0.571l33.125-4.793c0.904-0.127,1.789,0.345,2.178,1.171l19.559,41.491
									c3.321,7.183,0.626,16.426-6,20.619c-7.391,4.676-19.013,11.154-32.41,15.46c-7.584,2.438-15.324,6.396-22.81,10.222
									C1540.581,1439.954,1528.436,1446.163,1516.822,1446.163z M1560.061,1353.742c-4.04,3.937-30.277,29.382-41.17,36.981
									c-8.43,5.879-34.08,23.774-33.146,30.506c0.075,0.548,0.139,1.063,0.199,1.548c0.678,5.494,0.82,6.638,19.479,16.472
									c13.491,7.11,28.855-0.743,45.121-9.061c7.633-3.901,15.523-7.936,23.43-10.477c12.98-4.173,24.271-10.469,31.459-15.016
									c4.928-3.118,6.926-10.002,4.457-15.345l-18.896-40.085L1560.061,1353.742z"/>
							</g>
							<path d="M1548.217,1387.753c-0.39,0-0.781-0.109-1.133-0.336l-14.939-9.716c-0.963-0.625-1.236-1.914-0.609-2.877
								c0.625-0.963,1.916-1.235,2.877-0.609l14.939,9.715c0.963,0.625,1.236,1.914,0.611,2.877
								C1549.563,1387.42,1548.896,1387.753,1548.217,1387.753z"/>
							<path d="M1537.592,1398.888c-0.389,0-0.78-0.108-1.131-0.336l-14.939-9.716c-0.963-0.626-1.236-1.914-0.609-2.877
								c0.627-0.964,1.914-1.234,2.877-0.609l14.939,9.715c0.963,0.626,1.236,1.915,0.61,2.877
								C1538.939,1398.555,1538.273,1398.888,1537.592,1398.888z"/>
							<g>
								<path fill="#FFFFFF" d="M1485.126,1427.222c0,0,16.608,12.101,34.889,5.782s91.757-45.016,91.757-45.016l3.796,8.317
									c1.921,4.214,0.273,9.225-3.78,11.508c-18.301,10.31-67.158,36.589-92.579,38.32
									C1487.529,1448.29,1485.126,1427.222,1485.126,1427.222z"/>
								<path d="M1514.821,1448.366c-29.03,0-31.735-20.69-31.761-20.909c-0.094-0.819,0.306-1.615,1.018-2.031
									c0.713-0.416,1.605-0.369,2.271,0.114c0.157,0.112,15.985,11.372,32.986,5.499c17.922-6.195,90.733-44.504,91.469-44.891
									c0.505-0.267,1.096-0.313,1.64-0.128c0.542,0.186,0.981,0.585,1.22,1.105l3.795,8.316
									c2.354,5.157,0.312,11.388-4.651,14.183c-19.562,11.019-67.828,36.838-93.46,38.583
									C1517.773,1448.314,1516.264,1448.366,1514.821,1448.366z M1488.824,1431.826c2.815,5.52,10.346,13.592,30.241,12.231
									c24.784-1.688,72.386-27.176,91.702-38.057c3.094-1.743,4.372-5.623,2.908-8.833l-2.883-6.315
									c-12.006,6.3-73.33,38.321-90.098,44.117C1507.518,1439.524,1495.336,1435.146,1488.824,1431.826z"/>
							</g>
						</g>
						<g>
							<g>
								<path fill="#FFFFFF" d="M1536.98,1022.298c0,0-114.093,46.401-156.188,97.392c-40.225,48.721,140.942,225.67,140.942,225.67
									c0.228,0.839,61.563-33.82,61.563-34.887l-46.98-102.479c-18.541-39.973-55.628-62.811-40.503-76.856
									c13.764-12.782,90.272-6.178,129.539-7.545c69.762-2.429,69.096-104.124,69.096-104.124L1536.98,1022.298z"/>
								<path d="M1521.797,1347.452c-0.564,0-1.109-0.229-1.507-0.612c-7.454-7.28-182.071-178.85-141.103-228.475
									c41.945-50.807,155.865-97.527,157.01-97.993c0.238-0.097,0.491-0.148,0.747-0.153l157.468-2.829
									c0.551-0.019,1.093,0.203,1.488,0.591c0.399,0.388,0.625,0.92,0.628,1.475c0.007,1.038-0.142,103.746-71.103,106.216
									c-11.271,0.393-25.486,0.133-40.536-0.143c-34.948-0.636-78.44-1.43-87.659,7.131c-7.081,6.575-0.409,15.632,13.004,32.401
									c8.973,11.218,20.141,25.18,27.969,42.06l46.986,102.484c0.123,0.272,0.188,0.568,0.188,0.867
									c0,1.523,0,1.983-31.008,19.547c-13.809,7.821-30.62,17.191-32.303,17.414
									C1521.978,1347.445,1521.886,1347.452,1521.797,1347.452z M1521.275,1343.363c-0.002,0-0.002,0-0.002,0H1521.275z
									 M1537.41,1024.37c-7.055,2.916-114.895,48.046-155.016,96.644c-37.094,44.932,125.827,208.043,139.852,221.926
									c7.733-3.683,50.707-28.028,58.471-33.109l-46.291-100.969c-7.613-16.414-18.607-30.158-27.441-41.202
									c-12.752-15.942-22.825-28.536-12.585-38.046c10.447-9.702,51.178-8.959,90.565-8.241
									c14.996,0.272,29.158,0.531,40.317,0.143c61.479-2.141,66.625-85.513,67.049-99.928L1537.41,1024.37z"/>
							</g>
							<g>
								<path fill="#FFFFFF" d="M1439.785,1148.625c-9.852,36.84-19.213,147.676-21.373,209.66
									c-0.029,0.852,62.783,1.454,62.913,0.338c0.629-5.451,47.063-173.303,72.995-217.688
									c13.774-23.574,102.637-16.819,122.459-20.755c52.923-10.509,49.453-117.351,49.453-117.351l-247.773,98.95
									C1457.275,1105.004,1445.368,1127.749,1439.785,1148.625z"/>
								<path d="M1464.299,1361.326c-2.905,0-6.256-0.011-10.127-0.027c-13.184-0.061-29.23-0.322-34.394-0.709
									c-1.401-0.105-3.517-0.265-3.444-2.376c2.123-60.924,11.532-173.068,21.443-210.126
									c4.381-16.383,15.414-44.395,40.13-48.327l247.553-98.863c0.631-0.251,1.344-0.18,1.909,0.191
									c0.568,0.372,0.918,0.996,0.942,1.674c0.144,4.434,2.906,108.729-51.128,119.457c-5.686,1.13-16.328,1.393-29.803,1.725
									c-32.615,0.806-81.906,2.021-91.265,18.041c-25.812,44.181-71.968,210.886-72.726,216.878
									C1483.158,1360.875,1483.102,1361.326,1464.299,1361.326z M1420.557,1356.499c9.16,0.664,51.271,0.91,59.014,0.331
									c4.188-18.279,48.354-174.836,72.955-216.943c10.529-18.021,59.208-19.223,94.754-20.1
									c12.748-0.315,23.759-0.587,29.096-1.647c45.741-9.082,47.856-95.037,47.814-112.255l-244.958,97.826
									c-0.149,0.06-0.302,0.101-0.459,0.125c-22.545,3.43-32.845,29.872-36.979,45.326
									C1432.059,1185.568,1422.796,1295.375,1420.557,1356.499z M1439.786,1148.625h0.021H1439.786z"/>
							</g>
						</g>
					</g>
					<g>
						<path d="M1742.102,833.631c0,0-2.125-85.247-52.251-101.795c-4.259-1.407-8.723-2.104-13.204-2.273l-44.226-1.668
							c-13.124-0.103-23.996,3.067-38.041,8.208c-11.738,4.297-24.811,12.304-32.439,19.235
							c-33.638,30.557-33.976,133.139-63.068,130.718c-9.769-0.813-26.114-17.129-42.298-37.096
							c-12.961-15.989-35.281-35.613-35.281-35.613l-38.881,19.624c9.242,15.672,17.571,31.902,24.381,48.797
							c14.221,35.288,37.565,64.915,66.801,90.209c9.729,8.418,23.487,10.14,34.976,4.412c18.644-9.296,46.581-24.263,63.937-38.404
							c6.387,22.065,0.693,46.128-15.035,63.131c-4.721,5.104-9.836,9.791-15.219,13.616c-5.297,3.764-6.553,11.202-2.915,16.612
							c5.862,8.717,17.569,18.746,39.914,16.396c29.357-3.086,112.946-2.753,149.857-2.436c9.792,0.083,17.702-8.029,17.474-17.913
							L1742.102,833.631z"/>
						<path fill="#FFFFFF" d="M1571.936,940.513c-0.616,0-1.227-0.274-1.637-0.797c-0.709-0.904-0.549-2.211,0.354-2.92
							c4.998-3.914,20.207-18.027,28.189-29.73c0.65-0.949,1.942-1.193,2.891-0.546c0.948,0.647,1.193,1.941,0.547,2.89
							c-8.242,12.083-23.915,26.63-29.062,30.662C1572.838,940.369,1572.386,940.513,1571.936,940.513z"/>
						<g>
							<path fill="#FFFFFF" d="M1416.434,814.438l-5.941-32.161c0,0-4.859-24.529-10.801-27.8c-4.37-2.406-7.279,6.698-6.36,18.192
								c0.153,1.905-2.44,2.59-3.228,0.852c-3.1-6.846-6.336-14.866-6.612-19.044c-0.54-8.177-2.159-25.074-9.72-23.438
								c-7.562,1.635-21.062,27.799-10.801,50.148c10.261,22.349,34.021,43.062,34.021,43.062L1416.434,814.438z"/>
							<path d="M1396.992,826.328c-0.492,0-0.98-0.175-1.367-0.513c-0.984-0.857-24.217-21.265-34.543-43.762
								c-6.794-14.794-3.646-31.2,1.564-41.62c3.201-6.402,7.197-10.674,10.686-11.428c1.892-0.411,3.707-0.013,5.25,1.149
								c3.868,2.915,6.088,10.599,6.984,24.184c0.191,2.875,2.156,8.653,5.564,16.382c-0.289-7.123,0.77-15.412,4.725-17.968
								c1.49-0.962,3.208-0.997,4.84-0.099c6.461,3.557,10.994,24.963,11.838,29.217l5.945,32.187
								c0.167,0.908-0.283,1.818-1.109,2.234l-19.44,9.812C1397.631,826.255,1397.311,826.328,1396.992,826.328z M1374.766,733.008
								c-0.176,0-0.361,0.021-0.555,0.063c-1.745,0.378-4.943,3.425-7.844,9.224c-4.779,9.558-7.686,24.565-1.507,38.025
								c8.747,19.05,27.819,37.185,32.464,41.432l16.78-8.468l-5.657-30.628c-1.937-9.766-6.25-24.424-9.758-26.356
								c-0.354-0.194-0.447-0.135-0.575-0.051c-1.538,0.994-3.463,6.848-2.71,16.256c0.15,1.872-1.01,3.506-2.823,3.974
								c-1.808,0.465-3.603-0.398-4.372-2.099c-4.262-9.412-6.549-16.062-6.793-19.765c-0.983-14.886-3.445-19.71-5.339-21.137
								C1375.658,733.159,1375.238,733.008,1374.766,733.008z"/>
						</g>
					</g>
					<g>
						<g>
							<path fill="#FFFFFF" d="M1616.809,741.027c-1.234-0.226-1.537-1.894-0.449-2.523c3.686-2.133,8.896-5.998,8.572-10.667
								l0.791-18.038c-0.055-2.2-1.502-4.115-3.59-4.75l-12.97-3.943c-2.001-0.608-3.354-2.488-3.309-4.596l0.401-19.128
								l-6.291-5.081c-0.49-0.396-0.578-1.117-0.195-1.621l9.09-12.001c2.949-4.514,5.651-15.133,8.246-14.522
								c0,0,53.741-8.472,58.07,18.235c0.662,4.08-0.338,8.262-2.588,11.715l-4.551,6.975c-4.568,7.005-6.773,15.445-5.561,23.741
								c0.381,2.609,6.459,26.599,6.459,26.599s10.783,4.886,17.379,6.712c1.421,0.394,1.498,2.398,0.109,2.904l-12.057,2.882
								c-12.052,2.835-24.551,3.149-36.729,0.92L1616.809,741.027z"/>
							<path d="M1653.826,748.397c-5.523,0-11.053-0.503-16.563-1.512l-20.83-3.813c-1.434-0.263-2.521-1.365-2.771-2.808
								c-0.249-1.437,0.4-2.834,1.655-3.561c4.977-2.879,7.724-6.059,7.539-8.724c-0.006-0.078-0.006-0.156-0.002-0.235
								l0.791-18.038c-0.034-1.164-0.885-2.294-2.119-2.669l-12.969-3.944c-2.881-0.875-4.848-3.601-4.785-6.628l0.383-18.108
								l-5.498-4.439c-1.375-1.113-1.614-3.086-0.547-4.495l9.092-12c0.928-1.432,1.977-3.938,2.99-6.362
								c2.157-5.161,3.93-9.284,6.91-9.009c4.994-0.745,55.649-7.603,60.125,20.006c0.731,4.513-0.299,9.195-2.9,13.183l-4.55,6.975
								c-4.479,6.869-6.342,14.791-5.244,22.304c0.259,1.775,3.74,15.805,6.169,25.411c2.717,1.2,10.896,4.737,16.166,6.196
								c1.511,0.419,2.57,1.757,2.633,3.33c0.063,1.575-0.889,2.995-2.365,3.533c-0.073,0.027-0.151,0.049-0.228,0.069l-12.06,2.882
								C1667.895,747.579,1660.865,748.397,1653.826,748.397z M1619.014,739.317l19,3.478c11.964,2.19,24.033,1.887,35.877-0.899
								l9.869-2.359c-6.595-2.114-15.279-6.038-15.684-6.221c-0.576-0.261-1.002-0.771-1.156-1.384
								c-0.627-2.466-6.115-24.169-6.501-26.808c-1.244-8.519,0.842-17.461,5.877-25.18l4.55-6.974
								c2.033-3.119,2.842-6.757,2.277-10.247c-3.951-24.381-55.178-16.594-55.693-16.513c-0.076,0.012-0.152,0.02-0.229,0.023
								c-0.846,0.873-2.233,4.19-3.17,6.431c-1.087,2.596-2.209,5.282-3.43,7.151l-8.645,11.419l5.607,4.528
								c0.5,0.405,0.785,1.019,0.772,1.662l-0.404,19.128c-0.023,1.172,0.729,2.226,1.837,2.562l12.969,3.944
								c2.951,0.897,4.988,3.585,5.064,6.688l-0.789,18.071C1627.279,732.718,1623.131,736.648,1619.014,739.317z"/>
						</g>
						<path d="M1613.537,602.614c12.412-1.158-2.78,12.238,42.746-2.859c18.131-6.013,9.604,15.772,14.313,14.226
							c17.383-5.714,16.785-5.538,25.436-3.579c5.727,1.297,9.782,11.669,8.985,19.554c-1.052,10.407-12.041,27.321-21.77,45.121
							c-5.038,9.217-14.593,10.434-26.755-2.456c-1.295-1.372,4.662-10.025,1.215-13.502c-8.954-9.039-12.16,5.319-19.254,1.228
							c-6.811-3.928-9.666-6.536-16.945-12.604c-8.809-7.342-22.549,5.241-28.192-11.881
							C1590.373,626.93,1596.545,604.202,1613.537,602.614z"/>
					</g>
				</g>
				<path d="M1735.031,1400.925h-75.59v-273.059h-38.883v273.059h-75.59c-23.098,0-41.824,18.725-41.824,41.824v7.579h273.711
					v-7.579C1776.855,1419.649,1758.13,1400.925,1735.031,1400.925z"/>
				<g>
					<path fill="#FFFFFF" d="M1756.091,839.693h-19.562c-52.154,0-97.272,36.657-108.418,88.086l-22.764,105.039
						c-5.326,24.58-26.89,42.101-51.817,42.101h-41.115c-21.493,0-38.917,17.587-38.917,39.283s17.424,39.283,38.917,39.283h66.782
						l-0.038,0.181h117.496c41.12,0,76.692-28.9,85.479-69.448l36.102-166.589C1826.916,877.583,1796.703,839.693,1756.091,839.693z
						"/>
					<path d="M1696.655,1155.746h-117.497c-0.297,0-0.586-0.063-0.852-0.182h-65.892c-22.606,0-40.997-18.555-40.997-41.362
						s18.391-41.364,40.997-41.364h41.115c23.767,0,44.705-17.016,49.784-40.459l22.763-105.04
						c11.269-51.99,57.72-89.726,110.452-89.726h19.562c19.851,0,38.421,8.91,50.952,24.444
						c12.705,15.755,17.525,36.17,13.228,56.012l-36.103,166.589C1775.24,1125.85,1738.437,1155.746,1696.655,1155.746z
						 M1580.046,1151.587h116.609c39.836,0,74.931-28.518,83.447-67.81l36.103-166.589c4.031-18.606-0.488-37.749-12.4-52.52
						c-11.734-14.551-29.126-22.896-47.714-22.896h-19.562c-50.789,0-95.53,36.357-106.385,86.448l-22.764,105.039
						c-5.492,25.344-28.14,43.739-53.851,43.739h-41.115c-20.313,0-36.837,16.689-36.837,37.204
						c0,20.514,16.524,37.204,36.837,37.204h66.782C1579.494,1151.406,1579.783,1151.47,1580.046,1151.587z"/>
				</g>
			</g>
		</g>
		<g>
			<g>
				<g>
					<path fill="#FFFFFF" d="M1243.945,1138.666H718.14c-7.735,0-13.776,6.686-12.995,14.382l50.193,494.81
						c0.191,1.887,1.801,3.311,3.698,3.271l27.16-0.577c1.122-0.024,1.996-0.982,1.915-2.103l-33.049-460.104
						c-0.544-7.569,5.456-14.008,13.045-13.998l426.743,0.543c7.6,0.011,13.588,6.483,13.008,14.062l-35.113,457.727
						c-0.182,2.375,1.659,4.418,4.039,4.483l23.702,0.649c1.698,0.047,3.147-1.221,3.327-2.91l53.122-495.78
						C1257.761,1145.4,1251.711,1138.666,1243.945,1138.666z"/>
					<path d="M1200.573,1653.891c-0.048,0-0.097,0-0.146-0.002l-23.701-0.649c-1.727-0.047-3.313-0.779-4.469-2.063
						c-1.156-1.282-1.719-2.937-1.588-4.658l35.112-457.726c0.237-3.082-0.788-6.028-2.888-8.298
						c-2.1-2.269-4.957-3.521-8.048-3.524l-426.743-0.544c-0.004,0-0.009,0-0.015,0c-3.081,0-5.932,1.24-8.033,3.494
						c-2.104,2.259-3.142,5.197-2.92,8.275l33.05,460.103c0.078,1.101-0.301,2.197-1.043,3.012c-0.743,0.814-1.8,1.295-2.901,1.318
						l-27.159,0.578c-2.988,0.057-5.513-2.193-5.812-5.14l-50.193-494.811c-0.43-4.253,0.965-8.509,3.83-11.681
						c2.865-3.171,6.96-4.989,11.234-4.989h525.807c4.289,0,8.395,1.831,11.262,5.021c2.867,3.191,4.25,7.468,3.793,11.733
						l-53.122,495.78C1205.592,1651.823,1203.275,1653.891,1200.573,1653.891z M768.09,1172.267c0.006,0,0.012,0,0.02,0
						l426.742,0.545c4.201,0.005,8.244,1.775,11.096,4.859c2.852,3.083,4.305,7.253,3.982,11.439l-35.111,457.726
						c-0.045,0.576,0.143,1.129,0.529,1.557c0.386,0.43,0.916,0.674,1.493,0.689l23.701,0.649c0.622-0.011,1.137-0.444,1.202-1.052
						l53.123-495.781c0.33-3.094-0.672-6.195-2.751-8.51c-2.082-2.314-5.058-3.643-8.169-3.643H718.14
						c-3.099,0-6.069,1.318-8.147,3.619c-2.078,2.3-3.091,5.389-2.778,8.473l50.193,494.81c0.081,0.804,0.801,1.397,1.585,1.401
						l27.158-0.578l-33.165-459.978c-0.3-4.183,1.167-8.34,4.026-11.408C759.867,1174.023,763.903,1172.267,768.09,1172.267z"/>
				</g>
				<path fill="#FFFFFF" d="M1148.69,1167.559c-1.147,0-2.078-0.932-2.078-2.079v-22.372c0-1.148,0.931-2.08,2.078-2.08
					c1.149,0,2.081,0.932,2.081,2.08v22.372C1150.771,1166.627,1149.84,1167.559,1148.69,1167.559z"/>
			</g>
			<g>
				<g>
					<g>
						<g>
							<path d="M914.108,1331.113c-11.84,54.227,35.104,202.563,44.945,238.714c1.29,4.736,5.62,8.022,10.562,8.022h43.737
								c6.083,0,10.998-4.913,10.941-10.953c-0.404-42.889-8.198-199.264,18.542-244.285c15.481-26.063,43.838-37.816,62.798-50.22
								c45.508-29.77,28.376-95.688,28.376-95.688l-171.891,102.03C938.312,1282.297,919.209,1307.749,914.108,1331.113z"/>
							<path d="M979.301,1193.757c0,0-150.049,1.342-197.362,57.716c-42.522,50.667,20.518,273.726,33.718,318.371
								c1.368,4.628,5.64,7.794,10.497,7.794h56.372c1.188,0,2.15-0.955,2.15-2.134v-236.346c0-14.893,2.919-6.907,15.524-14.978
								c17.666-11.31,49.712-1.707,93.87-1.379c140.231,1.04,117.645-130.98,117.645-130.98L979.301,1193.757z"/>
						</g>
						<g>
							<polygon fill="#FFFFFF" points="1013.741,1578.063 1016.686,1616.338 981.635,1616.516 974.39,1578.328 							"/>
							<path d="M981.635,1618.595c-0.998,0-1.857-0.71-2.043-1.691l-7.244-38.187c-0.115-0.605,0.044-1.232,0.437-1.709
								s0.976-0.755,1.592-0.759l39.351-0.266c0.005,0,0.01,0,0.014,0c1.086,0,1.99,0.836,2.074,1.92l2.944,38.275
								c0.045,0.575-0.152,1.144-0.544,1.567c-0.391,0.426-0.941,0.668-1.52,0.672l-35.051,0.177
								C981.642,1618.595,981.638,1618.595,981.635,1618.595z M976.898,1580.391l6.456,34.036l31.086-0.157l-2.625-34.113
								L976.898,1580.391z"/>
						</g>
						<g>
							<polygon fill="#FFFFFF" points="875.151,1578.063 874.616,1616.338 838.478,1616.516 832.052,1578.328 							"/>
							<path d="M838.477,1618.595c-1.016,0-1.882-0.732-2.051-1.733L830,1578.674c-0.101-0.601,0.067-1.217,0.459-1.684
								c0.393-0.467,0.97-0.737,1.579-0.741l43.099-0.266c0.005,0,0.009,0,0.013,0c0.555,0,1.085,0.222,1.477,0.615
								c0.393,0.396,0.61,0.936,0.603,1.493l-0.536,38.275c-0.016,1.133-0.936,2.044-2.069,2.051l-36.138,0.177
								C838.484,1618.595,838.48,1618.595,838.477,1618.595z M834.509,1580.393l5.726,34.034l32.33-0.158l0.477-34.112
								L834.509,1580.393z"/>
						</g>
						<g>
							<path fill="#FFFFFF" d="M838.993,1611.631h33.612c2.384,0,4.532,1.418,5.438,3.607c2.981,7.196,9.052,24.017,8.235,39.973
								c-0.223,4.359-3.872,7.772-8.268,7.772h-98.629c-4.536,0-7.982-4.113-7.074-8.525c1.089-5.284,4.838-12.234,15.654-18.482
								c17.509-10.115,39.516-20.23,46.454-23.36C835.854,1611.967,837.412,1611.631,838.993,1611.631z"/>
							<path d="M878.011,1665.064h-98.63c-2.822,0-5.46-1.252-7.237-3.432c-1.743-2.141-2.426-4.907-1.872-7.594
								c1.091-5.305,4.866-13.057,16.65-19.863c17.694-10.223,40.171-20.538,46.639-23.456c1.718-0.775,3.546-1.169,5.433-1.169
								h33.612c3.24,0,6.128,1.92,7.359,4.893c2.805,6.77,9.239,24.307,8.391,40.874
								C888.077,1660.783,883.532,1665.064,878.011,1665.064z M838.993,1613.71c-1.292,0-2.545,0.271-3.723,0.802
								c-6.422,2.897-28.741,13.139-46.269,23.266c-8.269,4.776-13.336,10.69-14.656,17.101c-0.301,1.456,0.073,2.961,1.022,4.126
								c0.984,1.208,2.447,1.9,4.013,1.9h98.63c3.305,0,6.024-2.547,6.191-5.799c0.804-15.723-5.383-32.561-8.08-39.071
								c-0.584-1.411-1.965-2.324-3.517-2.324H838.993z"/>
						</g>
						<g>
							<path fill="#FFFFFF" d="M982.833,1611.631h33.613c2.384,0,4.531,1.418,5.438,3.607c2.98,7.196,9.051,24.017,8.235,39.973
								c-0.223,4.359-3.872,7.772-8.268,7.772h-98.629c-4.536,0-7.982-4.113-7.073-8.525c1.088-5.284,4.838-12.234,15.653-18.482
								c17.509-10.115,39.516-20.23,46.455-23.36C979.695,1611.967,981.253,1611.631,982.833,1611.631z"/>
							<path d="M1021.851,1665.064h-98.629c-2.822,0-5.46-1.252-7.237-3.432c-1.743-2.141-2.426-4.907-1.873-7.594
								c1.093-5.305,4.868-13.057,16.649-19.863c17.706-10.229,40.175-20.539,46.641-23.456c1.719-0.775,3.546-1.169,5.431-1.169
								h33.613c3.24,0,6.129,1.92,7.36,4.893c2.805,6.771,9.238,24.311,8.391,40.874
								C1031.916,1660.783,1027.372,1665.064,1021.851,1665.064z M982.833,1613.71c-1.291,0-2.543,0.271-3.721,0.802
								c-6.42,2.896-28.732,13.133-46.27,23.266c-8.268,4.776-13.336,10.69-14.656,17.101c-0.3,1.456,0.073,2.961,1.022,4.126
								c0.984,1.208,2.447,1.9,4.013,1.9h98.629c3.305,0,6.026-2.548,6.192-5.801c0.803-15.717-5.382-32.557-8.08-39.069
								c-0.585-1.411-1.965-2.324-3.518-2.324H982.833z"/>
						</g>
					</g>
					<g>
						<g>
							<path fill="#FFFFFF" d="M852.381,1118.252l-18.372-6.858c-7.788-2.907-16.319-2.813-24.019,0.341
								c-9.609,3.936-22.648,10.314-31.58,18.769c-2.241,2.122-0.866,6.009,2.156,6.009h70.962L852.381,1118.252z"/>
							<path d="M851.529,1138.59h-70.963c-2.211,0-4.103-1.301-4.938-3.395c-0.864-2.172-0.334-4.607,1.352-6.203
								c9.213-8.719,22.608-15.244,32.222-19.182c8.153-3.34,17.22-3.47,25.535-0.365l18.37,6.858
								c0.848,0.315,1.393,1.142,1.351,2.045l-0.852,18.259C853.554,1137.717,852.639,1138.59,851.529,1138.59z M822.407,1111.368
								c-3.957,0-7.902,0.765-11.629,2.29c-9.287,3.805-22.192,10.076-30.938,18.355c-0.536,0.507-0.53,1.181-0.346,1.643
								c0.115,0.289,0.407,0.775,1.072,0.775h68.977l0.689-14.762l-16.95-6.328C829.756,1112.025,826.076,1111.368,822.407,1111.368
								z"/>
						</g>
						<g>
							<g>
								<path fill="#FFFFFF" d="M1165.104,1036.512c0,0,1.98-71.219-47.147-79.813c0.024-0.068,0.056-0.142,0.079-0.211
									L1066,953.548c0,0-33.443-4.626-64.246,21.886c-27.79,23.918-33.894,85.253-51.664,100.864
									c-15.406,13.532-81.727,31.128-99.1,35.569c-2.467,0.632-4.173,2.841-4.164,5.371l0.059,16.819h105.158
									c14.674,0,28.706-5.928,38.892-16.415c6.14-6.319,13.701-14.087,22.045-22.83c-0.102,5.408,0.494,14.359,4.304,24.333
									c7.684,20.114,4.015,42.895-10.706,58.679c-6.179,6.623-13.157,12.566-20.543,16.134c0,0,4.704,22.231,38.958,23.753
									c13.928,0.618,50.713,1.947,78.07,0.393c37.359-2.122,64.935-9,64.935-9L1165.104,1036.512z"/>
								<path d="M1072.805,1220.915c-19.63,0-38.493-0.708-47.906-1.127c-35.455-1.575-40.694-24.428-40.9-25.399
									c-0.198-0.936,0.269-1.887,1.13-2.303c6.402-3.093,13.106-8.368,19.927-15.682c13.948-14.955,17.888-36.61,10.284-56.516
									c-2.88-7.538-3.994-14.517-4.33-20.01c-6.34,6.612-12.147,12.589-17.117,17.702l-1.468,1.511
									c-10.523,10.832-25.242,17.045-40.384,17.045H846.884c-1.145,0-2.075-0.926-2.079-2.072l-0.059-16.82
									c-0.012-3.485,2.343-6.524,5.728-7.391c39.732-10.159,86.405-24.72,98.243-35.118c7.468-6.56,13.103-22.605,19.068-39.593
									c7.836-22.314,16.718-47.606,32.612-61.285c31.153-26.814,64.484-22.564,65.888-22.37l51.867,2.924
									c0.417,0.024,0.812,0.171,1.137,0.417c48.76,9.448,47.939,79.382,47.895,81.688l2.893,172.551
									c0.016,0.968-0.638,1.819-1.576,2.053c-0.279,0.07-28.195,6.951-65.32,9.059
									C1093.688,1220.719,1083.139,1220.915,1072.805,1220.915z M988.524,1195.026c1.732,4.809,9.22,19.392,36.56,20.606
									c11.163,0.496,49.762,1.988,77.86,0.395c31.68-1.799,56.547-7.1,62.945-8.564l-2.863-170.915c0-0.031,0-0.063,0-0.093
									c0.018-0.694,1.348-69.525-45.428-77.708c-0.236-0.042-0.461-0.123-0.664-0.238l-51.051-2.885
									c-0.492-0.062-33.094-4.157-62.772,21.386c-15.051,12.954-23.737,37.688-31.401,59.51
									c-6.418,18.277-11.961,34.062-20.247,41.339c-15.594,13.698-80.452,31.035-99.958,36.023
									c-1.535,0.393-2.605,1.769-2.598,3.347l0.052,14.748h103.084c14.025,0,27.656-5.753,37.401-15.784l1.467-1.51
									c5.857-6.027,12.877-13.254,20.563-21.308c0.593-0.62,1.507-0.812,2.296-0.486c0.793,0.325,1.304,1.105,1.289,1.962
									c-0.103,5.497,0.536,14.045,4.167,23.553c8.175,21.4,3.912,44.713-11.127,60.838
									C1001.475,1186.343,994.898,1191.645,988.524,1195.026z"/>
							</g>
							<path d="M1010.712,1102.936c-0.506,0-1.015-0.184-1.416-0.555c-0.841-0.783-0.89-2.1-0.107-2.94
								c13.613-14.653,24.164-31.545,31.357-50.204c0.414-1.071,1.618-1.606,2.689-1.192c1.071,0.413,1.605,1.617,1.192,2.688
								c-7.385,19.156-18.216,36.495-32.192,51.539C1011.826,1102.713,1011.27,1102.936,1010.712,1102.936z"/>
						</g>
					</g>
					<g>
						<g>
							<path fill="#FFFFFF" d="M1034.982,863.404c0,0-1.949,17.399-10.671,27.066c-0.667,0.739-0.819,1.808-0.307,2.662l3.596,6.007
								c0.312,0.521,0.568,1.074,0.763,1.648l5.968,17.55c0.544,1.604,1.99,2.748,3.688,2.888
								c3.734,0.309,13.197-1.138,13.969,1.351c0.863,2.783,0.197,25.319-0.137,35.124c-0.09,2.606,1.742,4.88,4.307,5.354
								l20.197,3.726c9.105,1.68,18.462,0.562,26.858-3.137c2.726-1.201,3.942-4.396,2.681-7.093
								c-4.617-9.868-14.73-33.425-13.393-47.84l8.979-25.116c-0.224-12.037-10.274-21.591-22.396-21.289L1034.982,863.404z"/>
							<path d="M1084.73,969.628c-2.916,0-5.843-0.267-8.754-0.804l-20.196-3.726c-3.606-0.666-6.132-3.807-6.008-7.469
								c0.749-21.896,0.637-31.896,0.294-34.12c-1.252-0.493-5.255-0.336-7.471-0.248c-1.802,0.072-3.505,0.138-4.749,0.036
								c-2.517-0.208-4.671-1.892-5.486-4.291l-5.968-17.548c-0.147-0.436-0.342-0.855-0.578-1.249l-3.597-6.009
								c-0.973-1.624-0.752-3.683,0.546-5.123c8.181-9.066,10.131-25.738,10.151-25.905c0.116-1.033,0.976-1.822,2.015-1.848
								l44.103-1.1c6.447-0.158,12.561,2.201,17.205,6.648c4.604,4.408,7.203,10.332,7.32,16.682
								c0.006,0.251-0.036,0.502-0.121,0.739l-8.889,24.864c-1.148,13.993,8.854,37.159,13.229,46.511
								c0.846,1.809,0.926,3.835,0.224,5.705c-0.705,1.879-2.108,3.36-3.95,4.172
								C1097.906,968.253,1091.348,969.628,1084.73,969.628z M1046.421,918.998c3.831,0,6.79,0.497,7.554,2.962
								c0.704,2.273,0.689,14.321-0.045,35.812c-0.055,1.587,1.041,2.948,2.607,3.237l20.197,3.726
								c8.686,1.603,17.555,0.566,25.641-2.995c0.809-0.356,1.423-1.005,1.732-1.828c0.306-0.813,0.271-1.694-0.098-2.48
								c-4.545-9.717-14.969-33.935-13.578-48.913c0.016-0.174,0.053-0.344,0.111-0.508l8.847-24.749
								c-0.188-5.094-2.321-9.834-6.026-13.383c-3.842-3.676-8.879-5.637-14.227-5.495l-42.339,1.056
								c-0.766,4.832-3.469,18.14-10.943,26.424c-0.064,0.071-0.093,0.157-0.067,0.201l3.595,6.007
								c0.387,0.644,0.708,1.334,0.95,2.049l5.967,17.546c0.282,0.831,1.024,1.414,1.891,1.485c0.99,0.083,2.572,0.02,4.241-0.046
								C1043.824,919.051,1045.169,918.998,1046.421,918.998z"/>
						</g>
						<path d="M1030.901,857.246c-1.793,2.739-0.713,6.433,2.275,7.802l1.806,0.827l34.645,17.069
							c0.879,0.432,1.937,0.375,2.729-0.198c1.434-1.038,4.015-2.319,6.596-0.671c3.602,2.298,4.33,14.567-4.922,17.822
							c-1.219,0.43-1.893,1.721-1.4,2.909c0.533,1.286,1.326,2.998,2.41,4.862c8.166,14.039,28.352,14.874,38.08,1.854
							c7.169-9.595,13.736-25.369,5.654-46.941C1106.095,828.75,1054.318,821.47,1030.901,857.246z"/>
						<path d="M1115.27,849.4c0,0,15.117-17.939,37.241-10.983c22.122,6.956,23.244,44.392,25.81,67.73
							c9.033,82.192,29.102,112.112,35.582,119.536c7.189,8.238-49.35,2.648-68.397-3.844
							c-54.907-18.716-25.995-71.575-23.414-81.094c2.581-9.52,23.045-62.788-2.396-69.012l-12.905-10.983L1115.27,849.4z"/>
						<g>
							<path fill="#FFFFFF" d="M1122.225,875.059l-0.271,0.1c-2.41,0.879-5.081-0.348-5.967-2.74l-6.744-18.223
								c-0.885-2.393,0.351-5.045,2.76-5.924l0.271-0.099c2.41-0.879,5.082,0.348,5.967,2.74l6.744,18.222
								C1125.869,871.526,1124.635,874.18,1122.225,875.059z"/>
							<path d="M1120.357,877.521c-2.739,0-5.32-1.678-6.321-4.381l-6.744-18.222c-0.62-1.676-0.549-3.491,0.202-5.114
								c0.754-1.63,2.102-2.869,3.795-3.487l0.273-0.1c3.48-1.27,7.35,0.513,8.629,3.973l6.744,18.222
								c0.619,1.676,0.548,3.491-0.202,5.114c-0.755,1.63-2.103,2.869-3.796,3.487l-0.271,0.099
								C1121.906,877.389,1121.126,877.521,1120.357,877.521z M1113.877,849.968c-0.297,0-0.597,0.051-0.889,0.158l-0.275,0.1
								c-0.644,0.236-1.157,0.707-1.443,1.325c-0.283,0.611-0.311,1.293-0.076,1.923l6.744,18.223
								c0.486,1.318,1.971,1.995,3.303,1.508l0.271-0.098c0-0.001,0-0.001,0-0.001c0.646-0.235,1.16-0.707,1.445-1.326
								c0.283-0.61,0.311-1.293,0.076-1.923l-6.742-18.223C1115.91,850.605,1114.925,849.968,1113.877,849.968z"/>
						</g>
					</g>
				</g>
				<g>
					<g>
						<path fill="#FFFFFF" d="M1136.445,1633.354h-75.59v-273.059h-38.881v273.059h-75.59c-23.099,0-41.825,18.726-41.825,41.823
							v7.58h273.709v-7.58C1178.27,1652.08,1159.545,1633.354,1136.445,1633.354z"/>
						<path d="M1178.27,1684.838H904.56c-1.148,0-2.08-0.931-2.08-2.08v-7.579c0-24.21,19.696-43.903,43.904-43.903h73.51v-270.979
							c0-1.148,0.931-2.079,2.08-2.079h38.881c1.148,0,2.08,0.931,2.08,2.079v270.979h73.51c24.209,0,43.904,19.693,43.904,43.903
							v7.579C1180.35,1683.907,1179.418,1684.838,1178.27,1684.838z M906.64,1680.678h269.55v-5.499
							c0-21.915-17.828-39.745-39.744-39.745h-75.59c-1.148,0-2.078-0.931-2.078-2.079v-270.979h-34.723v270.979
							c0,1.148-0.932,2.079-2.08,2.079h-75.59c-21.916,0-39.745,17.83-39.745,39.745V1680.678z"/>
					</g>
					<g>
						<g>
							<g>
								<path fill="#FFFFFF" d="M1157.506,1072.123h-19.561c-52.154,0-97.274,36.657-108.419,88.086l-22.763,105.039
									c-5.326,24.58-26.89,42.1-51.817,42.1H913.83c-21.493,0-38.917,17.588-38.917,39.284s17.424,39.284,38.917,39.284h66.783
									l-0.039,0.181h117.496c41.121,0,76.694-28.901,85.481-69.448l36.102-166.589
									C1228.332,1110.012,1198.117,1072.123,1157.506,1072.123z"/>
								<path d="M1098.07,1388.176H980.573c-0.296,0-0.584-0.063-0.849-0.181H913.83c-22.606,0-40.996-18.556-40.996-41.363
									c0-22.809,18.39-41.363,40.996-41.363h41.115c23.767,0,44.704-17.016,49.785-40.461l22.762-105.038
									c11.268-51.991,57.721-89.727,110.453-89.727h19.561c19.852,0,38.422,8.91,50.951,24.445
									c12.707,15.754,17.527,36.17,13.229,56.012l-36.102,166.589C1176.656,1358.279,1139.852,1388.176,1098.07,1388.176z
									 M981.461,1384.017h116.609c39.839,0,74.934-28.518,83.447-67.81l36.102-166.588c4.031-18.606-0.486-37.749-12.4-52.52
									c-11.734-14.551-29.126-22.896-47.713-22.896h-19.561c-50.789,0-95.532,36.356-106.387,86.447l-22.762,105.038
									c-5.493,25.344-28.14,43.739-53.851,43.739H913.83c-20.312,0-36.837,16.689-36.837,37.204s16.526,37.204,36.837,37.204
									h66.782C980.909,1383.836,981.198,1383.898,981.461,1384.017z"/>
							</g>
						</g>
					</g>
				</g>
			</g>
		</g>
		<g>
			<path fill="#FFFFFF" d="M525.665,340.27c9.116,0,16.506,7.39,16.506,16.506v113.582c0,9.115-7.39,16.505-16.506,16.505H345.295
				l-19.411,24.348l-30.501-24.348h-82.83c-9.115,0-16.505-7.39-16.505-16.505V356.775c0-9.116,7.39-16.506,16.505-16.506H525.665z"
				/>
			<path d="M325.884,516.063c-0.507,0-1-0.186-1.381-0.525l-29.91-26.595h-82.04c-10.248,0-18.585-8.337-18.585-18.585V356.775
				c0-10.248,8.337-18.585,18.585-18.585h61.768c1.149,0,2.08,0.932,2.08,2.08c0,1.148-0.931,2.08-2.08,2.08h-61.768
				c-7.954,0-14.425,6.472-14.425,14.426v113.582c0,7.954,6.472,14.426,14.425,14.426h82.831c0.509,0,1.001,0.187,1.382,0.525
				l28.881,25.681l20.812-25.443c0.395-0.482,0.986-0.763,1.609-0.763h177.597c7.954,0,14.425-6.472,14.425-14.426V356.775
				c0-7.954-6.472-14.426-14.425-14.426H315.947c-1.148,0-2.081-0.932-2.081-2.08c0-1.147,0.932-2.08,2.081-2.08h209.718
				c10.248,0,18.585,8.337,18.585,18.585v113.582c0,10.248-8.337,18.585-18.585,18.585H349.054l-21.56,26.358
				c-0.358,0.438-0.88,0.711-1.445,0.756C325.994,516.062,325.939,516.063,325.884,516.063z"/>
			<path d="M496.473,396.415H247.627c-1.149,0-2.08-0.932-2.08-2.079c0-1.148,0.931-2.08,2.08-2.08h248.846
				c1.149,0,2.08,0.932,2.08,2.08C498.552,395.483,497.622,396.415,496.473,396.415z"/>
			<path d="M496.473,429.67h-52.032c-1.148,0-2.079-0.932-2.079-2.08s0.931-2.08,2.079-2.08h52.032c1.149,0,2.08,0.931,2.08,2.08
				S497.622,429.67,496.473,429.67z"/>
			<path d="M411.186,429.67H247.627c-1.149,0-2.08-0.932-2.08-2.08s0.931-2.08,2.08-2.08h163.559c1.148,0,2.08,0.931,2.08,2.08
				S412.334,429.67,411.186,429.67z"/>
		</g>
	</g>
</g>
</svg>
