<?xml version="1.0" encoding="utf-8"?>
<!-- Generator: Adobe Illustrator 16.0.0, SVG Export Plug-In . SVG Version: 6.00 Build 0)  -->
<!DOCTYPE svg PUBLIC "-//W3C//DTD SVG 1.1//EN" "https://www.w3.org/Graphics/SVG/1.1/DTD/svg11.dtd">
<svg version="1.1" id="Layer_1" xmlns="https://www.w3.org/2000/svg" xmlns:xlink="https://www.w3.org/1999/xlink" x="0px" y="0px"
	 width="2100px" height="2000px" viewBox="0 0 2100 2000" enable-background="new 0 0 2100 2000" xml:space="preserve">
<g id="Background">
</g>
<g id="Illustration">
	<g id="Online_workshop_1_">
		<g>
			<path d="M531.076,1495.14l19.259-10.659l-6.728-23.079c4.017-3.268,7.717-6.816,11.057-10.627l22.794,7.55l11.349-18.859
				l-17.371-16.63c1.816-4.781,3.231-9.705,4.233-14.72l23.549-4.865l0.399-22.006l-23.324-5.709
				c-0.808-5.002-2.056-9.975-3.725-14.876l17.958-15.983l-10.658-19.259l-23.081,6.727c-3.266-4.018-6.816-7.715-10.627-11.057
				l7.55-22.793l-18.859-11.35l-16.629,17.369c-4.782-1.816-9.705-3.231-14.72-4.232l-4.864-23.548l-22.008-0.398l-5.708,23.324
				c-5.002,0.806-9.974,2.056-14.877,3.724l-15.984-17.957l-19.258,10.657l6.728,23.081c-4.018,3.266-7.717,6.816-11.057,10.627
				l-22.794-7.55L382.33,1340.9l17.371,16.628c-1.816,4.781-3.232,9.706-4.232,14.722l-23.548,4.863l-0.4,22.008l23.324,5.708
				c0.807,5.002,2.056,9.974,3.725,14.875l-17.958,15.985l10.659,19.259l23.08-6.729c3.268,4.02,6.817,7.717,10.627,11.059
				l-7.55,22.793l18.86,11.35l16.628-17.37c4.781,1.814,9.706,3.23,14.721,4.232l4.864,23.549l22.008,0.399l5.708-23.325
				c5.002-0.807,9.974-2.056,14.876-3.726L531.076,1495.14z M435.992,1417.62c-15.154-27.382-5.24-61.863,22.14-77.015
				c27.381-15.153,61.861-5.241,77.015,22.14c15.153,27.381,5.24,61.861-22.14,77.015
				C485.625,1454.913,451.146,1445.002,435.992,1417.62z"/>
		</g>
		<g>
			<path d="M832.071,1747.979l31.466-17.413l-10.993-37.712c6.565-5.338,12.609-11.138,18.068-17.364l37.241,12.337l18.544-30.813
				l-28.381-27.171c2.966-7.812,5.278-15.856,6.915-24.053l38.478-7.948l0.653-35.957l-38.108-9.325
				c-1.319-8.175-3.359-16.299-6.087-24.308l29.342-26.117l-17.415-31.467l-37.713,10.992c-5.335-6.563-11.138-12.608-17.362-18.064
				l12.336-37.244l-30.814-18.544l-27.17,28.382c-7.812-2.967-15.856-5.279-24.052-6.916l-7.948-38.477l-35.959-0.65l-9.325,38.107
				c-8.173,1.318-16.298,3.358-24.306,6.087l-26.116-29.342l-31.467,17.414l10.993,37.712c-6.564,5.337-12.609,11.139-18.066,17.363
				l-37.242-12.336l-18.543,30.814l28.38,27.17c-2.966,7.812-5.279,15.855-6.916,24.051l-38.476,7.949l-0.652,35.958l38.108,9.325
				c1.317,8.173,3.359,16.299,6.084,24.305l-29.339,26.119l17.415,31.467l37.711-10.993c5.338,6.565,11.138,12.608,17.364,18.066
				l-12.336,37.242l30.813,18.545l27.169-28.384c7.812,2.969,15.857,5.28,24.052,6.916l7.949,38.478l35.959,0.653l9.326-38.108
				c8.172-1.318,16.299-3.36,24.305-6.088L832.071,1747.979z M676.712,1621.319c-24.758-44.737-8.562-101.074,36.175-125.834
				c44.736-24.758,101.074-8.563,125.833,36.174c24.758,44.738,8.563,101.075-36.174,125.834
				C757.809,1682.253,701.471,1666.058,676.712,1621.319z"/>
		</g>
		<g>
			<g>
				<path fill="#FFFFFF" d="M294.523,449.627h1133.61c15.199,0,28.464,12.32,29.626,27.518l56.297,735.549
					c1.162,15.196-10.217,27.516-25.415,27.516H355.032c-15.198,0-28.461-12.319-29.624-27.517l-56.296-735.549
					C267.948,461.947,279.325,449.627,294.523,449.627z"/>
				<path d="M1488.643,1242.244H355.031c-16.212,0-30.41-13.188-31.649-29.396l-56.297-735.549
					c-0.607-7.936,1.927-15.402,7.133-21.022c5.187-5.599,12.397-8.683,20.308-8.683h1133.609c16.212,0,30.414,13.187,31.655,29.396
					l56.295,735.549c0.606,7.935-1.927,15.401-7.133,21.022C1503.765,1239.159,1496.549,1242.244,1488.643,1242.244z
					 M294.524,451.661c-6.764,0-12.917,2.622-17.325,7.38c-4.426,4.779-6.58,11.154-6.06,17.949l56.296,735.549
					c1.08,14.138,13.459,25.639,27.595,25.639h1133.61c6.764,0,12.916-2.622,17.327-7.382c4.427-4.781,6.581-11.154,6.06-17.948
					l-56.294-735.549c-1.083-14.138-13.466-25.638-27.601-25.638H294.524z"/>
			</g>
			<g>
				<path d="M1179.032,1026.829c-1.052,0-1.944-0.812-2.025-1.878l-3.871-50.559c-0.085-1.119,0.752-2.096,1.873-2.181
					c1.09-0.104,2.098,0.752,2.183,1.872l3.87,50.559c0.086,1.119-0.752,2.096-1.872,2.182
					C1179.137,1026.827,1179.083,1026.829,1179.032,1026.829z"/>
				<path d="M1148.441,1198.328H432.816c-22.094,0-40.721-17.258-42.409-39.289l-14.135-184.664
					c-0.085-1.12,0.753-2.096,1.873-2.183c1.108-0.085,2.097,0.755,2.183,1.872l14.133,184.664
					c1.525,19.924,18.373,35.531,38.354,35.531h715.625c10.835,0,20.856-4.378,28.22-12.324
					c7.362-7.949,10.963-18.275,10.135-29.077l-4.57-59.718c-0.087-1.118,0.752-2.097,1.872-2.181
					c1.088-0.088,2.098,0.753,2.183,1.872l4.571,59.716c0.9,11.771-3.184,23.489-11.206,32.149
					C1171.622,1193.358,1160.247,1198.328,1148.441,1198.328z"/>
				<path d="M357.33,702.285c-1.053,0-1.944-0.812-2.026-1.878l-8.109-105.944c-0.901-11.771,3.185-23.49,11.209-32.151
					c8.022-8.661,19.396-13.627,31.201-13.627h25.948c1.125,0,2.034,0.909,2.034,2.034c0,1.124-0.909,2.033-2.034,2.033h-25.948
					c-10.833,0-20.854,4.376-28.217,12.325c-7.363,7.948-10.962,18.274-10.137,29.078l8.109,105.944
					c0.086,1.12-0.752,2.097-1.872,2.182C357.435,702.283,357.382,702.285,357.33,702.285z"/>
				<path d="M712.528,552.75H483.474c-1.124,0-2.033-0.909-2.033-2.033c0-1.125,0.908-2.034,2.033-2.034h229.054
					c1.124,0,2.033,0.91,2.033,2.034C714.562,551.84,713.652,552.75,712.528,552.75z"/>
				<path d="M1423.129,823.989h-198.638c-1.063,0-1.946-0.819-2.027-1.878l-5.238-68.443c-0.043-0.564,0.151-1.122,0.536-1.537
					s0.926-0.651,1.49-0.651h198.638c1.063,0,1.946,0.819,2.028,1.878l5.237,68.443c0.044,0.563-0.151,1.122-0.536,1.538
					C1424.235,823.752,1423.695,823.989,1423.129,823.989z M1226.375,819.922h194.56l-4.929-64.376h-194.559L1226.375,819.922z"/>
				<path d="M1432.679,948.768h-198.637c-1.062,0-1.944-0.818-2.027-1.878l-5.238-68.443c-0.043-0.564,0.15-1.122,0.536-1.537
					c0.386-0.416,0.926-0.651,1.49-0.651h198.638c1.063,0,1.946,0.817,2.028,1.878l5.237,68.443c0.045,0.563-0.15,1.121-0.535,1.536
					C1433.786,948.533,1433.246,948.768,1432.679,948.768z M1235.928,944.702h194.558l-4.929-64.376h-194.559L1235.928,944.702z"/>
				<path d="M1442.231,1073.547h-198.638c-1.063,0-1.945-0.817-2.027-1.877l-5.241-68.444c-0.043-0.563,0.151-1.121,0.537-1.535
					c0.384-0.416,0.925-0.652,1.489-0.652h198.641c1.063,0,1.946,0.819,2.027,1.878l5.237,68.443
					c0.045,0.564-0.15,1.122-0.535,1.536C1443.337,1073.312,1442.797,1073.547,1442.231,1073.547z M1245.478,1069.48h194.558
					l-4.928-64.375h-194.562L1245.478,1069.48z"/>
				<path d="M1451.779,1198.328h-198.637c-1.063,0-1.947-0.819-2.027-1.879l-5.238-68.444c-0.044-0.562,0.15-1.12,0.536-1.536
					c0.386-0.414,0.925-0.65,1.49-0.65h198.638c1.062,0,1.945,0.818,2.027,1.879l5.237,68.441c0.046,0.566-0.15,1.123-0.535,1.538
					C1452.886,1198.091,1452.345,1198.328,1451.779,1198.328z M1255.026,1194.261h194.56l-4.928-64.376h-194.56L1255.026,1194.261z"
					/>
				<path d="M1413.816,702.271h-198.638c-1.063,0-1.945-0.819-2.027-1.878l-11.445-149.521c-0.044-0.563,0.15-1.122,0.536-1.537
					c0.385-0.416,0.926-0.651,1.49-0.651h198.638c1.063,0,1.946,0.819,2.026,1.878l11.446,149.521
					c0.044,0.563-0.151,1.122-0.536,1.537S1414.383,702.271,1413.816,702.271z M1217.063,698.205h194.558l-11.135-145.455h-194.559
					L1217.063,698.205z"/>
			</g>
		</g>
		<g>
			<g>
				<g>
					<path fill="#FFFFFF" d="M1118.884,658.187c0,0,91.962,35.483,202.595-54.368c50.766-41.229,81.655-102.094,85.979-167.352
						c0.844-12.75,6.541-24.691,15.919-33.37l68.638-43.74c1.342-0.856,3.08-0.75,4.309,0.26c1.336,1.1,1.158,3.292,1.086,4.177
						c-0.646,7.929-22.095,27.349-29.768,44.636c-2.409,5.429-4.987,14.091-3.814,26.685c9.642-2.875,19.282-5.748,28.923-8.623
						c2.064-0.616,4.298-0.019,5.777,1.547c1.742,1.843,1.373,4.697,1.223,5.854c-1.249,9.606-23.854,25.503-36.568,38.816
						c-5.264,5.51-12.601,14.525-18.89,28.335c2.734,33.057,4.064,107.455-39.263,182.565
						c-81.042,140.491-245.272,156.827-262.49,158.253L1118.884,658.187z"/>
					<path d="M1142.535,843.896c-1.013,0-1.882-0.752-2.014-1.773l-23.656-183.676c-0.092-0.711,0.199-1.416,0.762-1.859
						c0.562-0.44,1.315-0.554,1.986-0.299c0.907,0.351,92.232,33.947,200.581-54.048c49.864-40.495,80.932-100.965,85.233-165.908
						c0.88-13.322,6.764-25.654,16.567-34.729c0.089-0.081,0.187-0.156,0.29-0.222l68.638-43.739
						c2.091-1.329,4.777-1.169,6.691,0.405c2.156,1.775,1.914,4.777,1.822,5.909c-0.367,4.512-5.641,11.106-12.318,19.456
						c-6.476,8.097-13.814,17.273-17.619,25.842c-3.024,6.815-4.312,14.607-3.835,23.19l26.502-7.901
						c2.818-0.84,5.817-0.037,7.838,2.097c2.406,2.548,1.938,6.155,1.76,7.514c-0.938,7.206-11.463,16.544-22.609,26.433
						c-5.106,4.53-10.385,9.214-14.503,13.526c-7.323,7.664-13.474,16.844-18.295,27.294c3.731,45.976-0.162,114.906-39.569,183.22
						c-80.896,140.237-245.572,157.729-264.081,159.261C1142.649,843.894,1142.592,843.896,1142.535,843.896z M1121.314,661.15
						l22.99,178.516c25.667-2.438,181.4-22.612,258.962-157.07c39.034-67.667,42.752-135.985,38.996-181.383
						c-0.026-0.345,0.035-0.693,0.177-1.009c5.041-11.065,11.525-20.788,19.273-28.896c4.233-4.434,9.576-9.175,14.743-13.76
						c9.627-8.539,20.537-18.219,21.277-23.916c0.12-0.914,0.397-3.051-0.683-4.196c-0.959-1.012-2.389-1.389-3.72-0.994
						l-28.922,8.624c-0.583,0.177-1.216,0.078-1.72-0.262c-0.505-0.342-0.83-0.892-0.889-1.497
						c-0.955-10.27,0.384-19.588,3.982-27.697c4.017-9.051,11.531-18.447,18.16-26.735c5.747-7.186,11.174-13.974,11.44-17.242
						c0.134-1.67-0.118-2.25-0.353-2.442c-0.551-0.452-1.323-0.5-1.923-0.117l-68.483,43.642
						c-8.957,8.352-14.331,19.668-15.138,31.888c-4.378,66.067-35.989,127.591-86.726,168.796
						c-57.567,46.752-110.048,59.154-143.938,61.329C1149.386,668.609,1128.859,663.481,1121.314,661.15z"/>
				</g>
				<path d="M534.435,1196.63H975.9c1.873-158.146,64.862-351.343,64.862-351.343l123.13,9.149l14.574-217.845
					c0,0-125.513-9.285-227.103-18.04c-68.593-5.911-195.72,18.942-271.063,35.71c-38.617,8.596-72.854,30.754-96.57,62.417
					l-70.583,94.243l76.617,43.514C524.104,965.263,524.686,1106.19,534.435,1196.63z"/>
				<g>
					<g>
						<path d="M839.157,885.624l18.883,312.729c0.287,4.766-2.311,9.209-6.536,11.177l-365.71,170.873
							c-3.646,1.699-7.565,1.21-10.598-0.747c-2.918-1.881-11.526-7.31-11.526-7.31l-12.609-314.5
							c-0.287-4.765,2.312-9.208,6.538-11.178l367.196-176.523c0,0,6.481,4.498,9.57,6.71
							C837.04,878.772,838.93,881.876,839.157,885.624z"/>
						<g>
							<path fill="#FFFFFF" d="M827.537,878.691l18.883,312.73c0.287,4.765-2.311,9.21-6.536,11.178l-364.71,169.874
								c-7.156,3.331-15.363-1.754-15.851-9.826l-18.884-312.729c-0.287-4.767,2.313-9.211,6.536-11.179l364.71-169.874
								C818.841,865.533,827.049,870.621,827.537,878.691z"/>
							<path d="M470.535,1375.55c-2.294,0-4.579-0.625-6.661-1.865c-3.847-2.294-6.308-6.373-6.582-10.914l-18.884-312.731
								c-0.337-5.559,2.762-10.84,7.708-13.143l364.709-169.874c3.959-1.847,8.39-1.612,12.156,0.628
								c3.849,2.294,6.309,6.375,6.583,10.917l18.884,312.73c0.337,5.559-2.761,10.839-7.708,13.143l-364.708,169.873
								C474.26,1375.141,472.394,1375.55,470.535,1375.55z M816.317,869.863c-1.276,0-2.557,0.28-3.774,0.846l-364.709,169.875
								c-3.444,1.603-5.601,5.306-5.365,9.21l18.885,312.731c0.192,3.196,1.914,6.063,4.604,7.665
								c2.594,1.548,5.636,1.704,8.359,0.439l364.709-169.873c3.445-1.604,5.602-5.308,5.366-9.212l-18.885-312.73
								c-0.193-3.197-1.914-6.064-4.606-7.666C819.468,870.292,817.896,869.863,816.317,869.863z"/>
						</g>
					</g>
					<g>
						<path fill="#FFFFFF" d="M802.671,854.018l18.884,312.729c0.287,4.765-2.312,9.21-6.536,11.177l-364.71,169.873
							c-7.156,3.334-15.364-1.753-15.851-9.823l-18.884-312.73c-0.287-4.764,2.312-9.21,6.536-11.178l364.71-169.873
							C793.977,840.858,802.184,845.947,802.671,854.018z"/>
						<path d="M445.671,1350.877c-2.295,0-4.58-0.626-6.662-1.865c-3.848-2.293-6.307-6.373-6.582-10.915l-18.885-312.73
							c-0.335-5.558,2.761-10.84,7.707-13.144L785.96,842.35c3.958-1.846,8.387-1.616,12.153,0.627
							c3.85,2.291,6.313,6.374,6.587,10.918l18.884,312.73c0.336,5.558-2.763,10.839-7.708,13.144l-364.711,169.872
							C449.395,1350.467,447.529,1350.877,445.671,1350.877z M791.452,845.187c-1.276,0-2.557,0.282-3.774,0.847l-364.71,169.873
							c-3.444,1.605-5.6,5.308-5.364,9.213l18.884,312.73c0.193,3.198,1.915,6.063,4.606,7.667c2.589,1.544,5.637,1.701,8.355,0.438
							l364.711-169.873c3.445-1.604,5.601-5.307,5.366-9.212l-18.883-312.73c-0.196-3.199-1.917-6.065-4.609-7.671
							C794.602,845.618,793.03,845.187,791.452,845.187z"/>
					</g>
					<g>
						<g>
							<path fill="#FFFFFF" d="M781.891,881.036l16.638,275.546c0.252,4.198-2.038,8.114-5.758,9.848l-321.346,149.675
								c-6.305,2.937-13.536-1.545-13.965-8.656l-16.639-275.546c-0.252-4.198,2.038-8.114,5.759-9.849l321.344-149.674
								C774.229,869.442,781.462,873.925,781.891,881.036z"/>
							<path d="M467.339,1319.061c-2.065,0-4.119-0.565-5.991-1.678c-3.46-2.063-5.672-5.731-5.918-9.813l-16.64-275.544
								c-0.299-4.999,2.486-9.746,6.932-11.814l321.344-149.676c3.559-1.658,7.545-1.456,10.935,0.566
								c3.459,2.061,5.672,5.729,5.92,9.812l16.636,275.544c0.301,4.998-2.483,9.744-6.929,11.815l-321.345,149.675
								C470.69,1318.69,469.01,1319.061,467.339,1319.061z M772.003,873.499c-1.087,0-2.183,0.239-3.221,0.722l-321.343,149.676
								c-2.946,1.372-4.79,4.541-4.589,7.885l16.64,275.544c0.165,2.736,1.638,5.189,3.939,6.562c2.213,1.32,4.812,1.455,7.14,0.376
								l321.346-149.676c2.944-1.372,4.787-4.541,4.586-7.885l-16.638-275.544c-0.167-2.737-1.64-5.193-3.943-6.563
								C774.696,873.866,773.354,873.499,772.003,873.499z"/>
						</g>
					</g>
					<g>
						<path d="M712.529,1205.746c-0.766,0-1.5-0.435-1.844-1.176c-0.476-1.016-0.034-2.226,0.984-2.699l79.711-37.128
							c2.944-1.373,4.791-4.539,4.588-7.883l-1.846-30.587c-0.068-1.12,0.787-2.085,1.907-2.151
							c1.123-0.063,2.084,0.787,2.151,1.906l1.847,30.588c0.3,4.996-2.486,9.744-6.932,11.813l-79.71,37.127
							C713.107,1205.685,712.815,1205.746,712.529,1205.746z"/>
						<path d="M457.108,1019.539c-0.765,0-1.497-0.434-1.843-1.171c-0.477-1.016-0.04-2.227,0.978-2.703l52.733-24.724
							c1.024-0.479,2.228-0.036,2.705,0.977c0.477,1.017,0.04,2.228-0.977,2.705l-52.733,24.723
							C457.69,1019.477,457.397,1019.539,457.108,1019.539z"/>
					</g>
				</g>
				<g>
					<path fill="#FFFFFF" d="M536.532,822.293l110.809,65.162c0,0-92.479,151.019,48.083,310.934l90.834-11.151
						c0,0-19.525,14.57-39.638,18.216c-20.112,3.646-24.415,25.078-24.415,25.078l41.282,22.652c0,0-50.774,47.239-82.566,28.812
						C649.128,1263.567,384.54,1065.381,536.532,822.293z"/>
					<path d="M697.782,1288.325c-6.253,0-12.314-1.342-17.881-4.569c-28.633-16.598-151.377-112.121-184.029-243.646
						c-18.469-74.391-5.37-148.038,38.936-218.896c0.584-0.931,1.801-1.23,2.754-0.674l110.809,65.162
						c0.471,0.278,0.81,0.731,0.941,1.26c0.132,0.529,0.047,1.088-0.239,1.554c-0.229,0.375-22.994,38.158-28.397,94.822
						c-4.966,52.067,4.151,131.202,75.565,212.904l89.765-11.021c0.91-0.14,1.791,0.402,2.135,1.261
						c0.343,0.856,0.069,1.835-0.671,2.388c-0.813,0.605-20.141,14.897-40.49,18.587c-15.618,2.829-21.064,17.406-22.416,22.053
						l39.899,21.894c0.571,0.314,0.959,0.884,1.038,1.533c0.082,0.646-0.155,1.294-0.631,1.739
						C763.113,1256.309,728.282,1288.325,697.782,1288.325z M537.211,825.051c-42.859,69.373-55.439,141.386-37.391,214.08
						c32.31,130.148,153.784,224.681,182.12,241.106c26.559,15.386,68.204-18.179,78.037-26.659l-38.751-21.266
						c-0.779-0.428-1.191-1.313-1.016-2.184c0.046-0.226,4.823-22.83,26.046-26.677c12.209-2.212,24.323-8.642,31.683-13.145
						l-82.267,10.101c-0.673,0.085-1.331-0.17-1.775-0.675c-73.09-83.153-82.35-163.888-77.249-216.974
						c4.859-50.546,23.345-86.351,27.928-94.572L537.211,825.051z"/>
				</g>
			</g>
			<g>
				<path d="M844.575,552.943c-11.022,6.866-28.348,17.66-47.645,11.897c-20.543-6.133-37.596-29.325-33.784-44.847
					c3.339-13.604,20.729-13.29,23.389-27.459c2.501-13.332-12.002-18.389-12.994-34.779c-1.323-21.834,22.29-47.888,44.179-48.509
					c13.43-0.381,14.785,9.136,30.319,10.067c21.157,1.269,25.361-15.977,49.378-18.305c17.298-1.677,31.417,5.69,43.312,11.898
					c17.641,9.206,29.226,15.251,30.318,24.713c2.238,19.374-43.059,22.471-84.893,71.391
					C870.943,526.798,865.227,540.078,844.575,552.943z"/>
				<g>
					<path fill="#FFFFFF" d="M915.961,569.114c16.318-44.293-19.286-100.606-21.901-105.252c0,0-20.136,16.775-47.001,14.972
						c-26.864-1.804-24.625,34.561-24.625,34.561c-14.608-3.219-17.153,6.6-13.54,26.656c3.616,20.055,23.529,14.191,23.529,14.191
						c2.777,3.318,5.693,6.195,8.688,8.727L807,613.437c-9.311,13.776-22.319,24.646-37.531,31.361l-13.826,6.101
						c-3.602,1.59-2.87,6.917,1.033,7.44c27.019,3.625,90.452,8.155,138.067-19.556c2.856-1.662,2.106-6.004-1.127-6.692
						l-11.073-2.358c-7.875-1.677-11.98-10.404-8.25-17.539l17.292-33.082c6.027-0.246,11.202-1.053,14.971-1.833
						C910.906,576.379,914.426,573.281,915.961,569.114z"/>
					<path d="M797.195,663.054c-16.989,0-31.469-1.451-40.789-2.7c-2.659-0.357-4.696-2.381-5.074-5.036
						c-0.379-2.668,1.023-5.19,3.49-6.279l13.824-6.103c14.881-6.567,27.562-17.163,36.671-30.637l33.101-48.976
						c-2.389-2.123-4.646-4.406-6.734-6.815c-2.925,0.607-10.185,1.551-16.279-2.216c-4.487-2.767-7.35-7.44-8.51-13.881
						c-2.589-14.364-1.826-22.616,2.479-26.757c2.545-2.451,6.143-3.347,10.977-2.697c0.032-5.792,1.009-19.939,9.269-28.154
						c4.49-4.463,10.395-6.483,17.577-6.001c25.726,1.74,45.368-14.342,45.565-14.505c0.462-0.386,1.078-0.542,1.668-0.437
						c0.593,0.109,1.108,0.477,1.404,1.002c0.132,0.237,0.353,0.609,0.651,1.11c13.886,23.516,35.132,68.536,21.386,105.842
						c-1.801,4.881-5.877,8.413-10.905,9.451c-4.601,0.953-9.346,1.563-14.121,1.819l-16.752,32.046
						c-1.479,2.833-1.549,6.118-0.187,9.01c1.36,2.893,3.933,4.934,7.058,5.599l11.072,2.359c2.32,0.495,4.063,2.333,4.44,4.686
						c0.372,2.319-0.693,4.58-2.712,5.753C864.811,658.555,827.115,663.054,797.195,663.054z M832.422,552.208
						c0.594,0,1.169,0.26,1.561,0.729c2.551,3.05,5.394,5.903,8.441,8.479c0.791,0.669,0.953,1.832,0.371,2.691l-34.112,50.469
						c-9.534,14.113-22.812,25.204-38.396,32.082l-13.824,6.104c-1.21,0.532-1.152,1.653-1.104,1.985
						c0.046,0.326,0.298,1.404,1.586,1.577c25.32,3.396,89.329,8.314,136.773-19.298c0.825-0.478,0.792-1.275,0.741-1.597
						c-0.042-0.263-0.256-1.134-1.268-1.348l-11.072-2.36c-4.382-0.935-7.988-3.794-9.894-7.846
						c-1.906-4.053-1.81-8.654,0.264-12.623l17.295-33.08c0.336-0.646,0.991-1.061,1.718-1.091c4.88-0.201,9.942-0.822,14.64-1.795
						c3.646-0.75,6.602-3.322,7.912-6.874c13.455-36.519-9.495-82.56-20.585-101.536c-5.708,4.148-23.605,15.502-46.548,13.987
						c-5.955-0.391-10.808,1.222-14.427,4.817c-9.043,8.982-8.044,27.407-8.032,27.592c0.039,0.636-0.225,1.256-0.709,1.668
						c-0.484,0.415-1.138,0.573-1.757,0.441c-4.682-1.031-7.884-0.64-9.803,1.203c-3.131,3.014-3.557,10.573-1.297,23.104
						c0.945,5.249,3.173,8.993,6.622,11.131c6.114,3.793,14.254,1.495,14.336,1.47C832.041,552.235,832.232,552.208,832.422,552.208
						z M915.962,569.114h0.02H915.962z"/>
				</g>
				<path d="M887.242,581.411c-14.563,0-28.01-8.032-28.631-8.409c-0.961-0.583-1.267-1.832-0.687-2.792
					c0.58-0.96,1.832-1.266,2.792-0.688c0.16,0.094,15.827,9.458,30.615,7.571c1.11-0.131,2.128,0.65,2.271,1.763
					c0.141,1.115-0.646,2.13-1.763,2.272C890.304,581.323,888.765,581.411,887.242,581.411z"/>
			</g>
			<path fill="#FFFFFF" d="M817.704,689.183c-16.385,0-30.812-1.726-42.841-4.062c-37.842-7.347-60.125-21.753-61.055-22.364
				c-0.939-0.616-1.202-1.875-0.585-2.814c0.615-0.937,1.876-1.198,2.813-0.586c0.892,0.583,90.326,57.507,211.32-0.134
				c1.018-0.484,2.227-0.054,2.707,0.961c0.485,1.014,0.055,2.227-0.96,2.709C886.978,682.962,848.818,689.183,817.704,689.183z"/>
		</g>
		<g>
			<path d="M1496.779,781.917c-1.614,0-3.226-0.015-4.834-0.041c-1.121-0.018-2.018-0.942-2-2.067c0.018-1.11,0.926-2,2.034-2
				c0.009,0,0.021,0,0.033,0c8.012,0.123,16.19-0.073,24.21-0.604c1.128-0.04,2.091,0.774,2.165,1.895
				c0.074,1.121-0.774,2.089-1.894,2.164C1509.969,781.699,1503.335,781.917,1496.779,781.917z M1467.637,780.479
				c-0.067,0-0.135-0.003-0.201-0.009c-8.109-0.804-16.289-1.959-24.31-3.438c-1.105-0.202-1.835-1.263-1.632-2.367
				c0.204-1.104,1.27-1.842,2.367-1.633c7.91,1.456,15.979,2.597,23.974,3.391c1.12,0.111,1.936,1.106,1.823,2.223
				C1469.556,779.695,1468.67,780.479,1467.637,780.479z M1540.596,778.652c-0.989,0-1.856-0.723-2.01-1.73
				c-0.166-1.112,0.599-2.146,1.708-2.315c7.96-1.196,15.957-2.749,23.771-4.604c1.097-0.265,2.188,0.415,2.448,1.507
				c0.26,1.092-0.416,2.189-1.507,2.448c-7.925,1.884-16.037,3.456-24.106,4.672
				C1540.798,778.644,1540.695,778.652,1540.596,778.652z M1419.724,771.638c-0.178,0-0.357-0.021-0.536-0.07
				c-7.86-2.146-15.731-4.652-23.396-7.457c-1.056-0.388-1.598-1.555-1.211-2.609c0.386-1.054,1.554-1.59,2.607-1.211
				c7.556,2.765,15.318,5.238,23.068,7.354c1.084,0.296,1.724,1.413,1.428,2.495
				C1421.438,771.045,1420.616,771.638,1419.724,771.638z M1588.004,767.382c-0.856,0-1.65-0.541-1.932-1.398
				c-0.349-1.066,0.23-2.215,1.296-2.568c7.635-2.51,15.253-5.374,22.648-8.515c1.026-0.43,2.227,0.043,2.668,1.079
				c0.438,1.032-0.044,2.229-1.078,2.667c-7.501,3.183-15.227,6.088-22.966,8.633C1588.43,767.35,1588.215,767.382,1588.004,767.382
				z M1373.944,754.896c-0.286,0-0.577-0.059-0.854-0.188c-7.403-3.441-14.749-7.233-21.829-11.276
				c-0.976-0.556-1.314-1.799-0.756-2.775c0.556-0.975,1.791-1.318,2.773-0.756c6.981,3.985,14.223,7.726,21.523,11.118
				c1.02,0.475,1.462,1.684,0.99,2.699C1375.445,754.461,1374.711,754.896,1373.944,754.896z M1632.828,748.35
				c-0.73,0-1.436-0.393-1.801-1.085c-0.524-0.993-0.143-2.223,0.85-2.747c7.11-3.752,14.149-7.852,20.919-12.183
				c0.944-0.61,2.203-0.33,2.81,0.615c0.604,0.946,0.327,2.206-0.618,2.81c-6.864,4.393-14.001,8.549-21.212,12.355
				C1633.475,748.274,1633.148,748.35,1632.828,748.35z M1331.605,730.732c-0.398,0-0.799-0.115-1.15-0.358
				c-6.718-4.617-13.327-9.579-19.645-14.743c-0.869-0.711-0.999-1.992-0.287-2.861c0.713-0.87,1.992-0.998,2.861-0.288
				c6.23,5.096,12.747,9.988,19.374,14.542c0.925,0.635,1.158,1.902,0.524,2.827
				C1332.888,730.425,1332.252,730.732,1331.605,730.732z M1673.869,722.094c-0.611,0-1.217-0.277-1.618-0.799
				c-0.681-0.893-0.51-2.168,0.381-2.851c6.387-4.876,12.649-10.087,18.616-15.488c0.832-0.754,2.118-0.689,2.872,0.144
				c0.753,0.832,0.688,2.119-0.143,2.871c-6.051,5.478-12.4,10.761-18.874,15.707C1674.733,721.957,1674.3,722.094,1673.869,722.094
				z M1293.873,699.881c-0.509,0-1.019-0.19-1.412-0.571c-5.861-5.667-11.559-11.652-16.931-17.788
				c-0.74-0.845-0.655-2.13,0.188-2.869c0.847-0.745,2.129-0.66,2.87,0.19c5.3,6.05,10.917,11.954,16.699,17.543
				c0.807,0.781,0.827,2.067,0.048,2.876C1294.937,699.676,1294.406,699.881,1293.873,699.881z M1710.003,689.396
				c-0.499,0-0.998-0.181-1.389-0.547c-0.819-0.767-0.863-2.054-0.097-2.874c5.507-5.89,10.822-12.067,15.8-18.362
				c0.698-0.88,1.974-1.032,2.855-0.333c0.882,0.695,1.031,1.974,0.333,2.856c-5.045,6.381-10.434,12.646-16.018,18.614
				C1711.086,689.179,1710.545,689.396,1710.003,689.396z M1261.771,663.219c-0.623,0-1.237-0.286-1.638-0.827
				c-4.845-6.561-9.471-13.404-13.75-20.341c-0.588-0.957-0.292-2.209,0.663-2.799c0.959-0.589,2.209-0.29,2.8,0.664
				c4.218,6.841,8.781,13.591,13.561,20.063c0.668,0.904,0.476,2.177-0.429,2.844C1262.614,663.09,1262.19,663.219,1261.771,663.219
				z M1740.228,651.162c-0.387,0-0.776-0.109-1.121-0.34c-0.936-0.621-1.192-1.882-0.569-2.817
				c4.443-6.699,8.663-13.672,12.536-20.729c0.545-0.984,1.781-1.339,2.763-0.805c0.984,0.542,1.344,1.777,0.804,2.763
				c-3.93,7.155-8.208,14.225-12.717,21.017C1741.532,650.842,1740.888,651.162,1740.228,651.162z M1236.199,621.753
				c-0.743,0-1.458-0.407-1.816-1.114c-3.681-7.268-7.103-14.783-10.166-22.338c-0.422-1.04,0.08-2.227,1.12-2.649
				c1.038-0.423,2.229,0.077,2.648,1.119c3.022,7.452,6.394,14.865,10.024,22.028c0.508,1.004,0.107,2.227-0.894,2.733
				C1236.819,621.684,1236.507,621.753,1236.199,621.753z M1763.692,608.431c-0.275,0-0.556-0.055-0.823-0.175
				c-1.028-0.457-1.489-1.657-1.035-2.684c3.27-7.354,6.264-14.938,8.902-22.537c0.365-1.061,1.523-1.624,2.588-1.252
				c1.06,0.367,1.622,1.525,1.252,2.587c-2.674,7.706-5.71,15.395-9.024,22.854C1765.216,607.981,1764.473,608.431,1763.692,608.431
				z M1217.9,576.604c-0.866,0-1.67-0.557-1.941-1.432c-2.414-7.78-4.529-15.767-6.285-23.739c-0.24-1.097,0.45-2.179,1.551-2.422
				c1.089-0.249,2.182,0.45,2.422,1.548c1.73,7.859,3.816,15.736,6.196,23.409c0.333,1.072-0.267,2.21-1.339,2.543
				C1218.302,576.573,1218.1,576.604,1217.9,576.604z M1779.676,562.384c-0.166,0-0.335-0.02-0.502-0.063
				c-1.088-0.279-1.746-1.384-1.469-2.473c1.988-7.781,3.668-15.753,4.997-23.693c0.184-1.107,1.227-1.867,2.34-1.67
				c1.108,0.185,1.854,1.233,1.671,2.341c-1.347,8.052-3.053,16.135-5.067,24.027
				C1781.41,561.772,1780.584,562.384,1779.676,562.384z M1207.418,529.021c-1.005,0-1.876-0.743-2.013-1.763
				c-1.077-8.06-1.829-16.287-2.237-24.45c-0.056-1.121,0.807-2.076,1.929-2.132c1.112-0.095,2.074,0.807,2.132,1.93
				c0.401,8.051,1.146,16.165,2.208,24.112c0.149,1.114-0.635,2.136-1.745,2.286C1207.6,529.016,1207.508,529.021,1207.418,529.021z
				 M1787.729,514.328c-0.056,0-0.113-0.001-0.169-0.006c-1.119-0.093-1.951-1.076-1.859-2.195
				c0.66-7.987,0.994-16.127,0.994-24.192c0-1.124,0.908-2.033,2.033-2.033c1.124,0,2.033,0.909,2.033,2.033
				c0,8.177-0.338,16.429-1.007,24.526C1789.664,513.523,1788.774,514.328,1787.729,514.328z M1788.682,484.813
				c-1.107,0-2.015-0.887-2.035-1.998c-0.137-8.049-0.612-16.181-1.415-24.174c-0.11-1.118,0.704-2.112,1.82-2.226
				c1.128-0.103,2.114,0.705,2.226,1.821c0.813,8.102,1.296,16.348,1.437,24.507c0.02,1.124-0.875,2.049-1.998,2.069
				C1788.705,484.813,1788.693,484.813,1788.682,484.813z M1204.99,480.354c-0.023,0-0.047,0-0.067-0.002
				c-1.122-0.036-2.004-0.974-1.966-2.097c0.265-8.155,0.871-16.391,1.808-24.48c0.127-1.114,1.138-1.91,2.254-1.788
				c1.114,0.129,1.914,1.139,1.785,2.254c-0.923,7.979-1.522,16.102-1.784,24.145
				C1206.984,479.486,1206.082,480.354,1204.99,480.354z M1783.811,436.337c-0.961,0-1.814-0.683-1.998-1.662
				c-1.469-7.913-3.289-15.854-5.417-23.6c-0.295-1.082,0.342-2.202,1.425-2.497c1.075-0.298,2.2,0.336,2.5,1.422
				c2.153,7.857,4.002,15.909,5.491,23.933c0.204,1.104-0.524,2.167-1.629,2.371
				C1784.059,436.327,1783.935,436.337,1783.811,436.337z M1210.599,431.955c-0.133,0-0.269-0.011-0.404-0.04
				c-1.103-0.222-1.814-1.295-1.593-2.395c1.617-8.01,3.589-16.032,5.862-23.846c0.312-1.079,1.441-1.707,2.519-1.384
				c1.079,0.313,1.698,1.441,1.385,2.519c-2.242,7.705-4.186,15.615-5.779,23.512
				C1212.395,431.288,1211.547,431.955,1210.599,431.955z M1770.924,389.347c-0.827,0-1.605-0.51-1.908-1.333
				c-2.763-7.529-5.888-15.047-9.286-22.349c-0.475-1.016-0.034-2.226,0.983-2.701c1.023-0.479,2.229-0.031,2.701,0.985
				c3.448,7.402,6.618,15.027,9.418,22.663c0.386,1.054-0.154,2.224-1.208,2.609
				C1771.393,389.308,1771.156,389.347,1770.924,389.347z M1224.205,385.167c-0.242,0-0.49-0.043-0.73-0.135
				c-1.045-0.403-1.569-1.58-1.168-2.628c2.925-7.603,6.216-15.186,9.78-22.539c0.488-1.01,1.708-1.432,2.717-0.94
				c1.01,0.488,1.432,1.705,0.94,2.715c-3.512,7.248-6.757,14.726-9.64,22.225C1225.792,384.673,1225.021,385.167,1224.205,385.167z
				 M1750.362,345.195c-0.705,0-1.393-0.368-1.767-1.023c-3.986-6.967-8.324-13.864-12.889-20.494
				c-0.639-0.925-0.405-2.191,0.52-2.827c0.932-0.633,2.194-0.401,2.828,0.521c4.63,6.723,9.028,13.714,13.071,20.779
				c0.558,0.975,0.219,2.218-0.754,2.776C1751.051,345.109,1750.704,345.195,1750.362,345.195z M1245.466,341.296
				c-0.353,0-0.709-0.091-1.035-0.283c-0.968-0.573-1.284-1.821-0.712-2.787c4.158-7.013,8.664-13.939,13.396-20.589
				c0.646-0.914,1.921-1.13,2.836-0.477c0.913,0.651,1.128,1.921,0.477,2.836c-4.667,6.557-9.11,13.389-13.211,20.302
				C1246.838,340.942,1246.16,341.296,1245.466,341.296z M1722.727,305.07c-0.589,0-1.174-0.254-1.575-0.744
				c-5.094-6.218-10.514-12.299-16.113-18.081c-0.782-0.807-0.763-2.093,0.046-2.874c0.8-0.78,2.093-0.765,2.873,0.046
				c5.68,5.862,11.178,12.029,16.341,18.332c0.713,0.87,0.584,2.151-0.284,2.861C1723.635,304.92,1723.179,305.07,1722.727,305.07z
				 M1273.731,301.586c-0.462,0-0.93-0.157-1.31-0.48c-0.858-0.725-0.966-2.007-0.24-2.866c5.26-6.223,10.852-12.304,16.621-18.081
				c0.795-0.793,2.081-0.793,2.875,0c0.795,0.792,0.795,2.081,0,2.875c-5.688,5.695-11.202,11.693-16.39,17.831
				C1274.883,301.342,1274.309,301.586,1273.731,301.586z M1688.819,270.068c-0.478,0-0.953-0.166-1.337-0.503
				c-6.06-5.296-12.413-10.401-18.886-15.17c-0.904-0.665-1.098-1.938-0.431-2.843c0.665-0.903,1.938-1.096,2.844-0.429
				c6.561,4.834,13.005,10.011,19.147,15.38c0.846,0.738,0.932,2.023,0.193,2.869
				C1689.949,269.833,1689.386,270.068,1688.819,270.068z M1308.178,267.107c-0.575,0-1.149-0.244-1.55-0.718
				c-0.727-0.858-0.62-2.141,0.235-2.865c6.238-5.284,12.758-10.357,19.377-15.079c0.918-0.649,2.188-0.439,2.839,0.475
				c0.651,0.916,0.438,2.185-0.475,2.837c-6.53,4.657-12.961,9.661-19.11,14.869C1309.11,266.949,1308.642,267.107,1308.178,267.107
				z M1649.577,241.151c-0.362,0-0.73-0.097-1.064-0.302c-6.854-4.218-13.969-8.198-21.145-11.822
				c-1.003-0.507-1.404-1.729-0.898-2.733c0.506-0.999,1.733-1.401,2.733-0.897c7.276,3.678,14.491,7.712,21.443,11.989
				c0.954,0.588,1.253,1.842,0.664,2.798C1650.928,240.808,1650.261,241.151,1649.577,241.151z M1347.844,238.814
				c-0.692,0-1.37-0.356-1.748-0.995c-0.574-0.966-0.256-2.212,0.709-2.787c7.008-4.164,14.277-8.082,21.608-11.647
				c1.01-0.491,2.229-0.07,2.719,0.938c0.49,1.011,0.068,2.228-0.94,2.719c-7.229,3.516-14.399,7.38-21.309,11.485
				C1348.556,238.722,1348.199,238.814,1347.844,238.814z M1606.065,219.164c-0.254,0-0.513-0.047-0.76-0.147
				c-7.475-3.018-15.156-5.75-22.83-8.123c-1.075-0.331-1.675-1.469-1.344-2.542c0.331-1.076,1.47-1.681,2.543-1.342
				c7.785,2.405,15.575,5.175,23.151,8.237c1.044,0.419,1.545,1.604,1.126,2.645
				C1607.631,218.683,1606.871,219.164,1606.065,219.164z M1391.65,217.524c-0.816,0-1.585-0.495-1.896-1.301
				c-0.404-1.048,0.118-2.226,1.163-2.629c7.611-2.938,15.437-5.587,23.261-7.874c1.082-0.323,2.206,0.306,2.521,1.382
				c0.313,1.079-0.305,2.206-1.382,2.521c-7.714,2.251-15.432,4.865-22.934,7.762C1392.143,217.48,1391.895,217.524,1391.65,217.524
				z M1559.497,204.774c-0.146,0-0.29-0.016-0.438-0.047c-7.836-1.718-15.86-3.124-23.847-4.182
				c-1.115-0.147-1.896-1.17-1.749-2.282c0.147-1.112,1.161-1.89,2.282-1.75c8.101,1.072,16.235,2.498,24.184,4.241
				c1.099,0.239,1.791,1.324,1.552,2.421C1561.271,204.126,1560.432,204.774,1559.497,204.774z M1438.419,203.854
				c-0.948,0-1.796-0.665-1.992-1.628c-0.223-1.103,0.489-2.174,1.588-2.399c7.975-1.618,16.133-2.918,24.247-3.868
				c1.13-0.131,2.127,0.671,2.256,1.783c0.131,1.116-0.667,2.125-1.782,2.256c-8.002,0.936-16.046,2.22-23.909,3.816
				C1438.688,203.841,1438.552,203.854,1438.419,203.854z M1511.197,198.371c-0.033,0-0.066,0-0.101-0.002
				c-8.034-0.389-16.296-0.444-24.221-0.18c-0.021,0.002-0.046,0.002-0.069,0.002c-1.09,0-1.994-0.867-2.03-1.966
				c-0.037-1.122,0.841-2.062,1.964-2.1c8.03-0.272,16.41-0.213,24.555,0.182c1.122,0.055,1.986,1.008,1.931,2.129
				C1513.174,197.524,1512.273,198.371,1511.197,198.371z"/>
			<g>
				<path fill="#FFFFFF" d="M1496.779,238.538c-137.736,0-249.396,111.659-249.396,249.396
					c0,137.739,111.659,249.397,249.396,249.397s249.396-111.659,249.396-249.397
					C1746.176,350.197,1634.517,238.538,1496.779,238.538z M1496.779,690.676c-111.97,0-202.74-90.771-202.74-202.742
					c0-111.971,90.771-202.741,202.74-202.741c111.972,0,202.741,90.771,202.741,202.741
					C1699.521,599.905,1608.751,690.676,1496.779,690.676z"/>
				<path d="M1496.779,739.365c-138.638,0-251.429-112.791-251.429-251.43s112.791-251.43,251.429-251.43
					c138.639,0,251.429,112.791,251.429,251.43S1635.418,739.365,1496.779,739.365z M1496.779,240.571
					c-136.396,0-247.362,110.968-247.362,247.363s110.966,247.364,247.362,247.364c136.396,0,247.362-110.968,247.362-247.364
					S1633.175,240.571,1496.779,240.571z M1496.779,692.709c-112.912,0-204.774-91.862-204.774-204.775
					c0-112.913,91.862-204.775,204.774-204.775s204.774,91.862,204.774,204.775C1701.554,600.847,1609.691,692.709,1496.779,692.709
					z M1496.779,287.226c-110.67,0-200.708,90.038-200.708,200.709c0,110.672,90.038,200.708,200.708,200.708
					c110.671,0,200.707-90.037,200.707-200.708S1607.45,287.226,1496.779,287.226z"/>
			</g>
			<g>
				<g>
					<path fill="#FFFFFF" d="M1348.361,349.838l-33.01-33.009c-11.287,11.964-21.399,25.046-30.162,39.06l40.306,23.544
						C1332.204,368.862,1339.87,358.961,1348.361,349.838z"/>
					<path d="M1325.493,381.466c-0.35,0-0.703-0.089-1.025-0.277l-40.302-23.543c-0.477-0.276-0.818-0.735-0.949-1.269
						c-0.133-0.534-0.042-1.099,0.25-1.564c8.799-14.07,19.028-27.318,30.406-39.377c0.376-0.399,0.899-0.629,1.45-0.638
						c0.552,0.026,1.081,0.208,1.468,0.595l33.009,33.007c0.774,0.775,0.797,2.021,0.053,2.823
						c-8.432,9.057-16.049,18.916-22.638,29.3C1326.825,381.131,1326.169,381.466,1325.493,381.466z M1288.033,355.194
						l36.802,21.499c6.123-9.442,13.078-18.443,20.709-26.799l-30.143-30.14C1305.253,330.694,1296.06,342.6,1288.033,355.194z"/>
				</g>
				<g>
					<path fill="#FFFFFF" d="M1504.078,238.652v46.686c48.469,1.716,92.602,20.439,126.615,50.391l32.075-33.91
						C1620.366,263.976,1564.961,240.403,1504.078,238.652z"/>
					<path d="M1630.695,337.763c-0.479,0-0.957-0.167-1.343-0.507c-34.68-30.537-79.196-48.253-125.347-49.888
						c-1.094-0.038-1.962-0.937-1.962-2.031v-46.684c0-0.551,0.221-1.077,0.615-1.458c0.396-0.384,0.973-0.578,1.475-0.575
						c59.06,1.697,115.877,24.314,159.987,63.682c0.409,0.365,0.653,0.88,0.678,1.431c0.023,0.547-0.176,1.084-0.554,1.483
						l-32.072,33.912C1631.773,337.548,1631.235,337.763,1630.695,337.763z M1506.111,283.384
						c45.732,2.064,89.78,19.592,124.449,49.53l29.286-30.967c-42.645-37.411-97.086-59.081-153.736-61.192L1506.111,283.384
						L1506.111,283.384z"/>
				</g>
				<path d="M1641.298,345.762c36.002,36.591,58.224,86.784,58.224,142.172c0,17.531-2.227,34.541-6.409,50.765l44.643,13.669
					c5.483-20.556,8.423-42.151,8.423-64.434c0-68.74-27.813-130.981-72.795-176.092L1641.298,345.762z"/>
				<path d="M1645.197,626.03l33.01,33.01c24.707-26.188,43.802-57.721,55.373-92.684l-44.625-13.664
					C1679.663,580.275,1664.594,605.193,1645.197,626.03z"/>
				<path d="M1352.261,630.108c-36.003-36.593-58.223-86.785-58.223-142.173c0-34.695,8.721-67.351,24.082-95.905l-40.315-23.547
					c-19.393,35.474-30.422,76.174-30.422,119.452c0,68.739,27.813,130.981,72.795,176.093L1352.261,630.108z"/>
				<g>
					<path fill="#FFFFFF" d="M1634.876,636.353c-34.543,32.155-80.317,52.392-130.798,54.179v46.686
						c63.36-1.822,120.794-27.275,163.807-67.856L1634.876,636.353z"/>
					<path d="M1504.077,739.251c-0.528,0-1.036-0.207-1.417-0.577c-0.394-0.381-0.614-0.907-0.614-1.457v-46.687
						c0-1.095,0.866-1.994,1.961-2.032c48.178-1.706,94.164-20.754,129.484-53.637c0.801-0.742,2.049-0.725,2.822,0.053
						l33.01,33.009c0.39,0.389,0.604,0.917,0.596,1.468c-0.007,0.55-0.238,1.071-0.637,1.449
						c-44.882,42.342-103.532,66.637-165.146,68.41C1504.117,739.251,1504.096,739.251,1504.077,739.251z M1506.111,692.486v42.632
						c59.154-2.205,115.407-25.503,158.849-65.804l-30.142-30.142C1599.46,671.461,1553.898,690.333,1506.111,692.486z"/>
				</g>
				<path d="M1358.684,339.516c34.543-32.154,80.317-52.392,130.798-54.178v-46.686c-63.36,1.82-120.794,27.274-163.807,67.856
					L1358.684,339.516z"/>
				<g>
					<path fill="#FFFFFF" d="M1489.481,737.217v-46.686c-48.469-1.717-92.6-20.439-126.616-50.392l-32.074,33.91
						C1373.192,711.894,1428.599,735.466,1489.481,737.217z"/>
					<path d="M1489.481,739.251c-0.02,0-0.04,0-0.058,0c-59.059-1.7-115.875-24.316-159.987-63.684
						c-0.408-0.366-0.652-0.882-0.677-1.431c-0.023-0.548,0.176-1.083,0.555-1.483l32.07-33.911
						c0.754-0.794,1.998-0.852,2.821-0.129c34.68,30.538,79.194,48.253,125.346,49.887c1.095,0.037,1.964,0.938,1.964,2.032v46.687
						c0,0.55-0.223,1.077-0.617,1.457C1490.517,739.044,1490.009,739.251,1489.481,739.251z M1333.712,673.921
						c42.646,37.412,97.085,59.081,153.736,61.197v-42.632c-45.733-2.065-89.78-19.593-124.45-49.53L1333.712,673.921z"/>
				</g>
			</g>
			<g>
				<path d="M1496.779,649.728c-20.719,0-40.899-3.861-59.978-11.481c-1.043-0.417-1.551-1.6-1.134-2.643
					c0.418-1.042,1.599-1.553,2.644-1.134c18.596,7.427,38.267,11.191,58.468,11.191c68.821,0,129.183-43.988,150.204-109.457
					c0.347-1.067,1.494-1.648,2.558-1.314c1.07,0.344,1.659,1.489,1.315,2.558C1629.292,604.607,1567.374,649.728,1496.779,649.728z
					"/>
				<path d="M1652.137,452.568c-0.919,0-1.751-0.625-1.975-1.559c-3.243-13.52-8.282-26.57-14.981-38.79
					c-0.539-0.985-0.178-2.22,0.807-2.76c0.985-0.544,2.222-0.179,2.761,0.806c6.87,12.535,12.04,25.925,15.369,39.794
					c0.261,1.092-0.412,2.19-1.504,2.452C1652.455,452.55,1652.293,452.568,1652.137,452.568z"/>
				<path d="M1394.066,612.343c-0.459,0-0.924-0.158-1.307-0.478c-36.716-30.851-57.774-76.022-57.774-123.932
					c0-89.212,72.581-161.794,161.794-161.794c16.836,0,33.424,2.575,49.311,7.652c1.068,0.342,1.661,1.485,1.317,2.556
					c-0.342,1.068-1.482,1.672-2.556,1.316c-15.484-4.947-31.658-7.458-48.071-7.458c-86.972,0-157.729,70.756-157.729,157.727
					c0,46.707,20.529,90.742,56.326,120.819c0.86,0.722,0.972,2.004,0.248,2.865
					C1395.223,612.097,1394.646,612.343,1394.066,612.343z"/>
			</g>
		</g>
		<g>
			<g>
				<polygon fill="#FFFFFF" points="1766.304,1286.312 823.66,1286.312 823.66,1323.122 970.641,1323.122 855.958,1802.514 
					880.989,1802.514 985.414,1369.204 1089.839,1802.514 1114.87,1802.514 1000.186,1323.122 1766.304,1323.122 				"/>
				<path d="M1114.87,1804.547h-25.031c-0.938,0-1.756-0.642-1.975-1.557l-102.45-425.107L882.965,1802.99
					c-0.218,0.914-1.037,1.557-1.975,1.557h-25.03c-0.622,0-1.211-0.285-1.598-0.773c-0.386-0.489-0.527-1.125-0.381-1.731
					l114.083-476.886H823.66c-1.125,0-2.034-0.91-2.034-2.035v-36.811c0-1.123,0.909-2.033,2.034-2.033h942.644
					c1.123,0,2.032,0.91,2.032,2.033v36.811c0,1.125-0.908,2.035-2.032,2.035h-763.539l114.083,476.886
					c0.145,0.606,0.004,1.242-0.381,1.731C1116.08,1804.262,1115.493,1804.547,1114.87,1804.547z M1091.441,1800.481h20.852
					L998.21,1323.596c-0.146-0.605-0.004-1.243,0.381-1.732c0.386-0.487,0.974-0.773,1.596-0.773h764.083v-32.745H825.693v32.745
					h144.947c0.624,0,1.211,0.286,1.597,0.773c0.386,0.489,0.527,1.127,0.382,1.732l-114.083,476.886h20.852l104.05-431.754
					c0.217-0.913,1.036-1.558,1.975-1.558s1.757,0.644,1.976,1.558L1091.441,1800.481z"/>
			</g>
			<g>
				<polygon fill="#FFFFFF" points="1531.627,1802.515 1636.052,1369.149 1740.477,1802.515 1765.507,1802.515 1650.772,1322.851 
					1621.341,1322.809 1506.597,1802.515 				"/>
				<path d="M1765.507,1804.547h-25.028c-0.939,0-1.758-0.642-1.978-1.557l-102.447-425.163l-102.45,425.163
					c-0.22,0.914-1.04,1.557-1.977,1.557h-25.029c-0.624,0-1.211-0.285-1.598-0.773c-0.386-0.489-0.525-1.125-0.381-1.731
					l114.744-479.706c0.218-0.915,1.036-1.561,1.977-1.561l29.434,0.042c0.94,0.003,1.758,0.647,1.976,1.561l114.733,479.664
					c0.146,0.606,0.006,1.242-0.381,1.731C1766.715,1804.262,1766.129,1804.547,1765.507,1804.547z M1742.08,1800.481h20.849
					l-113.761-475.599l-26.222-0.038l-113.772,475.637h20.85l104.052-431.81c0.221-0.914,1.039-1.557,1.979-1.557
					c0.938,0,1.756,0.642,1.977,1.557L1742.08,1800.481z"/>
			</g>
			<path fill="#FFFFFF" d="M1522.993,1317.593c-1.124,0-2.034-0.909-2.034-2.035v-22.706c0-1.124,0.91-2.034,2.034-2.034
				c1.123,0,2.033,0.909,2.033,2.034v22.706C1525.025,1316.684,1524.116,1317.593,1522.993,1317.593z"/>
		</g>
		<g>
			<g>
				<g>
					<g>
						<g>
							<path fill="#FFFFFF" d="M1459.646,1708.345l-9.736,48.488c-0.329,1.641-1.855,2.75-3.284,2.387l-28.46-7.238
								c-1.227-0.312-1.952-1.613-1.685-3.024l8.199-43.331L1459.646,1708.345z"/>
							<path d="M1447.185,1761.322c-0.355,0-0.711-0.045-1.061-0.134l-28.458-7.237c-2.283-0.58-3.651-2.889-3.184-5.373l8.2-43.331
								c0.193-1.021,1.181-1.729,2.154-1.65l34.965,2.721c0.581,0.045,1.114,0.337,1.464,0.8s0.488,1.056,0.372,1.627l-9.736,48.491
								c-0.281,1.399-1.119,2.628-2.298,3.369C1448.853,1761.08,1448.019,1761.322,1447.185,1761.322z M1426.339,1707.793
								l-7.86,41.541c-0.069,0.372,0.063,0.645,0.188,0.677l28.458,7.239c0.124,0.023,0.258-0.05,0.313-0.086
								c0.236-0.148,0.416-0.42,0.477-0.729l9.285-46.239L1426.339,1707.793z"/>
						</g>
						<g>
							<polygon fill="#FFFFFF" points="1551.391,1666.753 1575.369,1706.168 1547.967,1720.689 1523.303,1685.423 							"/>
							<path d="M1547.969,1722.723c-0.646,0-1.276-0.307-1.67-0.867l-24.661-35.267c-0.313-0.45-0.432-1.006-0.332-1.543
								c0.102-0.537,0.416-1.011,0.872-1.316l28.086-18.671c0.462-0.304,1.031-0.407,1.566-0.291c0.541,0.12,1.011,0.456,1.299,0.93
								l23.979,39.417c0.289,0.479,0.37,1.055,0.222,1.596c-0.149,0.541-0.512,0.996-1.009,1.258l-27.404,14.521
								C1548.615,1722.646,1548.29,1722.723,1547.969,1722.723z M1526.164,1685.963l22.438,32.088l23.908-12.668l-21.755-35.767
								L1526.164,1685.963z"/>
						</g>
						<g>
							<g>
								<path fill="#FFFFFF" d="M1460.044,1735.522c1.946,6.974,6.05,26.621,7.767,38.44c1.077,7.418-3.609,14.436-10.783,16.375
									c-20.279,5.486-68.758,5.249-109.118,7.031c-2.764,0.122-7.859-1.228-10.122-7.925c-7.681-22.713,34.74-29.749,76.67-52.841
									c0.824-0.453,1.826-0.412,2.593,0.135c0.482,0.345,1.096,0.765,1.82,1.226c7.293,4.642,19.418,4.647,26.823,0.193
									l8.366-5.031C1456.354,1731.746,1459.319,1732.929,1460.044,1735.522z"/>
								<path d="M1347.562,1799.41c-4.042,0-9.368-2.409-11.7-9.313c-5.953-17.6,14.728-26.555,40.91-37.892
									c11.283-4.889,24.071-10.426,36.703-17.382c1.529-0.841,3.351-0.744,4.755,0.26c0.463,0.334,1.047,0.73,1.731,1.165
									c6.576,4.186,17.882,4.262,24.685,0.165l8.366-5.03c1.639-0.984,3.599-1.146,5.372-0.441
									c1.781,0.71,3.101,2.179,3.618,4.033c0,0.003,0,0.003,0,0.003c2.023,7.25,6.111,26.923,7.818,38.692
									c1.222,8.4-4.051,16.41-12.263,18.631c-15.313,4.142-45.551,5.043-77.565,5.998c-10.651,0.318-21.664,0.646-31.995,1.102
									C1347.855,1799.406,1347.708,1799.41,1347.562,1799.41z M1415.657,1738.326c-0.074,0-0.151,0.02-0.224,0.058
									c-12.798,7.051-25.68,12.629-37.045,17.552c-27.735,12.011-43.208,19.459-38.677,32.857c2.186,6.47,7.119,6.577,8.107,6.546
									c10.359-0.459,21.386-0.787,32.053-1.104c30.369-0.904,61.775-1.843,76.626-5.857c6.226-1.686,10.225-7.757,9.3-14.121
									c-1.644-11.323-5.739-31.109-7.712-38.185c-0.175-0.624-0.613-1.114-1.205-1.35c-0.576-0.23-1.23-0.178-1.773,0.147
									l-8.365,5.033c-8.109,4.875-21.102,4.779-28.964-0.224c-0.761-0.485-1.409-0.927-1.915-1.29
									C1415.806,1738.346,1415.732,1738.326,1415.657,1738.326z"/>
							</g>
							<g>
								<path fill="#FFFFFF" d="M1469.032,1779.316c0.04,0.206,0.067,0.349,0.077,0.414c1.077,7.416-5.966,11.974-12.7,15.134
									c-19.979,9.379-100.669,4.005-103.784,3.793c-0.063-0.004-0.109-0.005-0.172-0.005c-1.006,0.016-11.246,0.015-14.2-6.354
									c-0.367-0.792-0.593-1.902-0.729-2.947c-0.227-1.703-0.108-3.434,0.267-5.109c0.306-1.369,1.651-2.221,2.999-1.877
									c14.977,3.831,50.104,6.332,84.893,1.251c12.829-1.872,33.325-7.622,38.71-10.844c1.468-0.878,3.346-0.025,3.681,1.663
									C1468.35,1775.849,1468.689,1777.565,1469.032,1779.316z"/>
								<path d="M1403.187,1802.403c-24.99,0-48.868-1.593-50.701-1.718c-1.268-0.01-12.597-0.019-16.077-7.531
									c-0.406-0.876-0.709-2.065-0.902-3.54c-0.247-1.865-0.148-3.824,0.299-5.817c0.268-1.196,1.017-2.248,2.054-2.885
									c1.038-0.636,2.259-0.816,3.434-0.517c12.979,3.32,47.286,6.587,84.095,1.21c12.534-1.83,32.756-7.464,37.958-10.578
									c1.255-0.749,2.791-0.84,4.122-0.253c1.34,0.598,2.313,1.818,2.598,3.266l0.965,4.884c0,0.002,0,0.005,0.002,0.01
									l0.088,0.481c1.315,9.06-7.272,14.206-13.845,17.289C1447.73,1801.184,1425.033,1802.403,1403.187,1802.403z
									 M1352.434,1796.619c0.071,0,0.269,0.003,0.316,0.009c28.735,1.957,87.179,3.726,102.796-3.604
									c8.7-4.083,12.263-8.092,11.55-13.002l-1.021-5.19c-0.041-0.202-0.166-0.294-0.264-0.338
									c-0.126-0.061-0.254-0.049-0.378,0.024c-5.643,3.374-26.294,9.189-39.46,11.109c-33.339,4.867-69.036,2.965-85.694-1.291
									c-0.1-0.026-0.205-0.016-0.299,0.044c-0.062,0.038-0.17,0.128-0.211,0.306c-0.341,1.523-0.419,3.003-0.234,4.396
									c0.184,1.399,0.43,2.077,0.561,2.359c2.446,5.273,11.908,5.196,12.323,5.178
									C1352.424,1796.619,1352.428,1796.619,1352.434,1796.619z"/>
							</g>
							<path d="M1411.581,1756.992c-0.43,0-0.863-0.136-1.229-0.416l-12.242-9.321c-0.894-0.681-1.065-1.955-0.386-2.849
								c0.68-0.896,1.955-1.068,2.849-0.388l12.242,9.322c0.894,0.68,1.066,1.955,0.385,2.85
								C1412.8,1756.715,1412.193,1756.992,1411.581,1756.992z"/>
							<path d="M1395.316,1763.657c-0.426,0-0.852-0.132-1.22-0.407l-10.708-8.035c-0.898-0.674-1.08-1.948-0.405-2.847
								c0.673-0.9,1.947-1.08,2.848-0.405l10.707,8.034c0.898,0.675,1.079,1.949,0.406,2.848
								C1396.546,1763.377,1395.934,1763.657,1395.316,1763.657z"/>
						</g>
						<g>
							<g>
								<path fill="#FFFFFF" d="M1546.173,1712.277l31.516-4.559l18.61,39.477c2.737,5.923,0.562,13.597-4.98,17.103
									c-7.217,4.568-17.998,10.517-30.381,14.499c-23.355,7.506-46.67,29.041-66.754,18.454
									c-20.084-10.585-18.754-11.371-19.759-18.623c-1.004-7.253,18.902-21.528,32.364-30.92
									C1517.786,1740.036,1546.173,1712.277,1546.173,1712.277z"/>
								<path d="M1505.956,1802.136c-4.335,0-8.587-0.906-12.72-3.086c-18.275-9.634-19.749-11.496-20.645-18.73
									c-0.054-0.442-0.112-0.913-0.181-1.415c-1.018-7.333,12.543-18.443,33.215-32.865c10.736-7.489,38.844-34.938,39.126-35.215
									c0.307-0.303,0.704-0.496,1.129-0.558l31.516-4.562c0.922-0.145,1.752,0.339,2.13,1.143l18.609,39.477
									c3.173,6.861,0.599,15.686-5.729,19.688c-7.032,4.453-18.096,10.619-30.85,14.719c-7.212,2.319-14.573,6.081-21.69,9.721
									C1528.579,1796.224,1517.016,1802.136,1505.956,1802.136z M1547.12,1714.196c-3.888,3.787-28.812,27.953-39.167,35.181
									c-8.015,5.59-32.397,22.603-31.516,28.97c0.073,0.526,0.134,1.013,0.191,1.477c0.642,5.201,0.775,6.286,18.504,15.631
									c12.813,6.756,27.42-0.714,42.884-8.622c7.261-3.713,14.773-7.551,22.298-9.972c12.346-3.97,23.083-9.955,29.918-14.28
									c4.666-2.954,6.561-9.472,4.222-14.531l-17.963-38.102L1547.12,1714.196z"/>
							</g>
							<path d="M1535.824,1746.559c-0.38,0-0.765-0.105-1.106-0.329l-14.213-9.243c-0.941-0.611-1.21-1.87-0.597-2.811
								c0.611-0.941,1.87-1.215,2.812-0.597l14.213,9.244c0.94,0.61,1.21,1.87,0.596,2.812
								C1537.14,1746.232,1536.489,1746.559,1535.824,1746.559z"/>
							<path d="M1525.716,1757.154c-0.379,0-0.764-0.105-1.105-0.33l-14.216-9.244c-0.94-0.611-1.209-1.871-0.596-2.812
								c0.612-0.941,1.871-1.216,2.812-0.597l14.216,9.245c0.94,0.612,1.21,1.871,0.596,2.813
								C1527.033,1756.828,1526.382,1757.154,1525.716,1757.154z"/>
							<g>
								<path fill="#FFFFFF" d="M1475.796,1784.057c0,0,15.803,11.514,33.196,5.502s87.302-42.83,87.302-42.83l3.612,7.914
									c1.828,4.008,0.26,8.775-3.597,10.948c-17.415,9.81-63.896,34.813-88.086,36.46
									C1478.083,1804.104,1475.796,1784.057,1475.796,1784.057z"/>
								<path d="M1504.055,1804.232c-27.671,0-30.254-19.734-30.278-19.945c-0.09-0.799,0.301-1.578,0.995-1.985
									c0.693-0.407,1.564-0.366,2.221,0.11c0.15,0.108,15.189,10.801,31.338,5.226c17.049-5.894,86.319-42.34,87.018-42.708
									c0.493-0.257,1.074-0.306,1.604-0.125c0.529,0.182,0.963,0.572,1.194,1.08l3.612,7.913
									c2.249,4.934,0.295,10.889-4.448,13.564c-18.617,10.485-64.55,35.055-88.947,36.719
									C1506.863,1804.183,1505.426,1804.232,1504.055,1804.232z M1479.441,1788.565c2.732,5.23,9.942,12.718,28.643,11.457
									c23.57-1.605,68.855-25.854,87.229-36.202c2.919-1.646,4.126-5.308,2.744-8.334l-2.719-5.957
									c-11.543,6.056-69.746,36.444-85.682,41.952C1497.195,1795.781,1485.681,1791.714,1479.441,1788.565z"/>
							</g>
						</g>
						<g>
							<g>
								<path d="M1525.135,1398.79c0,0-108.555,44.148-148.608,92.663c-38.271,46.354,134.103,214.714,134.103,214.714
									c0.216,0.799,58.574-32.177,58.574-33.192l-44.701-97.504c-17.641-38.033-52.928-59.763-38.536-73.127
									c13.096-12.161,85.89-5.878,123.251-7.179c66.375-2.309,65.74-99.068,65.74-99.068L1525.135,1398.79z"/>
								<path d="M1432.657,1518.984c-9.375,35.051-18.28,140.507-20.336,199.482c-0.027,0.811,59.737,1.385,59.858,0.321
									c0.6-5.187,44.779-164.888,69.453-207.119c13.104-22.431,97.654-16.004,116.515-19.749
									c50.354-9.998,47.052-111.653,47.052-111.653l-235.745,94.146C1449.299,1477.481,1437.97,1499.121,1432.657,1518.984z"/>
							</g>
							<path fill="#FFFFFF" d="M1482.115,1678.64c-0.597,0-1.188-0.262-1.59-0.764l-47.271-59.126
								c-0.701-0.874-0.559-2.154,0.319-2.855c0.876-0.703,2.158-0.556,2.858,0.318l47.269,59.125
								c0.702,0.876,0.56,2.156-0.319,2.857C1483.011,1678.495,1482.561,1678.64,1482.115,1678.64z"/>
						</g>
					</g>
					<g>
						<g>
							<path fill="#FFFFFF" d="M1720.298,1219.28c0,0-2.021-81.108-49.716-96.854c-4.052-1.338-8.299-2.001-12.563-2.162
								l-42.078-1.586c-12.489-0.099-22.833,2.919-36.196,7.809c-11.169,4.088-23.605,11.706-30.864,18.301
								c-32.003,29.073-32.325,126.677-60.007,124.373c-9.293-0.774-24.845-16.297-40.245-35.295
								c-12.331-15.214-33.568-33.885-33.568-33.885l-36.993,18.671c8.794,14.912,16.719,30.354,23.198,46.43
								c13.528,33.575,35.741,61.762,63.557,85.83c9.258,8.009,22.348,9.648,33.277,4.198c17.74-8.846,44.32-23.087,60.834-36.54
								c6.076,20.993,0.66,43.887-14.304,60.067c-4.492,4.856-9.359,9.313-14.481,12.953c-5.041,3.581-6.236,10.658-2.772,15.806
								c5.577,8.295,16.715,17.837,37.975,15.601c27.933-2.937,107.465-2.619,142.583-2.318c9.318,0.081,16.842-7.639,16.625-17.041
								L1720.298,1219.28z"/>
							<path d="M1559.201,1425.363c-18.15,0-28.179-8.901-33.512-16.832c-4.081-6.068-2.61-14.412,3.283-18.6
								c4.718-3.352,9.485-7.615,14.165-12.674c13.71-14.823,19.177-35.705,14.62-55.155c-16.42,12.735-40.778,25.864-58.746,34.825
								c-11.698,5.832-25.634,4.071-35.516-4.479c-29.759-25.748-51.33-54.887-64.116-86.607
								c-6.032-14.97-13.575-30.066-23.061-46.157c-0.286-0.483-0.357-1.063-0.202-1.604c0.159-0.54,0.535-0.991,1.036-1.243
								l36.993-18.671c0.742-0.373,1.635-0.26,2.259,0.289c0.214,0.188,21.511,18.957,33.808,34.131
								c17.553,21.655,31.344,33.925,38.833,34.55c12.729,0.975,19.726-24.843,27.157-52.269
								c7.27-26.825,15.509-57.228,31.312-71.584c7.901-7.176,20.573-14.694,31.534-18.707c13.928-5.096,24.374-8.092,36.911-7.932
								l42.139,1.588c4.689,0.178,9.104,0.938,13.123,2.262c48.495,16.012,51.025,95.366,51.11,98.736c0,0.002,0,0.004,0,0.004
								l4.264,184.354c0.118,5.14-1.795,9.974-5.383,13.615c-3.543,3.593-8.235,5.542-13.294,5.509
								c-33.466-0.283-114.341-0.64-142.353,2.305C1563.34,1425.253,1561.22,1425.363,1559.201,1425.363z M1558.935,1316.536
								c0.202,0,0.407,0.03,0.606,0.093c0.651,0.203,1.155,0.719,1.348,1.375c6.262,21.634,0.604,45.395-14.766,62.013
								c-4.87,5.267-9.85,9.716-14.795,13.231c-4.111,2.92-5.126,8.757-2.264,13.015c5.302,7.884,15.876,16.825,36.075,14.712
								c28.215-2.967,109.271-2.613,142.813-2.33c3.938-0.016,7.598-1.492,10.36-4.296c2.811-2.852,4.308-6.639,4.213-10.666
								l-4.263-184.354c-0.021-0.881-2.566-79.869-48.318-94.974c-3.656-1.204-7.691-1.897-12.004-2.061l-42.077-1.588
								c-0.193,0-0.386-0.002-0.576-0.002c-11.6,0-21.252,2.717-34.844,7.69c-10.352,3.789-22.769,11.146-30.196,17.896
								c-14.923,13.556-22.997,43.351-30.121,69.637c-8.232,30.366-15.313,56.607-31.422,55.255
								c-8.853-0.735-22.868-12.862-41.653-36.037c-10.553-13.018-27.933-28.812-32.309-32.728l-33.825,17.072
								c9.078,15.567,16.359,30.252,22.233,44.828c12.54,31.117,33.738,59.731,63.004,85.055c8.637,7.47,20.819,9.01,31.04,3.915
								c18.703-9.328,44.377-23.198,60.455-36.296C1558.017,1316.692,1558.473,1316.536,1558.935,1316.536z"/>
						</g>
						<path d="M1558.395,1321.03c-0.604,0-1.201-0.269-1.602-0.778c-0.693-0.886-0.538-2.162,0.346-2.855
							c4.756-3.726,19.227-17.158,26.81-28.275c0.631-0.929,1.898-1.163,2.826-0.534c0.928,0.634,1.167,1.898,0.534,2.826
							c-7.836,11.487-22.759,25.343-27.66,29.185C1559.274,1320.889,1558.834,1321.03,1558.395,1321.03z"/>
						<g>
							<path fill="#FFFFFF" d="M1410.438,1201.019l-5.651-30.6c0,0-4.624-23.338-10.276-26.451
								c-4.159-2.289-6.927,6.374-6.052,17.31c0.146,1.813-2.322,2.466-3.071,0.811c-2.949-6.512-6.028-14.145-6.291-18.12
								c-0.514-7.777-2.056-23.856-9.248-22.3c-7.193,1.557-20.04,26.45-10.276,47.716c9.762,21.263,32.37,40.972,32.37,40.972
								L1410.438,1201.019z"/>
							<path d="M1391.94,1212.388c-0.48,0-0.957-0.17-1.337-0.499c-0.937-0.817-23.049-20.243-32.882-41.657
								c-6.47-14.093-3.47-29.72,1.49-39.646c3.055-6.106,6.868-10.184,10.204-10.906c1.821-0.39,3.562-0.01,5.039,1.105
								c3.694,2.781,5.813,10.106,6.669,23.049c0.177,2.698,2.003,8.09,5.175,15.308c-0.234-6.729,0.802-14.448,4.532-16.858
								c1.431-0.927,3.085-0.962,4.66-0.094c6.167,3.395,10.484,23.782,11.287,27.836l5.658,30.625
								c0.167,0.889-0.276,1.777-1.083,2.184l-18.498,9.338C1392.565,1212.315,1392.252,1212.388,1391.94,1212.388z
								 M1370.804,1123.594c-0.167,0-0.34,0.021-0.525,0.062c-1.649,0.355-4.677,3.246-7.429,8.749
								c-4.54,9.082-7.3,23.344-1.433,36.131c8.31,18.095,26.385,35.295,30.85,39.377l15.896-8.021l-5.377-29.101
								c-1.841-9.281-5.933-23.211-9.257-25.04c-0.305-0.166-0.382-0.122-0.491-0.052c-1.51,0.976-3.236,6.878-2.554,15.416
								c0.146,1.813-0.979,3.39-2.73,3.84c-1.739,0.455-3.477-0.383-4.219-2.028c-4.059-8.962-6.236-15.294-6.469-18.824
								c-0.937-14.142-3.267-18.721-5.058-20.07C1371.615,1123.735,1371.236,1123.594,1370.804,1123.594z"/>
						</g>
					</g>
					<g>
						<g>
							<path fill="#FFFFFF" d="M1601.087,1131.174c-1.175-0.216-1.462-1.802-0.427-2.403c3.508-2.028,8.464-5.707,8.155-10.147
								l0.754-17.163c-0.054-2.094-1.43-3.914-3.416-4.52l-12.34-3.752c-1.903-0.578-3.192-2.367-3.149-4.373l0.385-18.199
								l-5.987-4.835c-0.468-0.376-0.551-1.061-0.187-1.541l8.649-11.418c2.805-4.296,5.376-14.398,7.845-13.819
								c0,0,51.134-8.06,55.252,17.351c0.63,3.883-0.32,7.86-2.463,11.146l-4.329,6.636c-4.347,6.663-6.444,14.695-5.292,22.59
								c0.363,2.481,6.146,25.306,6.146,25.306s10.259,4.648,16.536,6.387c1.353,0.375,1.425,2.283,0.104,2.765l-11.472,2.741
								c-11.468,2.698-23.36,2.996-34.945,0.876L1601.087,1131.174z"/>
							<path d="M1636.307,1138.239c-5.259,0-10.521-0.478-15.766-1.438l-19.818-3.629c-1.385-0.252-2.438-1.317-2.684-2.714
								c-0.241-1.389,0.386-2.741,1.6-3.445c4.718-2.728,7.321-5.734,7.147-8.25c-0.003-0.077-0.006-0.153-0.002-0.23l0.752-17.161
								c-0.031-1.08-0.825-2.134-1.975-2.483l-12.342-3.751c-2.764-0.845-4.65-3.459-4.592-6.363l0.366-17.201l-5.211-4.207
								c-1.332-1.072-1.565-2.985-0.531-4.352l8.65-11.418c0.88-1.355,1.877-3.738,2.84-6.044c2.061-4.928,3.729-8.873,6.622-8.604
								c4.804-0.716,52.999-7.219,57.263,19.082c0.697,4.31-0.284,8.776-2.767,12.581l-4.329,6.635
								c-4.257,6.528-6.025,14.054-4.984,21.188c0.247,1.685,3.553,15.008,5.863,24.146c2.608,1.151,10.356,4.5,15.35,5.881
								c1.462,0.406,2.482,1.699,2.545,3.218c0.061,1.521-0.857,2.895-2.282,3.417c-0.074,0.026-0.149,0.05-0.228,0.066
								l-11.472,2.743C1649.7,1137.46,1643.008,1138.239,1636.307,1138.239z M1603.33,1129.517l17.942,3.284
								c11.373,2.081,22.849,1.793,34.114-0.855l9.2-2.198c-6.253-2.025-14.361-5.688-14.743-5.86
								c-0.563-0.256-0.979-0.755-1.132-1.355c-0.594-2.344-5.817-22.997-6.185-25.512c-1.188-8.115,0.803-16.638,5.6-23.993
								l4.328-6.637c1.928-2.956,2.695-6.404,2.158-9.708c-3.748-23.143-52.434-15.747-52.928-15.667
								c-0.065,0.011-0.133,0.015-0.198,0.02c-0.801,0.848-2.108,3.973-2.991,6.085c-1.034,2.475-2.104,5.031-3.271,6.815
								l-8.194,10.825l5.294,4.276c0.491,0.395,0.769,0.996,0.756,1.626l-0.387,18.198c-0.022,1.09,0.681,2.072,1.71,2.385
								l12.339,3.751c2.832,0.862,4.783,3.438,4.856,6.415l-0.749,17.194C1611.102,1123.247,1607.222,1126.972,1603.33,1129.517z
								 M1586.337,1064.197l0.001,0.002C1586.338,1064.199,1586.338,1064.199,1586.337,1064.197z"/>
						</g>
						<path d="M1597.976,999.48c11.808-1.104-2.647,11.643,40.671-2.721c17.25-5.721,9.137,15.008,13.616,13.533
							c16.54-5.436,15.972-5.267,24.201-3.404c5.449,1.233,9.308,11.104,8.55,18.604c-1.002,9.901-11.456,25.997-20.714,42.931
							c-4.792,8.77-13.885,9.93-25.454-2.336c-1.232-1.305,4.434-9.537,1.156-12.847c-8.521-8.602-11.571,5.061-18.321,1.168
							c-6.48-3.738-9.197-6.219-16.123-11.991c-8.38-6.986-21.455,4.987-26.823-11.305
							C1575.935,1022.613,1581.808,1000.988,1597.976,999.48z"/>
					</g>
				</g>
				<g>
					<g>
						<path fill="#FFFFFF" d="M1712.472,1757.004h-70.822v-257.771h-36.994v257.771h-70.822c-22.584,0-40.893,18.307-40.893,40.893
							v6.113h260.423v-6.113C1753.364,1775.311,1735.058,1757.004,1712.472,1757.004z"/>
						<path d="M1753.364,1806.043H1492.94c-1.124,0-2.035-0.909-2.035-2.033v-6.113c0-23.67,19.258-42.926,42.927-42.926h68.791
							v-255.738c0-1.123,0.908-2.033,2.033-2.033h36.992c1.124,0,2.034,0.909,2.034,2.033v255.738h68.791
							c23.667,0,42.926,19.255,42.926,42.926v6.113C1755.398,1805.134,1754.488,1806.043,1753.364,1806.043z M1494.974,1801.977
							h256.357v-4.08c0-21.428-17.432-38.858-38.857-38.858h-70.824c-1.124,0-2.034-0.91-2.034-2.034v-255.737h-32.925v255.737
							c0,1.123-0.91,2.034-2.034,2.034h-70.823c-21.427,0-38.858,17.431-38.858,38.858L1494.974,1801.977L1494.974,1801.977z"/>
					</g>
				</g>
				<g>
					<path fill="#FFFFFF" d="M1733.608,1225.048h-18.61c-49.624,0-92.553,34.879-103.157,83.812l-21.658,99.939
						c-5.068,23.388-25.585,40.058-49.302,40.058h-39.119c-20.45,0-37.028,16.734-37.028,37.376
						c0,20.644,16.578,37.378,37.028,37.378h63.539l-0.036,0.172h111.793c39.124,0,72.97-27.497,81.33-66.078l34.349-158.502
						C1800.995,1261.098,1772.248,1225.048,1733.608,1225.048z"/>
					<path d="M1677.057,1525.814h-111.791c-0.286,0-0.564-0.059-0.82-0.172h-62.685c-21.539,0-39.063-17.679-39.063-39.41
						s17.523-39.409,39.063-39.409h39.121c22.588,0,42.485-16.172,47.313-38.452l21.658-99.94
						c10.727-49.491,54.946-85.414,105.144-85.414h18.611c18.902,0,36.589,8.484,48.519,23.277
						c12.1,15.004,16.693,34.444,12.6,53.34l-34.35,158.502C1751.875,1497.351,1716.835,1525.814,1677.057,1525.814z
						 M1566.121,1521.748h110.937c37.878,0,71.246-27.115,79.343-64.476l34.35-158.501c3.833-17.687-0.463-35.885-11.788-49.925
						c-11.154-13.833-27.686-21.765-45.354-21.765h-18.61c-48.297,0-90.847,34.573-101.17,82.208l-21.657,99.94
						c-5.229,24.139-26.801,41.657-51.288,41.657h-39.121c-19.298,0-34.997,15.856-34.997,35.344
						c0,19.489,15.699,35.343,34.997,35.343h63.54C1565.587,1521.575,1565.865,1521.634,1566.121,1521.748z"/>
				</g>
			</g>
			<g>
				<g>
					<g>
						<g>
							<path d="M1216.387,1476.32c-11.635,53.299,34.505,199.099,44.179,234.631c1.267,4.655,5.524,7.886,10.381,7.886h42.987
								c5.979,0,10.81-4.828,10.756-10.766c-0.397-42.156-8.059-195.854,18.224-240.107c15.216-25.617,43.09-37.169,61.725-49.359
								c44.729-29.263,27.89-94.054,27.89-94.054l-168.95,100.285C1240.177,1428.341,1221.402,1453.357,1216.387,1476.32z"/>
							<path d="M1280.466,1341.314c0,0-147.482,1.318-193.985,56.728c-41.796,49.801,20.166,269.042,33.141,312.926
								c1.345,4.549,5.543,7.661,10.317,7.661h55.407c1.166,0,2.112-0.939,2.112-2.099v-232.303c0-14.637,2.87-6.789,15.259-14.722
								c17.364-11.116,48.861-1.677,92.264-1.355c137.833,1.023,115.634-128.739,115.634-128.739L1280.466,1341.314z"/>
						</g>
						<g>
							<polygon fill="#FFFFFF" points="1314.317,1719.047 1317.211,1756.667 1282.76,1756.841 1275.639,1719.307 							"/>
							<path d="M1282.76,1758.874c-0.976,0-1.814-0.695-1.997-1.653l-7.12-37.534c-0.114-0.593,0.043-1.204,0.427-1.669
								c0.383-0.467,0.953-0.738,1.556-0.743l38.68-0.263c0.002,0,0.009,0,0.013,0c1.063,0,1.946,0.818,2.028,1.876l2.892,37.62
								c0.044,0.565-0.148,1.12-0.531,1.535c-0.385,0.416-0.92,0.653-1.486,0.655l-34.45,0.175
								C1282.765,1758.874,1282.765,1758.874,1282.76,1758.874z M1278.092,1721.326l6.35,33.474l30.574-0.155l-2.581-33.554
								L1278.092,1721.326z"/>
						</g>
						<g>
							<polygon fill="#FFFFFF" points="1178.098,1719.047 1177.57,1756.667 1142.051,1756.841 1135.736,1719.307 							"/>
							<path d="M1142.051,1758.874c-0.993,0-1.84-0.718-2.005-1.695l-6.314-37.533c-0.099-0.588,0.065-1.188,0.45-1.646
								c0.383-0.456,0.946-0.72,1.544-0.725l42.359-0.262c0.561-0.038,1.073,0.214,1.455,0.603c0.387,0.387,0.6,0.912,0.59,1.459
								l-0.525,37.619c-0.017,1.109-0.916,2.001-2.023,2.006l-35.52,0.175C1142.058,1758.874,1142.056,1758.874,1142.051,1758.874z
								 M1138.138,1721.327l5.632,33.473l31.796-0.157l0.47-33.552L1138.138,1721.327z"/>
						</g>
						<g>
							<path fill="#FFFFFF" d="M1142.558,1752.04h33.038c2.343,0,4.453,1.394,5.344,3.545c2.93,7.073,8.897,23.604,8.094,39.29
								c-0.219,4.283-3.806,7.64-8.127,7.64h-96.942c-4.458,0-7.845-4.044-6.951-8.38c1.068-5.194,4.754-12.025,15.385-18.166
								c17.209-9.942,38.84-19.884,45.661-22.962C1139.473,1752.369,1141.004,1752.04,1142.558,1752.04z"/>
							<path d="M1180.908,1804.547h-96.943c-2.77,0-5.36-1.226-7.104-3.368c-1.711-2.099-2.382-4.815-1.838-7.455
								c1.073-5.21,4.782-12.826,16.359-19.516c17.427-10.069,39.492-20.19,45.84-23.052c1.686-0.763,3.48-1.149,5.336-1.149h33.038
								c3.18,0,6.016,1.884,7.223,4.801c2.757,6.657,9.079,23.897,8.245,40.169
								C1190.791,1800.344,1186.33,1804.547,1180.908,1804.547z M1142.558,1754.073c-1.272,0-2.507,0.266-3.66,0.788
								c-6.308,2.843-28.217,12.895-45.483,22.869c-8.127,4.696-13.11,10.51-14.408,16.816c-0.296,1.434,0.07,2.914,1.007,4.063
								c0.97,1.189,2.41,1.872,3.952,1.872h96.943c3.254,0,5.932-2.508,6.094-5.711c0.791-15.445-5.29-32.004-7.94-38.406
								c-0.576-1.392-1.938-2.291-3.466-2.291H1142.558z"/>
						</g>
						<g>
							<path fill="#FFFFFF" d="M1283.938,1752.04h33.038c2.343,0,4.452,1.394,5.344,3.545c2.93,7.073,8.897,23.604,8.094,39.29
								c-0.219,4.283-3.805,7.64-8.127,7.64h-96.942c-4.458,0-7.844-4.044-6.952-8.38c1.069-5.194,4.755-12.025,15.387-18.166
								c17.208-9.942,38.839-19.884,45.658-22.962C1280.853,1752.369,1282.384,1752.04,1283.938,1752.04z"/>
							<path d="M1322.288,1804.547h-96.943c-2.77,0-5.361-1.226-7.104-3.368c-1.712-2.099-2.383-4.815-1.838-7.455
								c1.073-5.212,4.782-12.826,16.36-19.516c17.428-10.069,39.492-20.19,45.841-23.052c1.686-0.763,3.48-1.149,5.333-1.149
								h33.037c3.181,0,6.017,1.884,7.224,4.801c2.759,6.654,9.081,23.889,8.247,40.169
								C1332.17,1800.344,1327.709,1804.547,1322.288,1804.547z M1283.938,1754.073c-1.271,0-2.505,0.266-3.66,0.788
								c-6.306,2.843-28.216,12.895-45.481,22.869c-8.129,4.696-13.113,10.51-14.411,16.816c-0.296,1.434,0.071,2.914,1.007,4.063
								c0.97,1.189,2.41,1.872,3.953,1.872h96.943c3.255,0,5.931-2.51,6.096-5.713c0.79-15.452-5.292-32.004-7.943-38.403
								c-0.575-1.393-1.938-2.292-3.467-2.292H1283.938L1283.938,1754.073z"/>
						</g>
					</g>
					<g>
						<g>
							<path fill="#FFFFFF" d="M1144.337,1268.939l-17.479-6.526c-7.411-2.767-15.527-2.676-22.854,0.325
								c-9.143,3.744-21.549,9.813-30.047,17.857c-2.134,2.02-0.823,5.716,2.051,5.716h67.519L1144.337,1268.939z"/>
							<path d="M1143.524,1288.345h-67.519c-2.126,0-3.944-1.251-4.747-3.265c-0.833-2.088-0.321-4.428,1.3-5.964
								c8.769-8.3,21.52-14.51,30.673-18.262c7.771-3.182,16.418-3.304,24.336-0.348l17.479,6.527c0.828,0.308,1.362,1.116,1.32,2
								l-0.812,17.372C1145.504,1287.491,1144.61,1288.345,1143.524,1288.345z M1115.821,1262.444
								c-3.761,0-7.508,0.724-11.048,2.176c-8.832,3.618-21.105,9.582-29.42,17.453c-0.49,0.462-0.484,1.08-0.314,1.502
								c0.103,0.264,0.368,0.703,0.969,0.703h65.577l0.651-13.953l-16.09-6.009
								C1122.799,1263.066,1119.304,1262.444,1115.821,1262.444z"/>
						</g>
						<g>
							<g>
								<path fill="#FFFFFF" d="M1441.88,1191.167c0,0,1.885-67.763-44.858-75.939c0.022-0.066,0.053-0.136,0.073-0.2l-49.508-2.797
									c0,0-31.819-4.403-61.129,20.823c-26.44,22.756-32.246,81.115-49.155,95.965c-14.659,12.878-77.762,29.618-94.291,33.847
									c-2.346,0.6-3.97,2.701-3.961,5.109l0.057,16.003h100.052c13.962,0,27.313-5.64,37.006-15.618
									c5.84-6.014,13.034-13.403,20.974-21.724c-0.097,5.148,0.47,13.664,4.096,23.153c7.31,19.139,3.819,40.813-10.186,55.83
									c-5.881,6.302-12.52,11.955-19.547,15.351c0,0,4.477,21.151,37.067,22.6c13.252,0.588,48.251,1.853,74.278,0.374
									c35.548-2.02,61.783-8.564,61.783-8.564L1441.88,1191.167z"/>
								<path d="M1354.263,1366.662c-19.78,0-38.65-0.744-45.784-1.063c-33.776-1.501-38.771-23.281-38.967-24.207
									c-0.192-0.916,0.263-1.846,1.105-2.254c6.084-2.938,12.46-7.953,18.944-14.908c13.258-14.213,17.004-34.796,9.774-53.718
									c-2.722-7.123-3.787-13.715-4.117-18.929c-6.013,6.272-11.521,11.94-16.234,16.791l-1.363,1.403
									c-10.021,10.314-24.04,16.232-38.462,16.232h-100.052c-1.12,0-2.03-0.905-2.034-2.026l-0.055-16.002
									c-0.013-3.344,2.248-6.258,5.492-7.086c37.796-9.667,82.196-23.518,93.449-33.403c7.097-6.231,12.454-21.492,18.127-37.646
									c7.458-21.239,15.912-45.309,31.043-58.333c29.666-25.535,61.399-21.485,62.736-21.296l49.346,2.78
									c0.399,0.022,0.781,0.164,1.096,0.397c46.415,9.003,45.648,75.541,45.606,77.775l2.752,164.175
									c0.016,0.945-0.623,1.777-1.541,2.008c-0.265,0.064-26.83,6.613-62.161,8.619
									C1374.048,1366.48,1364.043,1366.662,1354.263,1366.662z M1273.938,1342.013c1.674,4.605,8.824,18.375,34.721,19.524
									c10.613,0.471,47.316,1.889,74.074,0.377c30.068-1.709,53.688-6.733,59.838-8.139l-2.725-162.574c0-0.03,0-0.061,0-0.089
									c0.019-0.663,1.282-66.105-43.176-73.883c-0.225-0.039-0.438-0.117-0.637-0.227l-48.562-2.744
									c-0.466-0.06-31.472-3.951-59.688,20.335c-14.308,12.314-22.571,35.841-29.86,56.599
									c-6.107,17.396-11.386,32.421-19.278,39.354c-14.844,13.038-76.564,29.54-95.127,34.288
									c-1.438,0.368-2.437,1.656-2.434,3.134l0.049,13.976h98.026c13.33,0,26.285-5.467,35.544-15.001l1.363-1.401
									c5.58-5.742,12.274-12.629,19.6-20.31c0.578-0.609,1.473-0.798,2.246-0.476c0.774,0.319,1.274,1.08,1.26,1.918
									c-0.1,5.225,0.508,13.35,3.964,22.39c7.786,20.381,3.725,42.585-10.599,57.941
									C1286.242,1333.751,1279.996,1338.792,1273.938,1342.013z"/>
							</g>
							<path d="M1294.98,1254.419c-0.495,0-0.992-0.179-1.383-0.542c-0.822-0.764-0.869-2.052-0.105-2.875
								c12.948-13.934,22.983-30.001,29.824-47.747c0.402-1.048,1.585-1.573,2.627-1.166c1.048,0.403,1.571,1.58,1.166,2.627
								c-7.028,18.232-17.337,34.739-30.639,49.056C1296.07,1254.201,1295.525,1254.419,1294.98,1254.419z"/>
						</g>
					</g>
					<g>
						<g>
							<path fill="#FFFFFF" d="M1318.073,1026.462c0,0-1.853,16.554-10.152,25.752c-0.635,0.704-0.779,1.72-0.293,2.532l3.423,5.716
								c0.296,0.497,0.54,1.021,0.726,1.568l5.679,16.697c0.519,1.525,1.893,2.614,3.509,2.748
								c3.553,0.295,12.558-1.083,13.292,1.285c0.82,2.647,0.188,24.089-0.131,33.419c-0.087,2.479,1.657,4.644,4.097,5.094
								l19.218,3.543c8.663,1.6,17.564,0.535,25.554-2.984c2.594-1.142,3.75-4.181,2.55-6.748
								c-4.392-9.389-14.013-31.802-12.742-45.517l8.544-23.897c-0.213-11.453-9.776-20.544-21.309-20.256L1318.073,1026.462z"/>
							<path d="M1365.404,1127.583c-2.776,0-5.561-0.254-8.333-0.765l-19.219-3.545c-3.458-0.639-5.881-3.651-5.758-7.161
								c0.704-20.732,0.603-30.251,0.282-32.422c-1.215-0.45-4.975-0.304-7.057-0.222c-1.715,0.069-3.336,0.133-4.523,0.035
								c-2.417-0.201-4.483-1.817-5.269-4.12l-5.675-16.697c-0.144-0.413-0.326-0.81-0.547-1.178l-3.423-5.717
								c-0.936-1.567-0.726-3.553,0.526-4.94c7.771-8.611,9.627-24.456,9.644-24.615c0.113-1.011,0.956-1.781,1.97-1.808
								l41.961-1.046c6.236-0.137,11.981,2.099,16.412,6.339c4.387,4.203,6.868,9.855,6.98,15.912
								c0.005,0.246-0.036,0.491-0.119,0.723l-8.453,23.649c-1.09,13.306,8.422,35.327,12.58,44.218
								c0.811,1.735,0.889,3.678,0.215,5.468c-0.675,1.803-2.02,3.226-3.787,4.004
								C1377.957,1126.274,1371.708,1127.583,1365.404,1127.583z M1328.958,1079.302c3.665,0,6.501,0.479,7.239,2.855
								c0.67,2.163,0.656,13.634-0.042,34.093c-0.049,1.483,0.975,2.755,2.438,3.025l19.215,3.543
								c8.253,1.521,16.681,0.536,24.363-2.845c0.757-0.334,1.332-0.941,1.621-1.709c0.285-0.759,0.252-1.583-0.092-2.317
								c-4.326-9.248-14.247-32.299-12.928-46.564c0.018-0.172,0.056-0.339,0.112-0.498l8.413-23.54
								c-0.184-4.826-2.205-9.319-5.718-12.683c-3.643-3.487-8.454-5.342-13.494-5.212l-40.239,1.003
								c-0.739,4.638-3.322,17.257-10.419,25.125l3.366,5.841c0.365,0.612,0.671,1.269,0.904,1.957l5.677,16.699
								c0.264,0.77,0.951,1.311,1.753,1.376c0.936,0.082,2.438,0.02,4.028-0.044
								C1326.484,1079.354,1327.766,1079.302,1328.958,1079.302z"/>
						</g>
						<path d="M1314.19,1020.602c-1.707,2.607-0.679,6.121,2.164,7.424l1.719,0.788l32.963,16.241
							c0.835,0.411,1.843,0.356,2.596-0.189c1.365-0.986,3.82-2.205,6.275-0.638c3.426,2.187,4.121,13.86-4.682,16.958
							c-1.16,0.407-1.802,1.636-1.333,2.767c0.508,1.225,1.262,2.853,2.294,4.625c7.769,13.357,26.976,14.152,36.232,1.764
							c6.82-9.127,13.068-24.138,5.378-44.662C1385.735,993.489,1336.472,986.563,1314.19,1020.602z"/>
						<path d="M1394.465,1013.138c0,0,14.383-17.068,35.432-10.45c21.05,6.62,22.117,42.237,24.558,64.441
							c8.595,78.202,27.688,106.67,33.854,113.732c6.842,7.839-46.952,2.521-65.078-3.657c-52.24-17.806-24.731-68.1-22.276-77.155
							c2.456-9.058,21.927-59.741-2.28-65.663l-12.277-10.45L1394.465,1013.138z"/>
						<g>
							<path fill="#FFFFFF" d="M1401.081,1037.551l-0.258,0.094c-2.294,0.837-4.834-0.331-5.678-2.607l-6.416-17.338
								c-0.843-2.277,0.334-4.8,2.626-5.637l0.258-0.094c2.294-0.837,4.835,0.331,5.678,2.608l6.417,17.337
								C1404.55,1034.19,1403.374,1036.714,1401.081,1037.551z"/>
							<path d="M1399.307,1039.947c-2.63,0-5.107-1.61-6.068-4.203l-6.415-17.341c-0.596-1.605-0.527-3.348,0.193-4.904
								c0.723-1.563,2.014-2.754,3.64-3.348l0.266-0.095c3.327-1.219,7.047,0.495,8.276,3.813l6.415,17.338
								c0.597,1.607,0.527,3.352-0.194,4.908c-0.722,1.563-2.015,2.751-3.638,3.344l-0.259,0.094
								C1400.792,1039.822,1400.044,1039.947,1399.307,1039.947z M1393.138,1013.731c-0.275,0-0.557,0.048-0.829,0.148l-0.264,0.095
								c-0.594,0.217-1.072,0.655-1.339,1.231c-0.262,0.568-0.288,1.202-0.071,1.788l6.415,17.34
								c0.455,1.225,1.834,1.852,3.074,1.401l0.259-0.094c0-0.002,0.002-0.002,0.002-0.002c0.6-0.219,1.078-0.655,1.344-1.229
								c0.262-0.568,0.287-1.203,0.07-1.791l-6.414-17.337C1395.03,1014.325,1394.112,1013.731,1393.138,1013.731z"/>
						</g>
					</g>
				</g>
				<g>
					<g>
						<path fill="#FFFFFF" d="M1413.515,1757.004h-70.823v-257.771h-36.993v257.771h-70.823c-22.584,0-40.892,18.307-40.892,40.893
							v6.113h260.424v-6.113C1454.406,1775.311,1436.099,1757.004,1413.515,1757.004z"/>
						<path d="M1454.406,1806.043h-260.425c-1.123,0-2.034-0.909-2.034-2.033v-6.113c0-23.67,19.257-42.926,42.927-42.926h68.791
							v-255.738c0-1.123,0.909-2.033,2.033-2.033h36.992c1.123,0,2.034,0.909,2.034,2.033v255.738h68.79
							c23.669,0,42.927,19.255,42.927,42.926v6.113C1456.44,1805.134,1455.531,1806.043,1454.406,1806.043z M1196.015,1801.977
							h256.359v-4.08c0-21.428-17.432-38.858-38.859-38.858h-70.823c-1.122,0-2.033-0.91-2.033-2.034v-255.737h-32.926v255.737
							c0,1.123-0.91,2.034-2.033,2.034h-70.824c-21.427,0-38.859,17.431-38.859,38.858L1196.015,1801.977L1196.015,1801.977z"/>
					</g>
				</g>
				<g>
					<g>
						<g>
							<path fill="#FFFFFF" d="M1434.651,1225.048h-18.611c-49.624,0-92.553,34.879-103.158,83.812l-21.657,99.939
								c-5.068,23.388-25.586,40.058-49.303,40.058h-39.119c-20.45,0-37.027,16.734-37.027,37.376
								c0,20.644,16.577,37.378,37.027,37.378h63.54l-0.037,0.172H1378.1c39.124,0,72.97-27.497,81.33-66.078l34.351-158.502
								C1502.036,1261.098,1473.291,1225.048,1434.651,1225.048z"/>
							<path d="M1378.099,1525.814h-111.792c-0.286,0-0.563-0.059-0.82-0.172h-62.684c-21.539,0-39.063-17.679-39.063-39.41
								s17.523-39.409,39.063-39.409h39.12c22.586,0,42.485-16.172,47.314-38.452l21.657-99.94
								c10.726-49.491,54.947-85.414,105.144-85.414h18.61c18.903,0,36.589,8.484,48.52,23.277
								c12.102,15.004,16.692,34.444,12.6,53.34l-34.35,158.502C1452.918,1497.351,1417.876,1525.814,1378.099,1525.814z
								 M1267.162,1521.748H1378.1c37.878,0,71.246-27.115,79.343-64.476l34.351-158.501c3.833-17.687-0.464-35.885-11.79-49.925
								c-11.155-13.833-27.686-21.765-45.354-21.765h-18.611c-48.296,0-90.845,34.573-101.168,82.208l-21.657,99.94
								c-5.231,24.139-26.803,41.657-51.29,41.657h-39.12c-19.298,0-34.996,15.856-34.996,35.344
								c0,19.489,15.697,35.343,34.996,35.343h63.54C1266.628,1521.575,1266.906,1521.634,1267.162,1521.748z"/>
						</g>
					</g>
				</g>
			</g>
		</g>
		<path d="M1815.796,1199.99c-0.151,0-0.302-0.017-0.455-0.054c-1.096-0.25-1.779-1.338-1.528-2.434
			c32.684-142.915,6.29-253.668-21.608-321.415c-30.238-73.429-68.712-113.579-69.098-113.975c-0.782-0.807-0.762-2.093,0.044-2.875
			c0.806-0.783,2.093-0.762,2.876,0.044c0.389,0.401,39.317,40.988,69.862,115.076c28.172,68.319,54.832,180,21.889,324.05
			C1817.559,1199.352,1816.722,1199.99,1815.796,1199.99z"/>
		<path d="M1724.562,1405.67c-0.241,0-0.484-0.042-0.724-0.134c-1.049-0.397-1.576-1.57-1.178-2.621
			c61.685-162.2,72.92-268.472,71.482-329.063c-1.556-65.583-17.878-93.197-18.042-93.467c-0.583-0.96-0.278-2.211,0.68-2.794
			c0.955-0.581,2.207-0.283,2.792,0.676c0.691,1.132,16.96,28.483,18.624,94.932c1.526,61.009-9.68,167.984-71.734,331.163
			C1726.153,1405.172,1725.382,1405.67,1724.562,1405.67z"/>
		<g>
			<path d="M472.267,379.738c-0.53,0-1.058-0.207-1.458-0.616c-0.782-0.804-0.763-2.091,0.041-2.875
				c1.375-1.338,139.26-134.18,289.427-162.446c1.108-0.197,2.166,0.518,2.373,1.623c0.208,1.102-0.519,2.166-1.622,2.372
				c-148.946,28.038-285.977,160.035-287.343,161.366C473.29,379.546,472.778,379.738,472.267,379.738z"/>
			<path d="M396.938,413.277c-0.471,0-0.941-0.161-1.324-0.491c-0.853-0.73-0.95-2.016-0.219-2.867
				c100.807-117.407,205.579-159.067,206.626-159.474c1.045-0.414,2.226,0.109,2.63,1.157c0.407,1.047-0.111,2.223-1.157,2.63
				c-1.038,0.405-104.913,41.749-205.014,158.335C398.078,413.036,397.509,413.277,396.938,413.277z"/>
		</g>
	</g>
</g>
</svg>
