<?xml version="1.0" encoding="utf-8"?>
<!-- Generator: Adobe Illustrator 16.0.0, SVG Export Plug-In . SVG Version: 6.00 Build 0)  -->
<!DOCTYPE svg PUBLIC "-//W3C//DTD SVG 1.1//EN" "https://www.w3.org/Graphics/SVG/1.1/DTD/svg11.dtd">
<svg version="1.1" id="Layer_1" xmlns="https://www.w3.org/2000/svg" xmlns:xlink="https://www.w3.org/1999/xlink" x="0px" y="0px"
	 width="149.167px" height="172.243px" viewBox="0 0 149.167 172.243" enable-background="new 0 0 149.167 172.243"
	 xml:space="preserve">
<polygon fill="#1B1A1A" points="149.167,129.183 74.583,172.243 0,129.183 0,43.061 74.583,0 149.167,43.061 "/>
<g enable-background="new    ">
	<path fill="#FFFFFF" d="M95.669,60.701c6.834,6.834,10.251,15.085,10.251,24.752s-3.417,17.918-10.251,24.751
		c-6.834,6.834-15.084,10.251-24.751,10.251H47.417V50.451h23.501C80.585,50.451,88.835,53.867,95.669,60.701z M83.569,100.803
		c4.367-4.1,6.551-9.217,6.551-15.351s-2.184-11.251-6.551-15.352c-4.366-4.1-9.684-6.15-15.951-6.15h-5.2v43.003h5.2
		C73.885,106.954,79.203,104.904,83.569,100.803z"/>
</g>
</svg>
