<?xml version="1.0" encoding="utf-8"?>
<!-- Generator: Adobe Illustrator 16.0.0, SVG Export Plug-In . SVG Version: 6.00 Build 0)  -->
<!DOCTYPE svg PUBLIC "-//W3C//DTD SVG 1.1//EN" "https://www.w3.org/Graphics/SVG/1.1/DTD/svg11.dtd">
<svg version="1.1" xmlns="https://www.w3.org/2000/svg" xmlns:xlink="https://www.w3.org/1999/xlink" x="0px" y="0px" width="2100px"
	 height="2100px" viewBox="0 0 2100 2100" enable-background="new 0 0 2100 2100" xml:space="preserve">
<g id="Background">
</g>
<g id="Illustration">
	<g id="Online_workshop_1_">
		<g>
			<g>
				<g>
					<g>
						<path fill="#FFFFFF" d="M1853.932,1439.849H523.139c-37.266,0-67.474-30.209-67.474-67.475V336.671
							c0-37.265,30.208-67.475,67.474-67.475h1330.793c37.266,0,67.475,30.21,67.475,67.475v1035.703
							C1921.406,1409.64,1891.197,1439.849,1853.932,1439.849z"/>
						<path d="M1853.932,1442.004H523.139c-38.393,0-69.626-31.236-69.626-69.63V336.672c0-38.394,31.233-69.629,69.626-69.629
							h1330.793c38.396,0,69.631,31.235,69.631,69.629v1035.702C1923.563,1410.768,1892.327,1442.004,1853.932,1442.004z
							 M523.139,271.351c-36.018,0-65.319,29.303-65.319,65.321v1035.702c0,36.019,29.302,65.321,65.319,65.321h1330.793
							c36.02,0,65.322-29.303,65.322-65.321V336.672c0-36.019-29.303-65.321-65.322-65.321H523.139z"/>
					</g>
					<path d="M1921.743,415.59H456.003c-1.189,0-2.154-0.964-2.154-2.153v-76.597c0-38.486,31.312-69.797,69.798-69.797h1330.454
						c38.487,0,69.798,31.311,69.798,69.797v76.597C1923.898,414.626,1922.936,415.59,1921.743,415.59z M458.157,411.282H1919.59
						v-74.443c0-36.111-29.378-65.489-65.489-65.489H523.646c-36.112,0-65.489,29.378-65.489,65.489V411.282z"/>
					<path d="M1754.891,1333.449H622.182c-32.01,0-58.05-26.041-58.05-58.05V571.813c0-32.009,26.04-58.049,58.05-58.049h1132.709
						c32.009,0,58.051,26.04,58.051,58.049v703.586C1812.941,1307.408,1786.899,1333.449,1754.891,1333.449z M622.182,518.073
						c-29.635,0-53.742,24.108-53.742,53.741v703.586c0,29.633,24.107,53.741,53.742,53.741h1132.709
						c29.634,0,53.742-24.108,53.742-53.741V571.813c0-29.633-24.108-53.741-53.742-53.741H622.182z"/>
				</g>
				<g>
					<circle cx="1685.626" cy="343.884" r="24.622"/>
					<circle cx="1766.13" cy="343.884" r="24.622"/>
					<circle cx="1846.635" cy="343.884" r="24.623"/>
				</g>
			</g>
			<g>
				<g>
					<g>
						<path fill="#FFFFFF" d="M1021.795,827.416H223.48c-24.978,0-45.225-20.247-45.225-45.224V210.8
							c0-24.978,20.247-45.225,45.225-45.225h798.314c24.978,0,45.226,20.247,45.226,45.225v571.392
							C1067.021,807.169,1046.772,827.416,1021.795,827.416z"/>
						<path d="M1021.795,829.57H223.48c-26.124,0-47.378-21.254-47.378-47.377V210.8c0-26.125,21.254-47.378,47.378-47.378h798.314
							c26.125,0,47.378,21.253,47.378,47.378v571.393C1069.173,808.316,1047.92,829.57,1021.795,829.57z M223.48,167.729
							c-23.749,0-43.071,19.321-43.071,43.07v571.393c0,23.748,19.322,43.069,43.071,43.069h798.314
							c23.749,0,43.07-19.321,43.07-43.069V210.8c0-23.749-19.321-43.07-43.07-43.07H223.48z"/>
					</g>
				</g>
				<g>
					<path d="M981.064,249.104H829.688c-6.255,0-11.326-5.072-11.326-11.328c0-6.256,5.071-11.328,11.326-11.328h151.377
						c6.256,0,11.328,5.072,11.328,11.328C992.393,244.032,987.32,249.104,981.064,249.104z"/>
					<path d="M1013.58,297.609H796.79c-6.256,0-11.328-5.072-11.328-11.328c0-6.256,5.072-11.328,11.328-11.328h216.79
						c6.255,0,11.327,5.072,11.327,11.328C1024.907,292.538,1019.835,297.609,1013.58,297.609z"/>
					<path d="M1014.133,388.789H797.508c-6.256,0-11.326-5.072-11.326-11.328s5.07-11.328,11.326-11.328h216.625
						c6.257,0,11.328,5.072,11.328,11.328S1020.39,388.789,1014.133,388.789z"/>
					<path d="M1013.413,432.587H801.502c-6.255,0-11.326-5.072-11.326-11.329c0-6.256,5.071-11.328,11.326-11.328h211.911
						c6.257,0,11.328,5.071,11.328,11.328C1024.741,427.515,1019.67,432.587,1013.413,432.587z"/>
					<path d="M1014.846,477.105H802.938c-6.258,0-11.329-5.071-11.329-11.328c0-6.257,5.071-11.329,11.329-11.329h211.908
						c6.257,0,11.329,5.071,11.329,11.329C1026.175,472.034,1021.103,477.105,1014.846,477.105z"/>
					<path d="M1014.128,520.902h-216.62c-6.256,0-11.326-5.072-11.326-11.328c0-6.256,5.07-11.329,11.326-11.329h216.62
						c6.257,0,11.328,5.072,11.328,11.329C1025.456,515.83,1020.385,520.902,1014.128,520.902z"/>
					<path d="M1013.408,566.143H796.79c-6.256,0-11.328-5.07-11.328-11.328c0-6.256,5.072-11.327,11.328-11.327h216.618
						c6.257,0,11.328,5.07,11.328,11.327S1019.665,566.143,1013.408,566.143z"/>
					<path d="M876.089,345.146h-78.897c-6.256,0-11.327-5.071-11.327-11.328c0-6.255,5.071-11.327,11.327-11.327h78.897
						c6.255,0,11.327,5.072,11.327,11.327C887.416,340.074,882.344,345.146,876.089,345.146z"/>
					<path d="M1014.666,345.146h-83.257c-6.257,0-11.328-5.071-11.328-11.328c0-6.255,5.071-11.327,11.328-11.327h83.257
						c6.255,0,11.327,5.071,11.327,11.327C1025.993,340.074,1020.921,345.146,1014.666,345.146z"/>
				</g>
				<g>
					<path d="M450.818,602.221H237.306c-6.257,0-11.328-5.072-11.328-11.328c0-6.256,5.071-11.328,11.328-11.328h213.513
						c6.256,0,11.327,5.072,11.327,11.328C462.146,597.148,457.074,602.221,450.818,602.221z"/>
					<path d="M653.506,601.501H490.044c-6.258,0-11.328-5.073-11.328-11.328c0-6.256,5.07-11.329,11.328-11.329h163.462
						c6.257,0,11.33,5.072,11.33,11.329C664.836,596.428,659.763,601.501,653.506,601.501z"/>
					<path d="M387.075,554.982H236.587c-6.257,0-11.328-5.071-11.328-11.328c0-6.256,5.071-11.328,11.328-11.328h150.488
						c6.256,0,11.327,5.071,11.327,11.328C398.402,549.911,393.331,554.982,387.075,554.982z"/>
				</g>
				<path d="M654.066,797.183H240.485c-9.898,0-17.951-8.053-17.951-17.95V648.556c0-9.897,8.053-17.95,17.951-17.95h413.581
					c9.898,0,17.95,8.053,17.95,17.95v130.677C672.017,789.13,663.965,797.183,654.066,797.183z M240.485,634.914
					c-7.523,0-13.644,6.12-13.644,13.642v130.677c0,7.522,6.12,13.641,13.644,13.641h413.581c7.521,0,13.642-6.119,13.642-13.641
					V648.556c0-7.522-6.12-13.642-13.642-13.642H240.485z"/>
				<path d="M1017.383,797.18h-295.83c-9.898,0-17.95-8.053-17.95-17.95V648.553c0-9.897,8.052-17.951,17.95-17.951h295.83
					c9.896,0,17.95,8.054,17.95,17.951V779.23C1035.333,789.127,1027.278,797.18,1017.383,797.18z M721.553,634.91
					c-7.521,0-13.643,6.12-13.643,13.643V779.23c0,7.522,6.122,13.642,13.643,13.642h295.83c7.521,0,13.642-6.12,13.642-13.642
					V648.553c0-7.522-6.12-13.643-13.642-13.643H721.553z"/>
				<path d="M739.505,476.261H241.937c-9.518,0-17.236-7.716-17.236-17.233V242.879c0-9.518,7.719-17.234,17.236-17.234h497.568
					c9.52,0,17.234,7.716,17.234,17.234v216.148C756.739,468.545,749.024,476.261,739.505,476.261z"/>
			</g>
			<g>
				<path d="M1759.76,1330.873c-2.064-10.77-4.025-18.766-5.802-26.347c-13.146-56.055-27.254-101.757-37.556-132.571
					l-27.94-101.803l-344.688,62.673c0,0-11.161,75.27-33.929,198.048H1759.76z"/>
				<g>
					<path d="M1388.327,1318.021c37.837,0,62.456-41.223,45.533-76.258c-3.883-8.033-7.835-16.133-11.724-23.982
						c-29.078-58.692-112.301-45.879-122.671,19.205c-0.182,1.14-2.502,2.292-2.654,3.454
						c-5.371,41.183,26.314,77.581,66.453,77.581H1388.327z"/>
					<g>
						<g>
							<g>
								<path fill="#FFFFFF" d="M1861.9,856.521c0-144.701-28.104-211.509-224.945-265.621
									c-50.004-13.746-123.694-19.517-195.124-11.479c-198.902,2.455-274.914,91.202-344.545,89.003
									C1020.61,666,956.931,566.457,956.931,566.457c-25.376-27.545-52.287-13.608-66.693-5.413
									c-17.251,9.813-24.619,32.772-27.73,48.885c-2.011,10.404-0.24,21.201,4.883,30.372
									c25.417,45.524,114.726,195.088,197.367,207.397c65.571,9.767,196.983-26.734,256.859-38.299
									c42.212,147.397-24.824,431.009-24.824,431.009c50.062-35.851,217.721,10.375,325.172,51.21
									c53.726,20.417,101.957,9.025,137.174-11.129c35.218-20.152-27.156-228.315-27.156-228.315S1861.9,982.682,1861.9,856.521z"
									/>
								<path d="M1679.264,1304.643c-17.876,0.001-37.345-3.137-58.066-11.011c-95.853-36.427-271.777-88.262-323.152-51.473
									c-0.727,0.522-1.71,0.538-2.452,0.037c-0.746-0.501-1.104-1.41-0.897-2.284c0.666-2.817,65.855-282.312,25.385-428.019
									c-12.732,2.507-28.299,6.016-46.184,10.047c-66.616,15.014-157.853,35.574-209.456,27.889
									c-83.53-12.441-173.384-162.717-198.933-208.478c-5.397-9.667-7.214-20.971-5.115-31.831
									c3.362-17.414,11.085-40.283,28.779-50.348c12.561-7.146,41.976-23.881,69.343,5.826c0.086,0.093,0.163,0.192,0.229,0.298
									c0.632,0.986,63.962,98.615,138.609,100.974c26.179,0.837,53.617-11.601,88.379-27.335
									c56.079-25.384,132.881-60.147,256.071-61.668c67.163-7.568,142.24-3.146,195.721,11.556
									c97.613,26.833,155.418,57.555,187.435,99.612c32.446,42.627,39.096,98.023,39.096,168.086
									c0,65.897-35.662,116.118-65.575,146.644c-28.356,28.933-57.079,46.132-63.945,50.048
									c2.74,9.332,16.368,56.505,26.34,105.129c15.063,73.42,14.837,115.146-0.666,124.019
									C1740.237,1293.787,1712.511,1304.643,1679.264,1304.643z M1354.094,1225.479c76.765,0,195.736,36.423,268.635,64.126
									c57.688,21.921,105.439,6.125,135.337-10.984c27.674-15.836-10.938-168.387-28.148-225.83
									c-0.294-0.981,0.146-2.033,1.047-2.517c1.288-0.69,128.782-70.368,128.782-193.753
									c0-137.407-22.034-208.201-223.359-263.545c-52.988-14.565-127.445-18.939-194.312-11.416
									c-122.507,1.524-198.835,36.072-254.566,61.3c-35.268,15.962-63.072,28.579-90.29,27.716
									c-76.106-2.404-138.14-96.806-141.997-102.795c-22.033-23.791-44.672-15.813-63.919-4.864
									c-16.27,9.254-23.488,30.895-26.68,47.421c-1.907,9.863-0.256,20.131,4.646,28.913
									c25.308,45.328,114.221,194.165,195.808,206.318c50.813,7.571,141.589-12.891,207.872-27.83
									c18.842-4.247,35.112-7.914,48.26-10.454c1.074-0.208,2.171,0.448,2.477,1.523c38.777,135.39-14.919,387.995-23.636,427.001
									C1313.055,1228.559,1331.805,1225.479,1354.094,1225.479z"/>
							</g>
							<path d="M915.59,660.059c-22.171,0-36.551-24.543-37.155-25.596c-0.593-1.03-0.239-2.346,0.792-2.939
								c1.027-0.593,2.347-0.24,2.941,0.791c0.136,0.238,14.032,23.771,33.815,23.434c15.241-0.233,30.33-14.053,44.845-41.077
								c0.562-1.048,1.867-1.442,2.916-0.878c1.05,0.562,1.441,1.869,0.879,2.916c-15.316,28.516-31.665,43.099-48.593,43.347
								C915.884,660.058,915.736,660.059,915.59,660.059z"/>
						</g>
						<path d="M1553.196,989.584c-0.815,0-1.594-0.463-1.957-1.25c-0.502-1.079-0.03-2.36,1.049-2.86
							c73.03-33.783,108.427-83.358,125.26-118.998c18.257-38.654,19.247-69.736,19.254-70.045c0.028-1.17,0.987-2.101,2.153-2.101
							c0.016,0,0.036,0,0.055,0.001c1.188,0.03,2.128,1.018,2.1,2.205c-0.031,1.295-0.991,32.142-19.575,71.584
							c-17.126,36.349-53.135,86.893-127.437,121.263C1553.806,989.52,1553.498,989.584,1553.196,989.584z"/>
						<path d="M1585.476,1091.08c-1.179,0-2.139-0.947-2.153-2.129c-0.016-1.189,0.938-2.166,2.13-2.18
							c89.548-1.064,148.613-34.349,149.199-34.685c1.027-0.593,2.346-0.235,2.939,0.796c0.592,1.033,0.235,2.35-0.797,2.94
							c-0.596,0.342-60.635,34.178-151.292,35.257C1585.493,1091.08,1585.484,1091.08,1585.476,1091.08z"/>
					</g>
					<g>
						<path fill="#FFFFFF" d="M1502.568,1083.223c0,0,18.346,1.968,54.65-7.124c27.443-6.872,19.341-95.942-14.034-71.818
							c-27.869,20.145-44.172,22.764-44.172,22.764l-26.873-13.391c-10.548-5.254-21.863-8.705-33.494-10.076
							c-46.316-5.458-43.533,5.241-43.533,5.241c-1.989,10.811,1.884,12.448,10.389,16.024l36.23,15.228
							c5.029,2.114,6.175,8.956,2.127,12.699c-6.293,5.816-13.553,10.401-21.434,13.512c-14.286,5.636-39.181,14.703-64.837,20.506
							c-12.062,2.728-15.889,17.675-4.769,23.21l79.985,5.894c20.269,1.494,40.264-5.54,55.455-19.513L1502.568,1083.223z"/>
						<path d="M1438.066,1118.24c-1.806,0-3.613-0.067-5.421-0.201l-79.981-5.893c-0.28-0.021-0.552-0.096-0.802-0.221
							c-5.517-2.746-8.396-7.84-7.698-13.627c0.789-6.569,5.992-12.039,12.948-13.613c26.091-5.9,51.624-15.32,64.52-20.408
							c7.645-3.016,14.626-7.418,20.755-13.08c1.39-1.285,2.014-3.181,1.68-5.079c-0.329-1.873-1.485-3.354-3.17-4.062
							l-36.231-15.229c-8.342-3.508-13.88-5.835-11.729-18.076c-0.053-0.812,0.094-2.26,1.415-3.775
							c4.609-5.288,19.594-6.479,44.546-3.538c11.785,1.39,23.291,4.85,34.204,10.288l26.208,13.059
							c3.237-0.733,18.618-4.906,42.612-22.25c8.886-6.42,15.523-4.855,19.528-2.409c12.104,7.39,16.479,32.388,13.593,51.312
							c-2.261,14.812-8.566,24.563-17.3,26.751c-32.007,8.014-50.089,7.533-54.41,7.256l-13.614,12.519
							C1475.536,1111.005,1456.968,1118.24,1438.066,1118.24z M1353.419,1107.881l79.543,5.863
							c19.551,1.445,39.178-5.467,53.843-18.951l14.305-13.156c0.457-0.419,1.072-0.621,1.686-0.557
							c0.183,0.021,18.492,1.796,53.9-7.07c6.969-1.745,12.103-10.21,14.087-23.222c2.691-17.634-1.318-40.722-11.577-46.984
							c-4.2-2.566-9.17-1.82-14.758,2.224c-27.963,20.211-44.406,23.034-45.094,23.144c-0.446,0.072-0.899,0.002-1.303-0.199
							l-26.872-13.39c-10.465-5.215-21.496-8.534-32.785-9.864c-32.794-3.867-39.516,0.621-40.794,2.089
							c-0.017,0.019-0.402,0.469-0.402,0.469c0.081,0.305,0.091,0.623,0.035,0.932c-1.68,9.116,0.604,10.076,9.103,13.648
							l36.231,15.229c3.017,1.268,5.164,3.992,5.742,7.287c0.59,3.347-0.528,6.704-2.989,8.979
							c-6.53,6.036-13.964,10.721-22.105,13.932c-15.894,6.272-40.102,14.939-65.15,20.605c-5.986,1.354-9.146,5.96-9.623,9.924
							C1347.979,1102.644,1349.79,1105.929,1353.419,1107.881z"/>
					</g>
					<g>
						<g>
							<path fill="#FFFFFF" d="M735.079,429.477c1.753-5.295,7.009-8.405,12.267-7.248c14.689,3.233,90.306,19.891,104.409,23.095
								c14.104,3.203,14.669,18.909,22.701,33.289c6.985,12.502,31.029,58.32,57.229,90.247c7.893,9.618,8.992,23.414,2.854,34.334
								c-3.524,6.271-8.008,12.432-13.321,16.062c-13.668,9.338-23.944,20.474-51.392-45.2c-1.676-4.011-4.488-7.446-8.12-9.838
								c-5.109-3.365-13.146-9.474-20.998-18.782c0,0-45.987,56.146-57.74-57.86c-1.045-10.137,3.471-20.006,12.002-24.992
								c0.68-0.397,1.394-0.795,2.144-1.19l-55.092-17.667C736.259,441.877,733.111,435.417,735.079,429.477z"/>
							<path d="M906.461,628.531c-1.18,0-2.394-0.163-3.646-0.527c-10.196-2.968-20.655-18.853-34.977-53.119
								c-1.527-3.655-4.057-6.723-7.317-8.869c-5.044-3.322-12.438-8.956-19.841-17.32c-4.404,4.644-16.671,15.814-29.672,11.911
								c-15.528-4.663-25.683-29.161-30.184-72.813c-1.063-10.311,3.25-20.184,11.103-25.804l-50.563-16.215
								c-3.272-1.049-5.951-3.354-7.545-6.49c-1.638-3.221-1.925-7.042-0.785-10.486v-0.001c2.1-6.337,8.457-10.063,14.775-8.674
								c24.65,5.427,91.463,20.154,104.424,23.099c10.95,2.487,14.574,11.76,18.41,21.577c1.64,4.2,3.336,8.541,5.693,12.76
								c0.766,1.371,1.736,3.141,2.891,5.247c9.251,16.878,30.913,56.403,54.123,84.686c8.422,10.263,9.653,25.034,3.066,36.756
								c-4.379,7.79-9.084,13.438-13.985,16.785l-1.801,1.246C916.206,625.363,911.661,628.531,906.461,628.531z M840.707,543.28
								c0.635,0,1.238,0.28,1.647,0.765c7.6,9.011,15.362,14.965,20.537,18.373c3.977,2.62,7.062,6.356,8.923,10.806
								c13.396,32.056,23.629,48.148,32.202,50.644c4.797,1.397,9.134-1.625,14.152-5.121l1.834-1.27
								c4.35-2.971,8.606-8.131,12.657-15.338c5.725-10.186,4.665-23.01-2.64-31.913c-23.464-28.591-45.262-68.363-54.57-85.347
								c-1.149-2.094-2.113-3.854-2.874-5.216c-2.501-4.478-4.252-8.958-5.946-13.293c-3.704-9.478-6.626-16.963-15.352-18.945
								c-12.948-2.941-79.749-17.666-104.395-23.091c-4.164-0.917-8.357,1.586-9.76,5.821c-0.793,2.395-0.602,4.944,0.533,7.18
								c1.07,2.104,2.854,3.645,5.021,4.34l55.09,17.667c0.827,0.264,1.413,0.998,1.489,1.861c0.076,0.864-0.373,1.689-1.14,2.094
								c-0.721,0.381-1.408,0.763-2.063,1.146c-7.626,4.457-11.922,13.45-10.946,22.912c5.361,52.008,17.716,66.297,27.137,69.127
								c13.201,3.964,26.66-12.248,26.796-12.412c0.403-0.495,1.011-0.785,1.65-0.789C840.696,543.28,840.702,543.28,840.707,543.28
								z"/>
						</g>
						<path d="M851.238,521.854c-0.367,0-0.743-0.095-1.084-0.294c-3.65-2.129-10.371-6.896-13.09-8.847
							c-14.88-10.666-23.188-21.277-26.815-26.652c-2.534-3.758-3.817-7.97-3.707-12.181c0.208-7.939,5.247-9.696,7.666-10.541
							c8.856-3.089,23.055,5.436,24.644,6.42c1.011,0.624,1.325,1.951,0.701,2.963c-0.626,1.013-1.954,1.325-2.965,0.701
							c-3.84-2.367-15.091-8.063-20.959-6.016c-2.285,0.797-4.65,1.621-4.78,6.585c-0.086,3.309,0.94,6.649,2.972,9.659
							c3.465,5.137,11.42,15.288,25.754,25.56c2.084,1.495,9.162,6.533,12.751,8.628c1.029,0.6,1.375,1.919,0.776,2.947
							C852.7,521.473,851.979,521.854,851.238,521.854z"/>
						<path d="M841.324,548.242c-0.572,0-1.145-0.229-1.568-0.678c-12.184-12.952-11.465-26.729-11.427-27.309
							c0.074-1.187,1.099-2.086,2.284-2.015c1.187,0.075,2.087,1.095,2.016,2.281c-0.012,0.206-0.547,12.597,10.266,24.091
							c0.814,0.866,0.774,2.229-0.094,3.044C842.385,548.048,841.856,548.242,841.324,548.242z"/>
					</g>
				</g>
				<g>
					<g>
						<g>
							<path fill="#FFFFFF" d="M1565.45,587.513l-4.989-134.848l-94.597,49.677l1.039,85.229
								c0.692,18.999,16.294,29.599,16.294,29.599c19.332,14.699,46.416,12.03,66.121-2.128l4.564-3.28
								C1561.515,606.278,1565.886,597.117,1565.45,587.513z"/>
							<path d="M1513.42,629.232c-11.418,0-22.432-3.434-31.527-10.348c-0.581-0.391-16.415-11.374-17.14-31.235l-1.042-85.281
								c-0.011-0.809,0.437-1.556,1.152-1.934l94.596-49.677c0.659-0.345,1.443-0.326,2.08,0.043
								c0.643,0.372,1.047,1.045,1.073,1.784l4.991,134.838c0.468,10.392-4.192,20.144-12.463,26.089l-4.566,3.279
								C1539.059,625.064,1525.996,629.231,1513.42,629.232z M1468.036,503.636l1.022,83.909
								c0.643,17.582,15.204,27.745,15.353,27.845c17.686,13.443,43.229,12.574,63.65-2.097l4.566-3.28
								c7.085-5.094,11.077-13.469,10.671-22.403c0-0.006,0-0.012,0-0.019l-4.863-131.431L1468.036,503.636z"/>
						</g>
						<path d="M1422.936,298.226c25.249-1.504-6.493,25.231,86.887-2.829c37.188-11.174,18.377,33.48,28.031,30.608
							c35.653-10.608,34.429-10.286,51.832-5.584c11.524,3.113,19.026,24.965,16.859,41.293
							c-2.859,21.552-20.148,27.125-35.457,72.666c-10.75,31.984-8.111,51.416-20.571,56.084c-12.6,4.719-21.903-12.67-36.042-8.586
							c-18.295,5.288-14.681,37.873-32.49,51.394c-11.229,8.523-37.359,12.484-79.242-8.473c-6.787-3.396-10.277-11.327-8.27-18.844
							c2.572-9.633,5.885-21.783,9.989-33.121c19.569-54.028,38.264-66.248,31.489-80.24c-10.382-21.44-49.813-9.137-56.344-26.75
							C1372.826,347.552,1388.364,300.285,1422.936,298.226z"/>
						<g>
							<path fill="#FFFFFF" d="M1511.062,391.242l-7.226,13.876c-3.403,6.536-6.36,13.297-8.859,20.258
								c-4.687,13.05-13.579,35.126-18.438,47.601c-15.618,40.107-63.56-3.949-63.56-3.949l-3.337-11.039l-6.446-2.701
								c-1.245-0.523-2.399-1.313-3.226-2.41c-2.068-2.739-2.079-6.372-0.316-9.05c9.628-14.638,29.719-47.505,36.938-77.007
								C1436.592,366.822,1477.735,355.885,1511.062,391.242z"/>
							<path d="M1454.854,491.987c-19.826,0-42.293-20.419-43.331-21.373c-0.283-0.261-0.491-0.593-0.604-0.963l-3.045-10.068
								l-5.51-2.309c-1.7-0.714-3.123-1.786-4.114-3.099c-2.549-3.379-2.708-8.013-0.397-11.531
								c8.604-13.075,29.392-46.688,36.646-76.335c0.188-0.765,0.777-1.368,1.54-1.57c0.423-0.112,42.777-10.847,76.592,25.024
								c0.629,0.667,0.768,1.66,0.343,2.473l-7.227,13.876c-3.347,6.428-6.287,13.154-8.741,19.991
								c-3.404,9.483-9.108,23.934-13.694,35.544c-1.777,4.507-3.423,8.673-4.762,12.111c-3.816,9.799-9.845,15.718-17.917,17.592
								C1458.749,491.787,1456.813,491.987,1454.854,491.987z M1414.866,467.825c3.486,3.072,27.364,23.38,44.799,19.327
								c6.599-1.533,11.6-6.565,14.868-14.957c1.341-3.443,2.987-7.617,4.771-12.13c4.57-11.583,10.264-25.998,13.644-35.417
								c2.52-7.02,5.541-13.926,8.978-20.525l6.512-12.507c-28.722-29.462-63.229-24.361-70.08-22.982
								c-7.39,28.853-26.229,60.149-36.906,76.379c-1.313,1.999-1.218,4.64,0.237,6.568c0.535,0.707,1.342,1.301,2.343,1.721
								l6.443,2.7c0.592,0.249,1.044,0.748,1.229,1.363L1414.866,467.825z"/>
						</g>
						<path fill="#FFFFFF" d="M1500.858,439.678c0,0,17.329-33.388,30.35-22.018C1544.226,429.03,1524.255,465.289,1500.858,439.678
							z"/>
					</g>
					<g>
						<path d="M1436.695,445.372c-3.66,0-6.738-1.181-9.164-3.522c-4.505-4.348-6.447-12.639-5.772-24.646
							c0.517-9.222,3.103-14.736,7.9-16.861c3.538-1.566,7.284-1.676,10.55-0.308c2.703,1.134,4.77,3.156,5.671,5.548
							c5.755,15.288,3.351,27.844-0.816,34.498c-1.972,3.146-4.349,4.997-6.694,5.213
							C1437.798,445.347,1437.24,445.372,1436.695,445.372z M1435.417,403.394c-1.313,0-2.677,0.297-4.012,0.889
							c-3.178,1.407-4.927,5.713-5.347,13.165c-0.592,10.546,0.952,17.913,4.463,21.303c1.871,1.806,4.323,2.543,7.453,2.254
							c0.729-0.066,2.115-1.1,3.437-3.209c3.457-5.515,5.642-16.863,0.438-30.694c-0.479-1.269-1.716-2.425-3.307-3.092
							C1437.563,403.598,1436.507,403.394,1435.417,403.394z M1430.533,402.313h0.021H1430.533z"/>
						<path d="M1516.508,413.712c-0.092,0-0.187-0.006-0.282-0.018l-78.947-10.311c-1.179-0.154-2.011-1.236-1.855-2.415
							c0.153-1.18,1.218-2.014,2.415-1.857l78.947,10.311c1.179,0.155,2.011,1.235,1.855,2.415
							C1518.5,412.921,1517.573,413.712,1516.508,413.712z"/>
						<path d="M1402.203,436.923c-0.325,0-0.654-0.07-0.961-0.218c-2.268-1.088-3.885-5.309-4.646-7.729
							c-2.404-7.629-3.218-18.9,1.717-27.647c1.655-2.937,4.021-4.715,7.034-5.285c7.469-1.416,16.216,5.611,16.583,5.91
							c0.922,0.751,1.06,2.106,0.311,3.028c-0.75,0.922-2.103,1.063-3.03,0.313c-2.083-1.691-8.522-5.882-13.069-5.018
							c-1.728,0.328-3.061,1.364-4.077,3.166c-6.605,11.717-0.927,27.862,1.134,29.431c1.074,0.515,1.479,1.774,0.967,2.847
							C1403.797,436.486,1403.012,436.923,1402.203,436.923z"/>
					</g>
				</g>
			</g>
			<g>
				<circle fill="#FFFFFF" cx="906.938" cy="1229.722" r="59.758"/>
				<g>
					<g>
						<circle fill="#FFFFFF" cx="1102.32" cy="1229.722" r="59.759"/>
					</g>
				</g>
				<g>
					<g>
						<circle fill="#FFFFFF" cx="1297.705" cy="1229.722" r="59.758"/>
						<path d="M1297.705,1291.633c-34.139,0-61.914-27.773-61.914-61.911c0-34.14,27.775-61.913,61.914-61.913
							s61.91,27.773,61.91,61.913C1359.615,1263.859,1331.844,1291.633,1297.705,1291.633z M1297.705,1172.117
							c-31.764,0-57.605,25.841-57.605,57.604c0,31.763,25.842,57.603,57.605,57.603c31.763,0,57.603-25.84,57.603-57.603
							C1355.308,1197.958,1329.468,1172.117,1297.705,1172.117z"/>
					</g>
					<g>
						<path d="M1317.303,1251.408c-0.55,0-1.102-0.21-1.521-0.631l-39.868-39.869c-0.843-0.841-0.843-2.205,0-3.045
							c0.84-0.842,2.203-0.842,3.046,0l39.866,39.869c0.843,0.84,0.843,2.203,0,3.045
							C1318.406,1251.198,1317.855,1251.408,1317.303,1251.408z"/>
						<path d="M1277.436,1251.408c-0.552,0-1.103-0.21-1.522-0.631c-0.843-0.842-0.843-2.205,0-3.045l39.868-39.869
							c0.841-0.842,2.204-0.842,3.044,0c0.843,0.84,0.843,2.204,0,3.045l-39.866,39.869
							C1278.537,1251.198,1277.986,1251.408,1277.436,1251.408z"/>
					</g>
				</g>
			</g>
			<path d="M1011.941,992.627c-0.708,0-1.401-0.35-1.814-0.99c-0.643-1-0.354-2.333,0.647-2.977l105.762-67.983
				c1.006-0.641,2.338-0.354,2.977,0.646c0.644,1.002,0.354,2.334-0.646,2.978l-105.763,67.983
				C1012.744,992.516,1012.34,992.627,1011.941,992.627z"/>
			<path d="M871.442,1082.939c-0.71,0-1.402-0.349-1.815-0.989c-0.642-1.002-0.354-2.333,0.648-2.977l95.754-61.552
				c0.999-0.642,2.333-0.353,2.977,0.647c0.644,1.001,0.354,2.334-0.648,2.977l-95.754,61.551
				C872.243,1082.83,871.841,1082.939,871.442,1082.939z"/>
			<path d="M963.004,1098.423c-0.708,0-1.4-0.349-1.815-0.99c-0.642-0.999-0.354-2.333,0.648-2.976l246.261-158.297
				c1.002-0.642,2.336-0.354,2.976,0.647c0.643,1,0.354,2.333-0.646,2.977l-246.262,158.298
				C963.806,1098.313,963.402,1098.423,963.004,1098.423z"/>
		</g>
		<g>
			<g>
				<g>
					<path fill="#FFFFFF" d="M672.373,1544.651l-301.809-3.002c-54.576,0-101.258-35.632-110.816-89.868l-51.668-293.141
						c-6.155-34.923,20.449-66.979,55.59-66.979h196.926L672.373,1544.651z"/>
					<path d="M672.373,1546.805c-0.007,0-0.015,0-0.021,0l-301.809-3.003c-56.965,0-103.405-37.687-112.917-91.646l-51.668-293.141
						c-3.067-17.392,1.666-35.099,12.979-48.581c11.158-13.299,27.464-20.925,44.733-20.925h196.925
						c0.836,0,1.599,0.484,1.952,1.241l211.777,452.988c0.314,0.671,0.263,1.455-0.139,2.078
						C673.788,1546.434,673.105,1546.805,672.373,1546.805z M263.67,1093.816c-15.994,0-31.095,7.066-41.434,19.385
						c-10.491,12.506-14.879,28.932-12.035,45.065l51.668,293.141c9.141,51.864,53.839,88.087,108.695,88.087l298.408,2.969
						l-209.747-448.646H263.67z"/>
				</g>
				<polygon points="492.319,1903.074 442.664,1903.074 442.664,1541.126 492.319,1543.017 				"/>
				<path d="M584.748,1842.523h-223.36c-34.844,0-63.09,28.247-63.09,63.091h349.541
					C647.839,1870.771,619.593,1842.523,584.748,1842.523z"/>
				<path d="M289.722,1320.152c-1.026,0-1.935-0.734-2.119-1.78l-25.044-142.302c-0.205-1.172,0.576-2.289,1.749-2.494
					c1.179-0.207,2.288,0.577,2.494,1.748l25.044,142.301c0.205,1.172-0.576,2.288-1.748,2.494
					C289.971,1320.141,289.846,1320.152,289.722,1320.152z"/>
			</g>
			<g>
				<path d="M573.648,855.374c19.829-1.755,33.693,16.321,44.792,43.707c9.058,22.349,5.499,40.965-6.739,53.224
					c-39.58,39.651-82.526,154.063-141.241,188.859c-46.842,27.762-144.916,22.623-190.208-34.938
					c-43.063-54.732-49.616-134.005-0.879-169.675c43.81-32.063,84.607,22.889,131.103-6.927
					c45.841-29.395,45.116-53.77,72.233-68.106C511.816,846.128,517.444,860.348,573.648,855.374z"/>
				<g>
					<g>
						<path fill="#FFFFFF" d="M856.275,1726.485c-0.415,1.72,19.789,94.175,19.789,94.175l-46.439-7.775l-13.989-78.168
							L856.275,1726.485z"/>
						<path d="M876.065,1822.813c-0.12,0-0.237-0.009-0.357-0.029l-46.439-7.774c-0.897-0.15-1.604-0.85-1.763-1.745l-13.99-78.168
							c-0.206-1.151,0.546-2.259,1.691-2.49l40.641-8.232c0.729-0.146,1.469,0.088,1.98,0.616c0.415,0.434,0.628,1.014,0.6,1.601
							c0.314,3.837,11.947,57.947,19.741,93.608c0.152,0.699-0.053,1.429-0.545,1.945
							C877.214,1822.574,876.647,1822.813,876.065,1822.813z M831.479,1811.012l41.8,6.998
							c-13.805-63.229-17.709-82.748-18.759-88.971l-36.393,7.373L831.479,1811.012z"/>
					</g>
					<g>
						<g>
							<path fill="#FFFFFF" d="M851.405,1790.332c2.84-2.388,6.901-4.719,12.069-4.939c7.782-0.334,14.88,4.539,18.102,11.697
								c8.052,17.897,29.286,67.756,35.288,108.509c2.121,14.402-8.745,26.114-25.68,16.678
								c-27.751-15.466-66.249-50.971-86.403-103.407c-2.312-6.02-1.485-12.826,2.313-18.021c3.104-4.242,7.312-9.381,12.198-13.759
								c4.672-4.187,11.697-4.246,16.54-0.264l4.364,3.588C843.47,1793.105,848.159,1793.063,851.405,1790.332z"/>
							<path d="M902.624,1927.843c-3.402,0-7.567-0.944-12.485-3.685c-29.035-16.18-67.233-52.133-87.367-104.517
								c-2.607-6.786-1.642-14.288,2.585-20.064c4.074-5.572,8.279-10.313,12.499-14.091c5.471-4.904,13.609-5.04,19.346-0.324
								l4.363,3.588c2.453,2.018,6.011,1.99,8.454-0.064c3.994-3.361,8.615-5.243,13.364-5.445
								c8.46-0.366,16.506,4.851,20.158,12.966c8.665,19.259,29.471,68.44,35.454,109.078c1.223,8.305-1.533,15.892-7.193,19.801
								C909.947,1926.364,906.883,1927.843,902.624,1927.843z M827.677,1786.029c-2.491,0-4.966,0.891-6.945,2.666
								c-3.995,3.577-8,8.094-11.898,13.426c-3.356,4.589-4.12,10.563-2.04,15.976c19.72,51.308,57.067,86.485,85.442,102.298
								c6.699,3.733,12.778,4.141,17.118,1.145c4.301-2.969,6.361-8.957,5.38-15.627c-5.906-40.104-26.529-88.843-35.122-107.938
								c-2.935-6.524-9.374-10.715-16.045-10.431c-3.845,0.165-7.468,1.657-10.775,4.438c-4.033,3.392-9.905,3.433-13.964,0.095
								l-4.361-3.586C832.468,1786.847,830.063,1786.029,827.677,1786.029z"/>
						</g>
						<path d="M906.298,1911.607c-3.654,0-42.808-2.288-90.287-96.13c-0.538-1.061-0.113-2.357,0.947-2.894
							c1.063-0.538,2.358-0.112,2.895,0.949c47.59,94.055,86.124,93.756,86.518,93.766c1.226-0.053,2.187,0.888,2.229,2.076
							c0.041,1.188-0.888,2.188-2.078,2.229C906.477,1911.605,906.401,1911.607,906.298,1911.607z"/>
						<path d="M876.58,1859.947c-0.858,0-1.67-0.517-2.004-1.363c-0.438-1.105,0.106-2.357,1.212-2.795l22.015-8.686
							c1.112-0.437,2.358,0.107,2.795,1.214s-0.107,2.357-1.213,2.794l-22.014,8.686
							C877.111,1859.899,876.844,1859.947,876.58,1859.947z"/>
						<path d="M868.865,1843.083c-0.861,0-1.676-0.521-2.008-1.374c-0.431-1.108,0.118-2.357,1.228-2.788l25.821-10.048
							c1.104-0.429,2.356,0.117,2.788,1.227c0.431,1.108-0.118,2.356-1.226,2.788l-25.822,10.048
							C869.391,1843.035,869.126,1843.083,868.865,1843.083z"/>
					</g>
					<g>
						<path fill="#FFFFFF" d="M658.116,1726.234c-0.336,0.701-2.916,11.554-4.928,29.843c-3.351,30.47,30.752,58.686,30.752,58.686
							l-80.782-10.89l3.087-70.516L658.116,1726.234z"/>
						<path d="M683.942,1816.916c-0.095,0-0.192-0.006-0.29-0.02l-80.782-10.891c-1.104-0.148-1.912-1.114-1.863-2.229l3.088-70.515
							c0.044-1.04,0.827-1.897,1.858-2.04l51.869-7.121c0.792-0.111,1.567,0.225,2.034,0.865c0.446,0.612,0.538,1.415,0.244,2.108
							c-0.48,1.39-2.916,12.375-4.771,29.237c-3.186,28.979,29.653,56.516,29.985,56.791c0.739,0.613,0.984,1.643,0.599,2.523
							C685.569,1816.417,684.788,1816.916,683.942,1816.916z M605.397,1802l72.022,9.711c-9.625-9.436-29.028-31.719-26.372-55.869
							c1.406-12.781,3.12-22.223,4.194-27.038l-46.923,6.441L605.397,1802z"/>
					</g>
					<g>
						<g>
							<path fill="#FFFFFF" d="M621.803,1783.411c4.738-1.563,3.654-8.883,7.532-12.339c5.838-5.205,13.155-5.101,20.124-1.585
								c17.419,8.788,65.014,34.033,95.093,61.882c10.631,9.843,9.493,25.848-9.55,29.276
								c-31.208,5.618-83.263,2.495-131.625-25.438c-5.552-3.205-9.156-9.02-9.443-15.469c-0.235-5.269,0.009-22.736,1.076-29.242
								c1.019-6.222,6.438-10.731,12.687-10.717l5.627,0.015C617.547,1779.806,617.788,1784.735,621.803,1783.411z"/>
							<path d="M706.726,1865.158c-30.547,0-68.531-7.352-104.426-28.085c-6.266-3.62-10.197-10.063-10.519-17.238
								c-0.239-5.387,0.001-22.969,1.103-29.688c1.189-7.261,7.4-12.521,14.776-12.521c0.014,0,0.027,0,0.041,0l5.627,0.014
								c2.867,0.008,4.464,1.585,5.63,2.736c1.187,1.17,1.364,1.252,2.168,0.988c1.503-0.496,2.106-2.169,2.967-4.858
								c0.768-2.394,1.636-5.106,3.808-7.043c6.128-5.462,14.128-6.138,22.529-1.899c18.749,9.459,65.591,34.454,95.585,62.222
								c6.114,5.663,8.713,13.29,6.779,19.906c-1.146,3.918-4.931,10.825-17.41,13.072
								C726.984,1864.277,717.299,1865.158,706.726,1865.158z M607.66,1781.935c-5.255,0-9.679,3.743-10.524,8.91
								c-1.04,6.345-1.278,23.69-1.051,28.798c0.256,5.699,3.383,10.82,8.368,13.699c47.313,27.329,98.261,30.926,130.166,25.184
								c7.558-1.361,12.543-4.928,14.039-10.04c1.473-5.038-0.661-10.992-5.57-15.536c-29.591-27.396-76.015-52.162-94.599-61.539
								c-4.749-2.396-11.676-4.118-17.722,1.27c-1.295,1.153-1.915,3.091-2.571,5.143c-0.965,3.011-2.059,6.425-5.719,7.634
								c-3.379,1.118-5.285-0.769-6.547-2.014c-0.991-0.979-1.559-1.492-2.613-1.495l-5.627-0.013
								C607.681,1781.935,607.67,1781.935,607.66,1781.935z"/>
						</g>
						<path d="M705.961,1851.055c-20.352,0-51.145-5.549-95.97-25.627c-1.085-0.486-1.571-1.761-1.085-2.846
							c0.487-1.086,1.763-1.572,2.847-1.086c95.614,42.828,125.393,18.124,125.685,17.869c0.895-0.784,2.256-0.695,3.039,0.197
							c0.787,0.893,0.698,2.255-0.193,3.04C739.594,1843.206,730.157,1851.055,705.961,1851.055z"/>
						<path d="M683.434,1821.98c-0.357,0-0.721-0.09-1.055-0.277c-1.037-0.585-1.402-1.899-0.818-2.936l11.686-20.737
							c0.583-1.035,1.897-1.405,2.935-0.817c1.036,0.582,1.401,1.896,0.819,2.932l-11.688,20.738
							C684.918,1821.584,684.187,1821.98,683.434,1821.98z"/>
						<path d="M666.922,1813.778c-0.382,0-0.769-0.102-1.119-0.313c-1.015-0.619-1.337-1.945-0.719-2.961l13.158-21.599
							c0.619-1.015,1.943-1.338,2.962-0.719c1.014,0.619,1.337,1.944,0.718,2.96l-13.159,21.599
							C668.356,1813.412,667.648,1813.778,666.922,1813.778z"/>
					</g>
					<path d="M439.232,1370.755c0,0,282.785-12.273,313.699,16.434c41.935,38.942,113.974,363.121,113.974,363.121l-69.557,19.5
						c0,0-104.806-266.048-130.773-266.048c-25.966,0-270.803-8.737-270.803-8.737L439.232,1370.755z"/>
					<path d="M383.604,1361.822c0,0-37.293,109.487-7.616,129.458c29.678,19.97,243.606,18.271,236.187,15.775
						s-19.131,179.272-19.131,249.171l67.355,2.598c0,0,107.342-281.106,95.77-312.495c-20.7-56.153-176.769-75.106-227.755-82.616
						C517.915,1362.169,383.604,1361.822,383.604,1361.822z"/>
					<path fill="#FFFFFF" d="M720.598,1600.991c-0.218,0-0.438-0.033-0.658-0.104c-1.131-0.361-1.755-1.574-1.393-2.707
						c2.422-7.563,4.83-15,7.188-22.283c18.851-58.248,35.129-108.551,28.389-128.891c-14.311-43.189-121.323-59.742-156.488-65.183
						c-1.176-0.182-1.98-1.284-1.799-2.458c0.184-1.178,1.294-1.983,2.458-1.801c62.152,9.615,146.349,27.133,159.918,68.088
						c7.186,21.678-8.51,70.173-28.379,131.57c-2.355,7.279-4.763,14.713-7.184,22.271
						C722.357,1600.407,721.51,1600.991,720.598,1600.991z"/>
				</g>
				<g>
					<g>
						<g>
							<path fill="#FFFFFF" d="M417.124,1029.842c0,0,1-18.05-10.152,170.123c0,0,7.675,145.607,8.633,162.025
								c0.956,16.419,143.348,9.283,143.348,9.283c16.843-73.844,15.005-158.582,3.253-249.099l24.402-2.183l1.696-56.894
								c-4.419-16.751-23.064-28.793-35.586-33.271C519.365,1014.835,460.227,1019.657,417.124,1029.842z"/>
							<path d="M495.032,1374.972c-2.465,0-4.938-0.009-7.413-0.028c-73.452-0.552-73.951-9.154-74.168-12.828
								c-0.944-16.236-8.553-160.58-8.629-162.037c-0.005-0.079-0.005-0.16,0.001-0.24c4.677-78.946,7.218-121.596,8.588-144.506
								c0.687-11.457,1.08-17.98,1.305-21.638c0.096-1.565,0.168-2.762,0.261-3.674c-0.009-0.098-0.01-0.197-0.004-0.298l0.021-0.4
								l0.064,0.002c0.277-1.986,0.771-2.18,2.211-2.101c0.17,0.01,0.469,0.048,0.784,0.188
								c41.295-9.564,100.985-15.084,135.547,0.453c14.613,5.216,32.475,18.343,36.786,34.685c0.053,0.201,0.077,0.408,0.071,0.615
								l-1.696,56.892c-0.033,1.091-0.876,1.985-1.962,2.082l-22.173,1.982c12.806,99.941,11.634,180.958-3.574,247.633
								c-0.215,0.94-1.029,1.623-1.991,1.672C558.728,1373.441,527.811,1374.972,495.032,1374.972z M409.13,1199.972
								c0.258,4.91,7.689,145.87,8.625,161.894c0.048,0.844,2.426,8.264,69.897,8.77c30.964,0.241,62.18-1.096,69.562-1.436
								c14.86-66.362,15.792-147.098,2.854-246.748c-0.075-0.581,0.091-1.168,0.457-1.625c0.367-0.457,0.904-0.745,1.488-0.797
								l22.499-2.013l1.63-54.663c-4.055-14.699-20.498-26.617-34.15-31.497c-33.704-15.143-92.198-9.672-132.829-0.279
								C418.716,1038.752,416.826,1070.086,409.13,1199.972z"/>
						</g>
						<path d="M502.212,1187.215c-0.773,0-1.521-0.418-1.907-1.15c-0.554-1.053-0.15-2.357,0.9-2.912
							c33.877-17.85,36.13-68.081,36.146-68.586c0.046-1.188,1.016-2.115,2.232-2.071c1.189,0.044,2.118,1.044,2.074,2.231
							c-0.083,2.166-2.388,53.236-38.443,72.238C502.895,1187.135,502.551,1187.215,502.212,1187.215z"/>
						<g>
							<path fill="#FFFFFF" d="M441.183,1027.341c0,0-34.291-3.961-56.37,26.194c-21.926,29.952-24.599,64.096-20.463,91.547
								c7.02,46.594,36.307,99.648,34.956,114.123c-0.655,7.026-8.105,56.986-36.306,101.72
								c-23.225,36.842-22.226,118.078-17.69,120.722c30.568,17.813,80.697,53.964,140.397,58.278
								c11.03,0.797,20.042-4.911,21.638-13.837c6.373-35.665,23.46-139.113,26.029-236.223
								c2.225-84.1-57.665-211.801-60.302-222.763C466.678,1040.529,441.183,1027.341,441.183,1027.341z"/>
							<path d="M487.796,1542.154c-0.737,0-1.484-0.026-2.244-0.082c-51.614-3.729-95.157-30.41-126.952-49.891
								c-5.136-3.147-9.986-6.118-14.374-8.674c-0.966-0.563-1.593-1.68-2.096-3.734c-3.28-13.383-2.739-85.435,19.048-119.996
								c29.854-47.358,35.937-100.261,35.984-100.774c0.551-5.901-5.031-20.325-11.496-37.024
								c-8.687-22.444-19.499-50.377-23.445-76.576c-3.686-24.461-3.06-60.477,20.855-93.139
								c22.557-30.812,57.997-27.103,58.353-27.063c0.259,0.03,0.51,0.106,0.743,0.228c1.076,0.556,26.446,13.953,32.994,41.172
								c0.443,1.842,2.915,7.936,6.334,16.369c16.715,41.218,55.858,137.743,54.027,206.952
								c-2.541,96.087-19.072,197.434-26.062,236.546C507.775,1535.922,499.014,1542.154,487.796,1542.154z M346.681,1479.951
								c4.352,2.543,9.123,5.467,14.17,8.559c31.416,19.249,74.442,45.611,125.013,49.266c9.986,0.715,17.962-4.238,19.361-12.065
								c6.973-39.019,23.463-140.108,25.996-235.901c1.808-68.312-38.528-167.777-53.713-205.222
								c-3.75-9.245-6.012-14.823-6.53-16.981c-5.677-23.595-27.389-36.458-30.435-38.159c-3.798-0.291-34.194-1.678-53.992,25.361
								c-23.046,31.479-23.635,66.292-20.071,89.952c3.878,25.73,14.594,53.418,23.204,75.663
								c7.206,18.616,12.412,32.069,11.768,38.98c-1.268,13.574-10.718,61.566-36.631,102.669
								C342.127,1398.078,343.568,1473.793,346.681,1479.951z"/>
						</g>
					</g>
					<g>
						<g>
							<path fill="#FFFFFF" d="M724.077,1288.824c-39.672-15.403-109.742-79.514-128.75-130.693l-1.831-88.921
								c-2.1-14.03-7.047-19.692-18.771-27.521c-4.595-3.07-12.506-6.535-18.937-7.809c0,0-3.32-1.885-4.053,16.311
								c-0.355,8.86,10.918,107.378,12.938,191.82c1.413,59.101-7.404,110.725-6.814,122.082c0.045,0.844,38.942,8.625,41.556,6.011
								l0.261-0.784l-2.238-108.771c21.871,19.072,63.661,51.949,96.849,50.751L724.077,1288.824z"/>
							<path d="M595.725,1372.674c-11.739,0-38.014-6.265-38.304-6.377c-1.352-0.518-1.678-1.423-1.713-2.091
								c-0.202-3.874,0.619-11.98,1.755-23.198c2.393-23.606,6.007-59.28,5.058-98.945c-1.385-57.914-7.08-121.905-10.482-160.137
								c-1.604-18.025-2.571-28.905-2.455-31.82c0.567-14.112,2.671-17.051,4.441-18.035c0.856-0.477,1.708-0.471,2.348-0.269
								c7.003,1.419,15.115,5.135,19.55,8.097c11.805,7.883,17.452,13.941,19.703,28.991c0.014,0.093,0.023,0.184,0.025,0.275
								l1.822,88.556c18.538,49.377,86.561,113.246,127.385,129.096c0.729,0.282,1.245,0.938,1.354,1.712
								c0.107,0.774-0.214,1.545-0.838,2.016l-29.794,22.476c-0.352,0.267-0.777,0.418-1.218,0.434
								c-29.986,1.079-67.376-24.84-94.673-48.119l2.14,103.942c0.004,0.245-0.033,0.49-0.11,0.724l-0.262,0.783
								c-0.104,0.318-0.283,0.607-0.521,0.843C600.195,1372.368,598.312,1372.674,595.725,1372.674z M559.983,1362.623
								c6.294,1.857,31.941,6.399,37.519,5.85l-2.222-107.88c-0.017-0.854,0.472-1.635,1.243-1.995
								c0.772-0.361,1.686-0.234,2.328,0.327c38.297,33.397,71.043,50.747,94.684,50.243l26.235-19.792
								c-41.998-18.348-108.27-81.507-126.463-130.495c-0.084-0.225-0.13-0.464-0.136-0.705l-1.826-88.783
								c-2.006-13.231-6.426-18.307-17.817-25.913c-3.983-2.661-11.198-5.984-17.541-7.357c-0.516,0.958-1.699,4.2-2.1,14.156
								c-0.105,2.638,0.964,14.646,2.442,31.265c3.405,38.285,9.107,102.363,10.497,160.417c0.955,39.934-2.676,75.769-5.076,99.482
								C560.759,1351.231,560.012,1358.61,559.983,1362.623z M598.249,1368.325L598.249,1368.325L598.249,1368.325z
								 M554.73,1035.757l0.002,0.001L554.73,1035.757z"/>
						</g>
						<g>
							<path fill="#FFFFFF" d="M673.463,1295.464c1.126-2.201,3.013-3.942,5.335-4.776c1.665-0.6,3.303-1.391,4.864-2.218
								l21.635-11.479c4.053-1.985,9.847,2.64,14.052,4.023c12.695,4.17,38.98,13.993,36.815,23.219
								c-2.337,9.954-24.927,5.243-32.945,3.233c-1.833-0.458-18.431,5.554-23.678,5.951c-7.251,0.55-8.926-1.293-12.471-3.156
								c-1.616-0.85-3.416-1.233-5.369-1.246c-2.987-0.019-5.831-1.271-7.701-3.605l-0.043-0.057
								c-2.061-2.573-2.421-6.12-0.919-9.059L673.463,1295.464z"/>
							<path d="M697.154,1315.669c-4.927,0-7.195-1.3-9.58-2.664c-0.476-0.271-0.968-0.556-1.505-0.837
								c-1.259-0.661-2.691-0.985-4.383-0.997c-3.726-0.026-7.141-1.634-9.367-4.417c-2.63-3.284-3.085-7.753-1.2-11.438
								l0.426-0.833c1.406-2.748,3.722-4.817,6.525-5.823c1.349-0.484,2.806-1.15,4.583-2.095l21.633-11.477
								c3.868-1.896,8.146,0.258,11.92,2.155c1.393,0.699,2.71,1.359,3.814,1.724c27.283,8.96,40.147,17.627,38.24,25.759
								c-0.537,2.289-1.896,4.113-4.038,5.418c-7.345,4.478-22.72,1.605-31.354-0.544c-1.157,0.078-5.701,1.43-9.043,2.423
								c-5.491,1.632-11.171,3.32-14.121,3.543C698.779,1315.636,697.935,1315.669,697.154,1315.669z M707.537,1278.658
								c-0.478,0-0.913,0.081-1.293,0.268l-21.571,11.447c-1.964,1.041-3.6,1.786-5.146,2.34c-1.77,0.637-3.239,1.961-4.144,3.731
								c-0.002,0.001-0.002,0.001-0.002,0.002l-0.426,0.831c-1.113,2.179-0.847,4.82,0.684,6.729
								c1.455,1.818,3.655,2.839,6.077,2.855c2.361,0.016,4.501,0.517,6.356,1.492c0.586,0.308,1.123,0.615,1.644,0.912
								c2.447,1.402,4.215,2.414,9.662,2.005c2.491-0.189,8.439-1.957,13.22-3.378c7.727-2.296,9.828-2.843,11.145-2.515
								c13.326,3.335,23.886,3.74,28.238,1.088c1.152-0.703,1.815-1.568,2.086-2.727c1.199-5.107-12.692-13.224-35.39-20.681
								c-1.409-0.462-2.864-1.194-4.404-1.967C711.973,1279.938,709.429,1278.658,707.537,1278.658z M673.464,1295.464h0.021
								H673.464z"/>
						</g>
					</g>
					<path fill="#FFFFFF" d="M472.483,1252.235c27.929,63.882,77.874,79.065,159.795,89.979l-8.739,24.168
						c-122.409,15.282-145.445-8.936-194.928-73.751L472.483,1252.235z"/>
					<g>
						<path d="M411.72,1410.277c-8.658,0-18.205-1.733-28.633-5.943c-1.103-0.446-1.637-1.702-1.19-2.805
							c0.447-1.102,1.696-1.636,2.805-1.189c55.448,22.39,84.469-29.66,84.755-30.188c0.567-1.045,1.874-1.434,2.922-0.867
							c1.045,0.568,1.433,1.875,0.866,2.921C472.992,1372.67,452.023,1410.277,411.72,1410.277z"/>
						<path d="M597.481,1256.667c-1.153,0-2.109-0.915-2.151-2.076l-2.934-81.916c-0.041-1.189,0.887-2.188,2.076-2.23
							c1.239-0.059,2.188,0.888,2.23,2.074l2.933,81.919c0.042,1.187-0.886,2.186-2.076,2.228
							C597.533,1256.667,597.507,1256.667,597.481,1256.667z"/>
						<path d="M555.42,1373.114c-30.105,0-44.766-6.417-64.504-15.056c-4.873-2.134-9.911-4.34-15.603-6.626
							c-16.388-6.588-28.258-16.762-38.485-32.989c-4.729-7.504-8.767-15.5-12.672-23.233c-3.443-6.814-7.003-13.862-10.994-20.479
							c-0.614-1.017-0.286-2.341,0.731-2.957c1.021-0.614,2.341-0.286,2.956,0.731c4.076,6.755,7.672,13.877,11.151,20.763
							c3.859,7.645,7.851,15.548,12.473,22.879c9.713,15.412,20.953,25.06,36.447,31.288c5.752,2.313,10.819,4.532,15.722,6.677
							c25.428,11.13,42.223,18.479,96.663,12.607c4.334-0.468,21.788-0.306,26.075-0.131c1.188,0.049,2.112,1.052,2.063,2.24
							s-1.029,2.106-2.239,2.065c-4.084-0.169-21.366-0.331-25.438,0.108C576.287,1372.457,565.06,1373.114,555.42,1373.114z"/>
						<path d="M630.465,1343.366c-0.065,0-0.13-0.002-0.193-0.009c-0.756-0.068-76.14-7.088-119.12-37.086
							c-12.807-8.936-19.192-28.73-25.952-49.687c-1.345-4.165-2.701-8.373-4.126-12.54c-0.384-1.125,0.219-2.35,1.343-2.734
							c1.123-0.387,2.35,0.217,2.733,1.342c1.432,4.19,2.798,8.422,4.148,12.609c6.533,20.246,12.703,39.369,24.318,47.479
							c42.052,29.349,116.292,36.26,117.037,36.326c1.185,0.104,2.06,1.151,1.954,2.336
							C632.508,1342.522,631.568,1343.366,630.465,1343.366z"/>
					</g>
					<g>
						<path fill="#FFFFFF" d="M612.83,1353.483c1.124-2.201,3.012-3.942,5.334-4.778c1.665-0.597,3.304-1.389,4.864-2.215
							l21.635-11.479c4.052-1.984,9.846,2.639,14.054,4.021c12.693,4.171,38.98,13.992,36.813,23.22
							c-2.337,9.953-24.925,5.243-32.946,3.235c-1.831-0.46-18.43,5.553-23.675,5.949c-7.253,0.55-8.927-1.293-12.472-3.156
							c-1.616-0.85-3.416-1.232-5.369-1.246c-2.988-0.019-5.832-1.271-7.701-3.607l-0.044-0.054c-2.061-2.573-2.42-6.121-0.92-9.059
							L612.83,1353.483z"/>
						<path d="M636.521,1373.688c-4.928,0-7.197-1.299-9.581-2.664c-0.475-0.271-0.967-0.554-1.505-0.835
							c-1.257-0.662-2.69-0.988-4.382-0.999c-3.726-0.024-7.141-1.635-9.367-4.417c-2.631-3.284-3.084-7.753-1.199-11.438
							l0.424-0.83c0-0.001,0-0.001,0-0.001c1.407-2.75,3.724-4.818,6.525-5.824c1.349-0.485,2.807-1.149,4.582-2.094l21.635-11.479
							c3.86-1.893,8.143,0.258,11.921,2.156c1.393,0.699,2.707,1.361,3.813,1.724c27.284,8.96,40.147,17.628,38.241,25.757
							c-0.538,2.292-1.898,4.114-4.04,5.42c-7.343,4.478-22.718,1.605-31.354-0.543c-1.155,0.078-5.699,1.428-9.043,2.422
							c-5.492,1.632-11.172,3.318-14.12,3.544C638.146,1373.655,637.301,1373.688,636.521,1373.688z M614.746,1354.465l-0.424,0.831
							c-1.114,2.18-0.846,4.821,0.683,6.731c1.457,1.818,3.655,2.839,6.078,2.854c2.361,0.016,4.502,0.518,6.355,1.492
							c0.586,0.308,1.125,0.615,1.642,0.913c2.452,1.4,4.221,2.413,9.665,2.004c2.489-0.189,8.438-1.957,13.219-3.377
							c7.729-2.298,9.835-2.84,11.144-2.516c13.324,3.336,23.882,3.744,28.24,1.088c1.149-0.701,1.814-1.568,2.086-2.725
							c1.199-5.109-12.693-13.227-35.39-20.682c-1.41-0.463-2.863-1.193-4.404-1.967c-2.883-1.448-6.153-3.089-8.029-2.168
							l-21.573,11.447c-1.963,1.041-3.597,1.784-5.143,2.342C617.126,1351.367,615.653,1352.693,614.746,1354.465z"/>
					</g>
				</g>
				<g>
					<g>
						<path fill="#FFFFFF" d="M598.532,990.706c3.007-0.422,5.06-3.307,4.397-6.271c-4.107-18.427-2.526-49.989-3.133-49.1
							c-6.572,9.64-20.25-2.457-39.736-3.224c-11.608-0.458-16.079,6.415-17.795,12.044c-0.554,1.817-3.015,2.158-4.045,0.563
							c-2.844-4.4-7.678-8.132-14.886-0.922c-8.014,8.014-1.307,26.601,5.943,32.694c-1.765,2.006-29.451,31.857-50.699,54.29
							c-4.205,4.441-3.614,11.548,1.257,15.247l18.885,14.333c11.801,8.954,27.939,9.583,40.399,1.567l2.915-1.873
							c3.021-1.944,3.533-6.154,1.068-8.768l-5.725-6.064c-4.637-5.5-3.781-12.476-0.819-18.294l11.673-19.786
							c2.683,3.241,6.066,6.947,9.188,9.127c6.217,4.341,13.95,3.668,19.435-1.568c7.523-7.181,12.782-15.246,15.169-23.079
							L598.532,990.706z"/>
						<path d="M520.057,1069.662c-8.008,0-15.997-2.546-22.638-7.586l-18.885-14.332c-2.812-2.135-4.59-5.376-4.877-8.893
							c-0.289-3.512,0.937-6.993,3.359-9.553c18.962-20.02,43.125-46.031,49.258-52.707c-4.687-5.039-8.383-13.942-8.705-21.411
							c-0.235-5.434,1.231-9.896,4.242-12.906c3.425-3.426,6.811-4.987,10.062-4.644c3.087,0.328,5.83,2.319,8.157,5.918
							c1.79-5.317,6.557-14.117,20.114-13.59c8.117,0.319,15.346,2.563,21.156,4.365c8.991,2.791,13.816,4.047,16.716-0.202
							c0.531-0.782,1.542-1.141,2.442-0.864c1.661,0.512,1.661,0.649,1.659,7.854c-0.001,9.662-0.002,29.77,2.917,42.854
							c0.44,1.978,0.028,4.073-1.132,5.748c-1.176,1.697-3.023,2.837-5.071,3.125l-5.173,0.728
							c-2.682,7.846-7.953,15.663-15.315,22.691c-6.24,5.956-15.144,6.673-22.154,1.777c-2.228-1.554-4.788-3.97-7.636-7.199
							l-10.139,17.185c-1.747,3.442-4.084,10.243,0.611,15.813l5.644,5.974c1.615,1.715,2.379,4.037,2.095,6.375
							c-0.285,2.337-1.585,4.408-3.565,5.682l-2.915,1.874C534.129,1067.7,527.087,1069.662,520.057,1069.662z M530.989,941.892
							c-1.794,0-3.854,1.152-6.132,3.428c-2.696,2.695-3.11,6.749-2.983,9.675c0.345,7.985,4.831,16.521,8.79,19.848
							c0.442,0.373,0.718,0.908,0.761,1.486c0.044,0.578-0.146,1.149-0.531,1.584c-1.723,1.961-28.968,31.353-50.749,54.349
							c-1.582,1.671-2.383,3.945-2.194,6.239c0.188,2.298,1.352,4.417,3.188,5.811l18.884,14.332
							c11.036,8.375,26.28,8.968,37.933,1.474l2.913-1.875c0.899-0.577,1.49-1.519,1.62-2.581c0.128-1.062-0.218-2.116-0.952-2.896
							l-5.724-6.064c-4.68-5.547-5.079-13.077-1.172-20.75l11.738-19.903c0.356-0.605,0.984-0.998,1.685-1.053
							c0.687-0.057,1.382,0.233,1.829,0.774c3.401,4.11,6.35,7.049,8.762,8.734c5.365,3.743,11.924,3.212,16.715-1.36
							c7.239-6.912,12.286-14.571,14.595-22.149c0.243-0.802,0.931-1.389,1.761-1.505l6.508-0.915
							c0.859-0.121,1.637-0.6,2.129-1.313c0.483-0.699,0.65-1.537,0.468-2.357c-3.021-13.547-3.02-33.974-3.019-43.792
							c0-0.363,0-0.725,0-1.076c-4.683,2.468-10.868,0.549-17.787-1.598c-5.858-1.817-12.496-3.877-20.048-4.175
							c-8.146-0.321-13.422,3.219-15.65,10.521c-0.503,1.65-1.884,2.825-3.604,3.066c-1.721,0.238-3.372-0.511-4.311-1.962
							c-1.585-2.453-3.265-3.79-4.992-3.973C531.278,941.9,531.135,941.892,530.989,941.892z M598.532,990.706h0.02H598.532z"/>
					</g>
					<g>
						<path fill="#FFFFFF" d="M544.505,1001.94l3.728,5.202L544.505,1001.94z"/>
						<path d="M548.234,1009.296c-0.671,0-1.332-0.312-1.752-0.898l-3.729-5.203c-0.693-0.966-0.471-2.312,0.497-3.005
							c0.965-0.694,2.312-0.471,3.007,0.497l3.728,5.202c0.692,0.966,0.47,2.312-0.497,3.005
							C549.108,1009.166,548.67,1009.296,548.234,1009.296z"/>
					</g>
				</g>
			</g>
			<g>
				<g>
					<path d="M730.432,1362.919l65.548-193.166c3.932-6.055,10.775-9.727,18.135-9.727h174.713c7.923,0,13.03,7.701,10.441,14.499
						c-1.027,2.703-2.138,5.374-3.039,8.123l-59.239,180.62h-0.023c-0.188,10.56-8.783,19.065-19.377,19.065H595.183
						c-10.711,0-19.394-8.693-19.394-19.415H730.432z"/>
					<path fill="#FFFFFF" d="M860.292,1259.035c-2.462,8.182,1.301,16.555,8.407,18.701c7.105,2.147,14.861-2.746,17.322-10.926
						c2.464-8.184-1.302-16.557-8.406-18.703S862.754,1250.854,860.292,1259.035z"/>
				</g>
			</g>
			<g>
				<path fill="#FFFFFF" d="M1240.457,1379.107H464.776c-14.451,0-25.682,13.582-24.046,29.084l53.563,507.724h38.676
					l-33.527-476.514c-0.592-8.396,5.561-15.56,13.36-15.56h665.852c11.67,0,20.874,10.717,19.988,23.28l-33.195,471.774h38.676
					l54.477-517.854C1259.829,1389.35,1251.357,1379.107,1240.457,1379.107z"/>
				<path d="M1204.123,1921.051h-38.676c-0.596,0-1.167-0.248-1.575-0.685s-0.615-1.024-0.572-1.62l33.195-471.777
					c0.402-5.73-1.525-11.334-5.29-15.373c-3.368-3.612-7.824-5.601-12.552-5.601H512.803c-2.96,0-5.754,1.249-7.867,3.517
					c-2.382,2.554-3.601,6.105-3.346,9.738l33.528,476.513c0.042,0.597-0.165,1.184-0.573,1.62
					c-0.406,0.438-0.978,0.686-1.575,0.686h-38.676c-1.102,0-2.027-0.832-2.142-1.928l-53.565-507.725
					c-0.886-8.416,1.75-16.74,7.237-22.836c5.006-5.563,11.737-8.626,18.952-8.626h775.681c5.593,0,10.81,2.371,14.688,6.679
					c4.239,4.709,6.28,11.135,5.596,17.634l-54.477,517.855C1206.15,1920.219,1205.226,1921.051,1204.123,1921.051z
					 M1167.76,1916.742h34.425l54.274-515.926c0.555-5.286-1.09-10.499-4.515-14.302c-3.05-3.387-7.131-5.253-11.487-5.253H464.776
					c-5.978,0-11.57,2.557-15.751,7.199c-4.671,5.189-6.913,12.299-6.152,19.504l53.36,505.796h34.426l-33.367-474.208
					c-0.338-4.822,1.299-9.552,4.492-12.979c2.937-3.151,6.851-4.888,11.019-4.888h665.851c5.937,0,11.513,2.476,15.704,6.972
					c4.576,4.91,6.922,11.695,6.434,18.613L1167.76,1916.742z"/>
			</g>
		</g>
		<g>
			<g>
				<g>
					<path d="M797.241,994.557c-0.49,0-0.981-0.166-1.387-0.505c-0.909-0.765-1.027-2.125-0.262-3.035l10.75-12.792
						c0.765-0.911,2.125-1.028,3.037-0.264c0.91,0.766,1.028,2.125,0.262,3.035l-10.75,12.792
						C798.464,994.296,797.854,994.557,797.241,994.557z"/>
					<path d="M772.194,1024.356c-0.49,0-0.981-0.165-1.386-0.504c-0.911-0.765-1.027-2.124-0.262-3.035l10.75-12.792
						c0.768-0.911,2.125-1.028,3.036-0.263c0.911,0.765,1.029,2.124,0.264,3.034l-10.752,12.792
						C773.418,1024.096,772.808,1024.356,772.194,1024.356z"/>
					<path d="M781.59,995.915c-0.49,0-0.982-0.167-1.386-0.506l-12.791-10.752c-0.912-0.766-1.028-2.124-0.264-3.035
						c0.765-0.91,2.124-1.028,3.034-0.263l12.793,10.751c0.911,0.766,1.029,2.126,0.264,3.035
						C782.813,995.652,782.203,995.915,781.59,995.915z"/>
					<path d="M811.389,1020.959c-0.488,0-0.98-0.164-1.385-0.504l-12.792-10.752c-0.911-0.766-1.031-2.125-0.264-3.035
						c0.767-0.91,2.124-1.027,3.036-0.263l12.791,10.751c0.912,0.766,1.029,2.125,0.264,3.036
						C812.613,1020.699,812.003,1020.959,811.389,1020.959z"/>
				</g>
				<path d="M738.178,942.916c-1.565,0-3.141-0.223-4.688-0.675c-4.384-1.281-8.002-4.229-10.194-8.3
					c-4.472-8.309-1.483-18.76,6.66-23.3c3.924-2.188,8.459-2.7,12.769-1.439c4.383,1.281,8.004,4.228,10.193,8.299
					c4.473,8.308,1.484,18.759-6.659,23.299C743.743,942.203,740.977,942.916,738.178,942.916z M732.052,914.404
					c-6.099,3.4-8.326,11.248-4.964,17.495c1.641,3.048,4.344,5.251,7.61,6.206c3.194,0.932,6.555,0.554,9.463-1.068
					c6.099-3.399,8.325-11.248,4.964-17.494c-1.641-3.047-4.343-5.251-7.609-6.206C738.324,912.403,734.96,912.782,732.052,914.404z
					"/>
				<path d="M909.73,956.065c-0.087-7.24,5.781-13.191,13.107-13.292c7.325-0.101,13.335,5.688,13.421,12.928
					c0.087,7.239-5.781,13.191-13.106,13.292C915.827,969.094,909.817,963.306,909.73,956.065z"/>
			</g>
			<g>
				<path d="M1585.259,183.633c-0.55,0-1.103-0.211-1.522-0.63l-9.396-9.39c-0.843-0.842-0.843-2.205,0-3.047
					c0.841-0.842,2.204-0.842,3.046-0.001l9.396,9.391c0.841,0.84,0.841,2.204,0,3.046
					C1586.361,183.422,1585.811,183.633,1585.259,183.633z"/>
				<path d="M1618.152,216.497c-0.551,0-1.103-0.21-1.523-0.631l-9.397-9.39c-0.843-0.841-0.843-2.205,0-3.046
					c0.841-0.842,2.203-0.842,3.045-0.002l9.398,9.39c0.842,0.841,0.842,2.204,0,3.047
					C1619.255,216.286,1618.704,216.497,1618.152,216.497z"/>
				<path d="M1575.862,216.497c-0.551,0-1.102-0.211-1.521-0.632c-0.843-0.842-0.843-2.206,0-3.047l9.396-9.39
					c0.842-0.84,2.203-0.84,3.047,0.002c0.841,0.841,0.841,2.204,0,3.046l-9.396,9.39
					C1576.965,216.287,1576.414,216.497,1575.862,216.497z"/>
				<path d="M1608.753,183.633c-0.549,0-1.103-0.211-1.521-0.631c-0.843-0.843-0.843-2.206,0-3.046l9.397-9.391
					c0.841-0.841,2.204-0.841,3.046,0.001s0.842,2.206,0,3.047l-9.398,9.39C1609.856,183.422,1609.305,183.633,1608.753,183.633z"/>
			</g>
			<g>
				<path d="M1600.499,1765.51c-0.649,0-1.293-0.293-1.716-0.851c-0.72-0.945-0.537-2.296,0.409-3.018
					c88.454-67.287,162.352-149.909,219.637-245.571c0.612-1.02,1.935-1.354,2.955-0.74c1.02,0.611,1.352,1.933,0.743,2.954
					c-57.572,96.135-131.835,179.165-220.725,246.786C1601.412,1765.366,1600.955,1765.51,1600.499,1765.51z"/>
				<path d="M1750.758,1698.729c-0.525,0-1.053-0.189-1.471-0.58c-0.867-0.81-0.916-2.174-0.104-3.043
					c35.788-38.356,68.302-80.229,96.634-124.45c0.638-1.001,1.972-1.292,2.975-0.649c1.003,0.64,1.293,1.973,0.652,2.975
					c-28.473,44.44-61.146,86.517-97.11,125.063C1751.909,1698.5,1751.335,1698.729,1750.758,1698.729z"/>
			</g>
		</g>
		<g>
			<g>
				<g>
					<path fill="#FFFFFF" d="M1040.887,1802.062c10.528-21.898,11.531-43.965,0-66.255l8.277-10.032l273.47,7.524l-7.805,72.672
						l-266.222,2.553L1040.887,1802.062z"/>
					<path d="M1048.607,1810.677c-0.506,0-0.995-0.177-1.381-0.503l-7.723-6.461c-0.755-0.632-0.986-1.697-0.561-2.584
						c10.799-22.457,10.807-43.5,0.029-64.332c-0.396-0.766-0.298-1.696,0.251-2.36l8.278-10.032
						c0.425-0.511,1.079-0.803,1.722-0.781l273.469,7.522c0.601,0.016,1.167,0.283,1.563,0.736c0.396,0.452,0.586,1.049,0.521,1.647
						l-7.805,72.673c-0.114,1.086-1.028,1.912-2.119,1.923l-266.224,2.552C1048.621,1810.677,1048.613,1810.677,1048.607,1810.677z
						 M1043.543,1801.477l5.838,4.886l263.511-2.526l7.351-68.449l-270.085-7.431l-6.712,8.134
						C1053.846,1757.046,1053.878,1779.029,1043.543,1801.477z"/>
				</g>
				<path d="M1500.84,1717.774h-298.372h-168.899c-4.91,0-8.892,4.023-8.892,8.985c0,4.965,3.981,8.986,8.892,8.986h240.26
					c14.146,0,25.613,11.589,25.613,25.883v14.551c0,14.294-11.467,25.882-25.613,25.882h-240.26c-4.91,0-8.892,4.022-8.892,8.986
					c0,4.962,3.981,8.985,8.892,8.985h467.271c26.084,0,47.228-21.366,47.228-47.723v-6.814
					C1548.067,1739.141,1526.924,1717.774,1500.84,1717.774z"/>
			</g>
			<g>
				<g>
					<path fill="#FFFFFF" d="M1064.355,1927.646h426.622v-97.111h-426.622C1075.559,1862.273,1075.867,1896.755,1064.355,1927.646z"
						/>
					<path d="M1490.978,1929.801h-426.623c-0.706,0-1.367-0.346-1.771-0.926c-0.4-0.579-0.495-1.32-0.249-1.98
						c11.178-29.993,11.173-63.959-0.012-95.642c-0.232-0.659-0.132-1.39,0.272-1.962c0.403-0.57,1.061-0.91,1.759-0.91h426.623
						c1.19,0,2.154,0.966,2.154,2.154v97.111C1493.132,1928.836,1492.168,1929.801,1490.978,1929.801z M1067.418,1925.492h421.405
						v-92.802h-421.457C1077.558,1863.475,1077.574,1896.193,1067.418,1925.492z"/>
				</g>
				<path d="M1425.335,1866.726h-322.943c-1.189,0-2.153-0.965-2.153-2.154s0.964-2.154,2.153-2.154h322.943
					c1.192,0,2.156,0.965,2.156,2.154S1426.527,1866.726,1425.335,1866.726z"/>
				<path d="M1425.335,1893.87h-265.34c-1.189,0-2.154-0.965-2.154-2.154c0-1.19,0.965-2.154,2.154-2.154h265.34
					c1.192,0,2.156,0.964,2.156,2.154C1427.491,1892.905,1426.527,1893.87,1425.335,1893.87z"/>
				<path d="M1442.17,1835.171h-383.542c-4.046,0-7.325-3.314-7.325-7.403c0-4.088,3.279-7.403,7.325-7.403h483.694
					c17.781,0,32.195,14.566,32.195,32.534v51.145c0,17.969-14.414,32.535-32.195,32.535h-483.694c-4.046,0-7.325-3.314-7.325-7.403
					c0-4.088,3.279-7.403,7.325-7.403h383.542c12.562,0,22.745-10.291,22.745-22.983v-40.634
					C1464.915,1845.463,1454.731,1835.171,1442.17,1835.171z"/>
				<path d="M1268.384,1758.822h-197.127c-1.191,0-2.154-0.965-2.154-2.155c0-1.188,0.963-2.153,2.154-2.153h197.127
					c1.19,0,2.154,0.965,2.154,2.153C1270.538,1757.857,1269.574,1758.822,1268.384,1758.822z"/>
			</g>
		</g>
	</g>
	<path d="M1142.312,1190.212c-0.49,0-0.981-0.165-1.387-0.504c-0.909-0.766-1.027-2.125-0.262-3.035l10.75-12.791
		c0.765-0.911,2.125-1.028,3.037-0.265c0.91,0.767,1.028,2.126,0.262,3.035l-10.75,12.792
		C1143.534,1189.951,1142.924,1190.212,1142.312,1190.212z"/>
	<path d="M1117.265,1220.011c-0.49,0-0.981-0.164-1.386-0.504c-0.911-0.765-1.027-2.124-0.262-3.035l10.75-12.792
		c0.768-0.911,2.125-1.028,3.036-0.263c0.911,0.765,1.029,2.124,0.264,3.034l-10.752,12.792
		C1118.488,1219.751,1117.878,1220.011,1117.265,1220.011z"/>
	<path d="M1126.66,1191.57c-0.49,0-0.982-0.167-1.386-0.506l-12.791-10.752c-0.912-0.766-1.028-2.124-0.264-3.035
		c0.765-0.91,2.124-1.028,3.034-0.263l12.793,10.751c0.911,0.767,1.029,2.126,0.264,3.035
		C1127.884,1191.308,1127.273,1191.57,1126.66,1191.57z"/>
	<path d="M1156.459,1216.614c-0.488,0-0.98-0.164-1.385-0.504l-12.792-10.752c-0.911-0.766-1.031-2.125-0.264-3.035
		c0.767-0.91,2.124-1.027,3.036-0.263l12.791,10.751c0.912,0.766,1.029,2.125,0.264,3.035
		C1157.684,1216.354,1157.073,1216.614,1156.459,1216.614z"/>
	
		<text transform="matrix(1 0 0 1 339.0615 396.083)" fill="#FFFFFF" font-family="'Rubik-Light'" font-size="140" letter-spacing="21">SQL</text>
</g>
</svg>
