<?xml version="1.0" encoding="utf-8"?>
<!-- Generator: Adobe Illustrator 16.0.0, SVG Export Plug-In . SVG Version: 6.00 Build 0)  -->
<!DOCTYPE svg PUBLIC "-//W3C//DTD SVG 1.1//EN" "https://www.w3.org/Graphics/SVG/1.1/DTD/svg11.dtd">
<svg version="1.1" xmlns="https://www.w3.org/2000/svg" xmlns:xlink="https://www.w3.org/1999/xlink" x="0px" y="0px" width="2100px"
	 height="2100px" viewBox="0 0 2100 2100" enable-background="new 0 0 2100 2100" xml:space="preserve">
<g id="Background">
</g>
<g id="Illustration">
	<g id="Coding_workshop_1_">
		<g>
			<g>
				<g>
					<g>
						<path d="M1326.066,1112.813l-329.896,2.068c-2.137,0-2.838,1.986-2.838,3.893v280.676c0,26.872-187.438,96.691-189.266,93.141
							l-0.229,29.704c-0.013,5.53,4.85,10.438,11.048,10.438h4.122c0.028,0,0.054,0,0.083,0h276.597
							c12.835,0,25.513-2.873,37.133-7.736l152.078-64.036c27.376-11.527,44.646-36.286,44.646-63.292v-280.961
							C1329.544,1114.798,1328.204,1112.813,1326.066,1112.813z"/>
						<g>
							<path fill="#FFFFFF" d="M959.922,1098.532v280.735c0,27.674-17.81,52.89-45.793,64.834l-102.589,43.787
								c-6.702,2.861-4.418,11.841,3.011,11.841h281.87c12.675,0,25.193-2.503,36.657-7.329l113.665-47.855
								c28.193-11.871,46.181-37.187,46.181-64.998v-281.015c0-1.149-1.045-2.082-2.334-2.082H962.255
								C960.967,1096.45,959.922,1097.383,959.922,1098.532z"/>
							<path d="M1096.421,1501.828h-281.87c-5.204,0-8.232-3.416-8.924-6.802c-0.776-3.793,1.271-7.437,5.089-9.068l102.589-43.787
								c27.044-11.543,44.52-36.234,44.52-62.903v-280.735c0-2.305,1.986-4.18,4.431-4.18h328.335c2.444,0,4.432,1.875,4.432,4.18
								v281.014c0,28.521-18.631,54.793-47.464,66.934l-113.666,47.855C1122.251,1499.237,1109.293,1501.828,1096.421,1501.828z
								 M962.021,1098.613v280.654c0,28.353-18.475,54.561-47.067,66.765l-102.589,43.788c-2.026,0.863-3.007,2.496-2.624,4.366
								c0.324,1.589,1.779,3.445,4.811,3.445h281.87c12.316,0,24.71-2.479,35.844-7.165l113.665-47.857
								c27.271-11.482,44.894-36.236,44.894-63.063v-280.987c-0.014,0.039-0.092-0.009-0.233-0.008H962.255
								C962.138,1098.551,962.06,1098.586,962.021,1098.613z"/>
						</g>
					</g>
					<g>
						<path d="M343.25,1259.419l1421.928,3.191c12.446,0,24.852-9.351,26.434-21.721l115.537-889.742
							c2.76-21.564-13.938-43.009-35.388-42.469l-1405.437,7.427L343.25,1259.419z"/>
						<g>
							<path fill="#FFFFFF" d="M1815.924,313.732c24.463,0,46.553,24.801,43.422,49.126l-112.178,875.862
								c-1.592,12.368-14.83,22.834-27.269,22.834l-1396.759-2.269c-14.92,0-24.885-12.382-22.977-27.217l116.169-892.101
								c1.591-12.369,9.769-26.236,22.208-26.236H1815.924z"/>
							<path d="M1719.899,1263.653l-1396.761-2.269c-7.532,0-14.271-2.945-18.977-8.294c-4.889-5.561-7.105-13.319-6.079-21.289
								l116.169-892.104c1.75-13.603,10.858-28.064,24.289-28.064h1377.384c12.347,0,24.649,5.939,33.756,16.293
								c9.023,10.26,13.305,23.09,11.747,35.2l-112.178,875.86C1747.557,1252.127,1733.844,1263.653,1719.899,1263.653z
								 M438.541,315.831c-11.032,0-18.604,12.574-20.127,24.404L302.245,1232.34c-0.884,6.87,0.915,13.257,5.068,17.978
								c3.896,4.43,9.519,6.87,15.827,6.87l1396.764,2.269c11.763,0,23.767-10.011,25.182-21.003l112.176-875.862
								c1.406-10.915-2.506-22.54-10.733-31.892c-8.309-9.449-19.465-14.868-30.604-14.868H438.541z"/>
						</g>
						<path d="M1687.049,1223.786L367.354,1221.7c-6.977,0-13.221-2.73-17.582-7.688c-4.53-5.149-6.584-12.336-5.633-19.717
							l106.873-820.717c1.619-12.584,10.06-25.964,22.512-25.964h1301.865c11.406,0,22.773,5.483,31.184,15.046
							c8.333,9.475,12.286,21.326,10.848,32.515l-103.201,805.772C1712.65,1213.114,1699.955,1223.786,1687.049,1223.786z
							 M473.523,351.812c-10.055,0-16.958,11.493-18.35,22.306l-106.873,820.717c-0.807,6.271,0.834,12.099,4.623,16.405
							c3.553,4.04,8.678,6.264,14.434,6.264l1319.695,2.087c10.745,0,21.71-9.141,23.001-19.178l103.202-805.771
							c1.286-9.994-2.299-20.641-9.836-29.208c-7.613-8.657-17.83-13.621-28.031-13.621H473.523z"/>
					</g>
				</g>
			</g>
			<g>
				<g>
					<path d="M1636.63,463.024h-536.443c-0.604,0-1.18-0.262-1.58-0.718c-0.397-0.455-0.58-1.061-0.5-1.661l3.614-26.893
						c0.14-1.042,1.029-1.819,2.082-1.819h536.444c0.604,0,1.18,0.262,1.579,0.717c0.398,0.456,0.58,1.061,0.5,1.661l-3.615,26.893
						C1638.572,462.246,1637.683,463.024,1636.63,463.024z M1102.587,458.827h532.207l3.052-22.696h-532.207L1102.587,458.827z"/>
					<polygon points="1752.393,505.266 1205.831,505.266 1209.446,478.373 1756.009,478.373 					"/>
					<path d="M1680.527,551.705H1398.02c-0.604,0-1.18-0.261-1.579-0.718c-0.398-0.455-0.58-1.061-0.5-1.661l3.615-26.894
						c0.14-1.041,1.028-1.819,2.08-1.819h282.507c0.604,0,1.181,0.261,1.579,0.717c0.398,0.455,0.581,1.061,0.501,1.661
						l-3.615,26.894C1682.468,550.927,1681.579,551.705,1680.527,551.705z M1400.42,547.507h278.271l3.052-22.696h-278.271
						L1400.42,547.507z"/>
					<path d="M1588.94,817.746h-536.441c-0.604,0-1.182-0.261-1.581-0.717c-0.396-0.455-0.58-1.061-0.5-1.662l3.615-26.893
						c0.14-1.041,1.029-1.819,2.08-1.819h536.443c0.604,0,1.18,0.261,1.579,0.717c0.398,0.455,0.58,1.06,0.5,1.661l-3.614,26.894
						C1590.882,816.968,1589.992,817.746,1588.94,817.746z M1054.898,813.548h532.205l3.053-22.695H1057.95L1054.898,813.548z"/>
					<path d="M1298.682,862.086h-140.541c-0.604,0-1.181-0.262-1.58-0.718c-0.397-0.455-0.579-1.061-0.5-1.661l3.615-26.893
						c0.14-1.041,1.029-1.819,2.081-1.819h127.126c1.16,0,2.099,0.94,2.099,2.099c0,1.159-0.938,2.099-2.099,2.099h-125.289
						l-3.053,22.695h138.141c1.16,0,2.1,0.94,2.1,2.099C1300.781,861.146,1299.842,862.086,1298.682,862.086z"/>
					<path d="M1704.704,862.086h-337.586c-1.16,0-2.099-0.94-2.099-2.099c0-1.159,0.938-2.099,2.099-2.099h335.75l3.052-22.695
						h-357.021c-1.16,0-2.099-0.94-2.099-2.099c0-1.159,0.938-2.099,2.099-2.099h359.421c0.604,0,1.18,0.261,1.58,0.717
						c0.397,0.455,0.579,1.061,0.5,1.661l-3.615,26.893C1706.646,861.308,1705.755,862.086,1704.704,862.086z"/>
					<path d="M1698.742,906.426h-291.971c-1.16,0-2.099-0.94-2.099-2.099c0-1.16,0.938-2.099,2.099-2.099h290.135l3.051-22.695
						h-309.26c-1.16,0-2.099-0.939-2.099-2.099s0.938-2.099,2.099-2.099h311.659c0.606,0,1.183,0.261,1.581,0.717
						c0.398,0.455,0.581,1.061,0.501,1.661l-3.616,26.893C1700.684,905.648,1699.793,906.426,1698.742,906.426z"/>
					<path d="M1343.54,948.92h-199.097c-0.604,0-1.18-0.262-1.58-0.718c-0.397-0.455-0.58-1.061-0.501-1.661l3.616-26.893
						c0.14-1.042,1.029-1.819,2.08-1.819h163.866c1.159,0,2.099,0.94,2.099,2.099c0,1.159-0.939,2.099-2.099,2.099h-162.029
						l-3.052,22.695h196.696c1.159,0,2.099,0.939,2.099,2.099S1344.699,948.92,1343.54,948.92z"/>
					<polygon points="1618.747,593.946 1082.304,593.946 1085.919,567.053 1622.362,567.053 					"/>
					<polygon points="1656.305,638.287 1187.947,638.287 1191.563,611.393 1657.021,611.393 					"/>
					<path d="M1590.777,729.065h-216.602c-0.605,0-1.182-0.262-1.581-0.717c-0.396-0.455-0.58-1.061-0.5-1.661l3.615-26.893
						c0.14-1.041,1.029-1.819,2.081-1.819h216.602c0.604,0,1.181,0.262,1.58,0.718c0.397,0.455,0.58,1.061,0.5,1.661l-3.615,26.893
						C1592.718,728.288,1591.828,729.065,1590.777,729.065z M1376.575,724.868h212.365l3.052-22.695h-212.365L1376.575,724.868z"/>
					<polygon points="1649.579,771.273 1432.978,771.273 1436.593,744.38 1653.194,744.38 					"/>
					<polygon points="1639.157,682.626 1380.136,682.626 1383.752,655.733 1640.229,655.733 					"/>
					<polygon fill="#FFFFFF" points="1565.097,993.007 1028.652,993.007 1032.269,966.114 1568.711,966.114 					"/>
					<path d="M1417.489,1039.446h-283.19c-0.605,0-1.182-0.261-1.581-0.717c-0.396-0.455-0.58-1.061-0.5-1.661l3.615-26.893
						c0.14-1.041,1.028-1.819,2.081-1.819h269.93c1.161,0,2.099,0.939,2.099,2.099s-0.938,2.099-2.099,2.099H1139.75l-3.052,22.695
						h280.791c1.16,0,2.1,0.94,2.1,2.099C1419.589,1038.506,1418.649,1039.446,1417.489,1039.446z"/>
					<path d="M1566.459,1083.786h-239.971c-0.605,0-1.183-0.261-1.581-0.718c-0.397-0.455-0.581-1.061-0.501-1.661l3.616-26.894
						c0.139-1.04,1.028-1.818,2.08-1.818h227.783c1.159,0,2.098,0.94,2.098,2.099c0,1.159-0.938,2.1-2.098,2.1h-225.947
						l-3.051,22.694h237.571c1.159,0,2.099,0.94,2.099,2.099C1568.558,1082.846,1567.618,1083.786,1566.459,1083.786z"/>
					<polygon fill="#FFFFFF" points="1547.213,1126.027 1010.77,1126.027 1014.386,1099.134 1550.828,1099.134 					"/>
					<path d="M1564.314,1172.466h-447.901c-0.604,0-1.18-0.262-1.58-0.718c-0.397-0.454-0.58-1.061-0.5-1.66l3.615-26.894
						c0.14-1.041,1.028-1.818,2.081-1.818h446.43c1.159,0,2.099,0.938,2.099,2.099c0,1.159-0.939,2.098-2.099,2.098h-444.594
						l-3.052,22.696h445.501c1.161,0,2.1,0.939,2.1,2.099S1565.476,1172.466,1564.314,1172.466z"/>
				</g>
				<g>
					<polygon points="1013.874,770.778 961.615,770.778 965.089,744.942 1017.348,744.942 					"/>
					<polygon points="1057.488,460.93 1003.023,460.93 1006.639,434.037 1061.104,434.037 					"/>
					<polygon points="1062.967,420.174 1008.504,420.174 1012.119,393.281 1066.582,393.281 					"/>
					<polygon points="1051.108,505.271 997.063,505.271 1000.679,478.377 1054.725,478.377 					"/>
					<polygon points="1043.316,549.61 992.018,549.61 995.633,522.717 1046.932,522.717 					"/>
					<polygon points="1037.631,593.951 985.418,593.951 989.032,567.058 1041.247,567.058 					"/>
					<polygon points="1031.395,638.291 979.181,638.291 982.795,611.397 1035.01,611.397 					"/>
					<polygon points="1021.018,725.191 969.271,725.191 972.887,698.298 1024.634,698.298 					"/>
					<polygon points="1025.672,680.851 976.206,680.851 979.822,653.958 1029.287,653.958 					"/>
					<polygon points="995.767,905.465 943.508,905.465 946.98,879.628 999.24,879.628 					"/>
					<polygon points="1002.911,859.878 951.165,859.878 954.78,832.984 1006.525,832.984 					"/>
					<polygon points="1007.564,815.538 958.099,815.538 961.713,788.645 1011.18,788.645 					"/>
					<polygon points="960.506,1167.749 908.246,1167.749 911.72,1141.912 963.979,1141.912 					"/>
					<polygon points="989.947,946.581 938.649,946.581 942.264,919.688 993.563,919.688 					"/>
					<polygon points="984.263,990.921 932.048,990.921 935.663,964.028 987.878,964.028 					"/>
					<polygon points="978.025,1035.261 925.811,1035.261 929.426,1008.368 981.641,1008.368 					"/>
					<polygon points="967.648,1122.161 915.902,1122.161 919.519,1095.268 971.265,1095.268 					"/>
					<polygon points="972.302,1077.821 922.837,1077.821 926.452,1050.928 975.918,1050.928 					"/>
				</g>
				<g>
					<polygon points="780.5,414.282 522.273,414.282 525.746,388.445 783.974,388.445 					"/>
					<path d="M825.876,461.249H553.682c-0.605,0-1.182-0.261-1.58-0.717c-0.398-0.455-0.579-1.061-0.5-1.662l3.615-26.893
						c0.141-1.041,1.028-1.819,2.08-1.819h272.196c0.605,0,1.181,0.261,1.58,0.717c0.398,0.455,0.579,1.061,0.5,1.661l-3.616,26.893
						C827.817,460.471,826.929,461.249,825.876,461.249z M556.082,457.052h267.959l3.052-22.696h-267.96L556.082,457.052z"/>
					<path d="M897.03,505.589H579.907c-0.605,0-1.182-0.262-1.581-0.717c-0.396-0.456-0.578-1.061-0.5-1.662l3.616-26.893
						c0.141-1.042,1.029-1.819,2.081-1.819h317.121c0.607,0,1.183,0.262,1.582,0.717c0.397,0.455,0.579,1.061,0.5,1.661
						l-3.616,26.893C898.971,504.812,898.081,505.589,897.03,505.589z M582.307,501.392h312.888l3.051-22.695H585.359
						L582.307,501.392z"/>
					<path d="M937.688,549.929h-264.64c-0.605,0-1.182-0.261-1.58-0.717c-0.398-0.455-0.58-1.061-0.5-1.661l3.615-26.893
						c0.142-1.042,1.029-1.819,2.08-1.819h264.641c0.605,0,1.182,0.262,1.581,0.717c0.397,0.455,0.579,1.061,0.499,1.661
						l-3.615,26.893C939.629,549.151,938.74,549.929,937.688,549.929z M675.449,545.732h260.404l3.051-22.696H678.5L675.449,545.732
						z"/>
					<polygon points="683.739,769.002 474.584,769.002 478.059,743.166 687.212,743.166 					"/>
					<path d="M687.002,815.97H534.051c-0.605,0-1.182-0.262-1.579-0.718c-0.397-0.455-0.581-1.061-0.5-1.661l3.615-26.893
						c0.14-1.041,1.029-1.819,2.08-1.819h152.951c0.605,0,1.181,0.262,1.579,0.718c0.399,0.455,0.581,1.061,0.5,1.661l-3.614,26.893
						C688.941,815.192,688.054,815.97,687.002,815.97z M536.451,811.772h148.715l3.053-22.695H539.502L536.451,811.772z"/>
					<path d="M741.77,860.31H595.352c-0.605,0-1.182-0.261-1.58-0.718c-0.4-0.455-0.58-1.06-0.501-1.661l3.615-26.893
						c0.141-1.041,1.029-1.819,2.081-1.819h146.417c0.606,0,1.183,0.261,1.58,0.717c0.399,0.455,0.581,1.061,0.501,1.661
						l-3.616,26.893C743.709,859.532,742.819,860.31,741.77,860.31z M597.75,856.112h142.183l3.052-22.695H600.803L597.75,856.112z"
						/>
					<path d="M838.707,904.649H653.419c-0.606,0-1.183-0.261-1.581-0.717c-0.398-0.455-0.58-1.061-0.5-1.661l3.617-26.893
						c0.141-1.041,1.029-1.818,2.08-1.818h185.287c0.606,0,1.181,0.261,1.58,0.717c0.399,0.455,0.579,1.061,0.5,1.661l-3.615,26.893
						C840.646,903.872,839.758,904.649,838.707,904.649z M655.818,900.452h181.053l3.051-22.695H658.87L655.818,900.452z"/>
					<polygon points="688.719,592.17 501.709,592.17 505.324,565.277 692.334,565.277 					"/>
					<path d="M921.132,638.609H632.171c-0.604,0-1.181-0.261-1.58-0.718c-0.397-0.455-0.579-1.061-0.5-1.661l3.616-26.893
						c0.141-1.042,1.029-1.819,2.08-1.819h288.96c0.606,0,1.183,0.262,1.581,0.718c0.398,0.455,0.58,1.061,0.5,1.661l-3.615,26.893
						C923.072,637.832,922.185,638.609,921.132,638.609z M634.571,634.412h284.726l3.05-22.695H637.622L634.571,634.412z"/>
					<polygon points="679.143,680.78 492.133,680.78 495.748,653.888 682.758,653.888 					"/>
					<path d="M911.557,727.22H622.596c-0.606,0-1.182-0.261-1.58-0.717c-0.399-0.455-0.58-1.061-0.5-1.661l3.615-26.894
						c0.141-1.041,1.029-1.819,2.08-1.819h288.962c0.604,0,1.181,0.262,1.579,0.718c0.398,0.455,0.58,1.061,0.501,1.661
						l-3.615,26.894C913.496,726.442,912.607,727.22,911.557,727.22z M624.996,723.022h284.725l3.052-22.696H628.047
						L624.996,723.022z"/>
					<polygon points="683.263,946.363 450.739,946.363 454.214,920.526 686.735,920.526 					"/>
					<path d="M833.795,993.331H454.09c-0.606,0-1.182-0.261-1.581-0.717c-0.398-0.455-0.579-1.061-0.499-1.661l3.615-26.894
						c0.141-1.042,1.029-1.819,2.08-1.819h379.706c0.604,0,1.181,0.261,1.579,0.718c0.398,0.455,0.58,1.061,0.5,1.661l-3.614,26.894
						C835.734,992.553,834.846,993.331,833.795,993.331z M456.489,989.133h375.47l3.051-22.696H459.54L456.489,989.133z"/>
					<path d="M832.506,1037.671h-217.99c-0.606,0-1.183-0.262-1.582-0.717c-0.396-0.455-0.579-1.061-0.499-1.661l3.616-26.894
						c0.141-1.041,1.028-1.819,2.08-1.819h217.991c0.605,0,1.182,0.262,1.58,0.717s0.58,1.061,0.5,1.662l-3.615,26.894
						C834.446,1036.893,833.559,1037.671,832.506,1037.671z M616.914,1033.473h213.758l3.051-22.696H619.965L616.914,1033.473z"/>
					<polygon points="741.081,1124.252 595.299,1124.252 583.51,1097.358 744.697,1097.358 					"/>
					<path d="M876.09,1078.502H667.004c-0.605,0-1.182-0.262-1.58-0.717c-0.4-0.455-0.581-1.061-0.5-1.662l3.615-26.892
						c0.14-1.042,1.027-1.819,2.08-1.819h209.085c0.606,0,1.183,0.261,1.581,0.717c0.398,0.455,0.58,1.061,0.5,1.661l-3.616,26.893
						C878.029,1077.725,877.141,1078.502,876.09,1078.502z M669.404,1074.305h204.849l3.052-22.695H672.454L669.404,1074.305z"/>
					<path d="M784.186,1170.69H617.342c-1.16,0-2.1-0.938-2.1-2.098c0-1.16,0.939-2.1,2.1-2.1h165.009l3.05-22.695H609.59
						c-1.16,0-2.1-0.938-2.1-2.099c0-1.159,0.939-2.098,2.1-2.098h178.211c0.605,0,1.182,0.261,1.58,0.717
						c0.398,0.454,0.58,1.061,0.499,1.661l-3.615,26.893C786.124,1169.913,785.236,1170.69,784.186,1170.69z"/>
				</g>
			</g>
		</g>
		<g>
			<g>
				<g>
					<g>
						<polygon fill="#FFFFFF" points="1834.369,1760.272 1829.132,1810.507 1795.389,1814.488 1795.389,1754.926 						"/>
						<path d="M1795.389,1816.586c-0.51,0-1.008-0.187-1.394-0.529c-0.449-0.398-0.705-0.97-0.705-1.569v-59.562
							c0-0.606,0.263-1.183,0.72-1.581c0.457-0.399,1.066-0.581,1.664-0.498l38.981,5.348c1.123,0.153,1.92,1.17,1.803,2.296
							l-5.239,50.232c-0.102,0.978-0.865,1.753-1.841,1.867l-33.743,3.981C1795.553,1816.581,1795.472,1816.586,1795.389,1816.586z
							 M1797.487,1757.332v54.794l29.729-3.508l4.855-46.541L1797.487,1757.332z"/>
					</g>
					<g>
						<g>
							<path fill="#FFFFFF" d="M1790.075,1901.936c14.065,1.992,37.136,3.745,64.215-0.031c8.854-1.234,14.729-9.896,12.594-18.634
								c-5.96-24.385-16.232-70.655-33.862-92.099l-4.378,11.628l-6.048-10.948c-0.828-1.5-2.316-2.513-4.007-2.729l-13.248-1.69
								c-2.766-0.353-5.339,1.491-5.913,4.239l-2.107,10.088l-8.076-13.225l-3.587,49.396c-0.77,10.583-2.358,21.09-4.754,31.424
								l-3.611,15.58C1776.213,1893.172,1781.901,1900.778,1790.075,1901.936z"/>
							<path d="M1821.975,1906.232c-12.911,0-23.915-1.046-32.195-2.219c-9.258-1.311-15.794-9.991-14.569-19.352l3.648-15.781
								c2.365-10.204,3.948-20.669,4.706-31.101l3.587-49.397c0.065-0.91,0.712-1.674,1.6-1.889c0.883-0.215,1.81,0.168,2.284,0.947
								l5.313,8.701l1.025-4.899c0.791-3.793,4.416-6.387,8.234-5.891l13.248,1.688c2.345,0.299,4.429,1.718,5.576,3.796l3.85,6.968
								l2.777-7.372c0.265-0.701,0.88-1.209,1.621-1.332c0.749-0.119,1.487,0.16,1.963,0.738
								c16.734,20.352,26.915,62.483,32.998,87.656l1.282,5.278c1.16,4.744,0.252,9.783-2.49,13.824
								c-2.73,4.024-7.051,6.717-11.854,7.386C1842.841,1905.62,1831.852,1906.232,1821.975,1906.232z M1790.863,1795.214
								l-3.113,42.869c-0.773,10.65-2.388,21.331-4.8,31.746l-3.613,15.58c-0.892,6.888,4.041,13.459,11.033,14.448
								c14.347,2.032,37.031,3.675,63.631-0.03c3.628-0.507,6.894-2.543,8.957-5.587c2.079-3.061,2.765-6.876,1.886-10.471
								l-1.28-5.288c-5.716-23.645-15.097-62.46-29.906-83.039l-3.049,8.098c-0.289,0.766-0.997,1.295-1.813,1.354
								c-0.85,0.045-1.595-0.363-1.987-1.08l-6.049-10.948c-0.503-0.91-1.414-1.53-2.435-1.66l-13.249-1.689
								c-1.676-0.22-3.246,0.921-3.596,2.585l-2.106,10.088c-0.176,0.842-0.849,1.491-1.697,1.639
								c-0.843,0.148-1.699-0.239-2.147-0.976L1790.863,1795.214z"/>
						</g>
						<path d="M1820.926,1891.312c-17.158,0-27.595-3.673-28.231-3.903c-1.088-0.395-1.65-1.596-1.26-2.686
							c0.394-1.09,1.595-1.655,2.686-1.264c0.222,0.081,22.503,7.859,55.37,0.322c1.13-0.26,2.255,0.445,2.515,1.576
							c0.261,1.13-0.446,2.256-1.576,2.516C1839.238,1890.439,1829.283,1891.312,1820.926,1891.312z"/>
						<path d="M1837.22,1852.718c-0.025,0-0.047,0-0.072-0.001l-31.628-1.051c-1.158-0.039-2.065-1.009-2.026-2.167
							c0.039-1.16,1.044-2.089,2.166-2.028l31.627,1.052c1.158,0.038,2.066,1.009,2.027,2.167
							C1839.277,1851.824,1838.345,1852.718,1837.22,1852.718z"/>
					</g>
				</g>
				<g>
					<g>
						<polygon fill="#FFFFFF" points="1676.323,1733.527 1671.267,1806.832 1630.664,1806.832 1628.776,1733.527 						"/>
						<path d="M1671.268,1808.931h-40.604c-1.138,0-2.067-0.907-2.099-2.045l-1.888-73.305c-0.014-0.565,0.201-1.113,0.597-1.519
							c0.394-0.405,0.937-0.634,1.502-0.634h47.547c0.582,0,1.138,0.241,1.536,0.667c0.395,0.426,0.598,0.996,0.559,1.576
							l-5.057,73.305C1673.285,1808.077,1672.369,1808.931,1671.268,1808.931z M1632.71,1804.732h36.598l4.768-69.107h-43.145
							L1632.71,1804.732z"/>
					</g>
					<g>
						<g>
							<path fill="#FFFFFF" d="M1681.874,1848.215c0.103,6.936-4.604,13.023-11.316,14.596
								c-23.343,5.469-75.924,17.643-90.923,19.892c-19.467,2.918-43.392-3.086-53.677-14.547s23.033-38.828,38.845-48.784
								c23.491-14.792,46.057-44.025,55.521-45.342c9.463-1.315,27.126,26.317,27.126,26.317l28.874-12.207
								C1676.323,1788.14,1681.355,1813.045,1681.874,1848.215z"/>
							<path d="M1569.459,1885.535c-17.902,0.001-36.345-6.263-45.063-15.979c-2.017-2.246-2.806-5.054-2.347-8.343
								c2.013-14.417,28.92-35.613,41.634-43.62c11.537-7.264,22.736-17.958,32.615-27.394
								c10.635-10.157,18.319-17.497,23.734-18.249c9.484-1.328,23.627,18.82,28.217,25.779l27.256-11.523
								c0.584-0.245,1.242-0.217,1.798,0.077c0.558,0.294,0.952,0.822,1.077,1.439c0.05,0.251,5.075,25.501,5.592,60.461
								c0.117,7.875-5.325,14.885-12.936,16.67c-22.345,5.234-75.947,17.653-91.091,19.923
								C1576.527,1885.291,1573.001,1885.535,1569.459,1885.535z M1621.041,1776.078c-0.146,0-0.291,0.011-0.431,0.031
								c-4.072,0.564-12.495,8.609-21.413,17.127c-10.022,9.571-21.381,20.421-33.275,27.91
								c-13.013,8.194-38.022,28.53-39.716,40.647c-0.282,2.037,0.146,3.658,1.314,4.959c9.596,10.695,32.349,16.786,51.804,13.874
								c14.991-2.248,68.46-14.638,90.754-19.859c5.706-1.338,9.785-6.603,9.697-12.521c-0.416-28.224-3.79-49.979-5.044-57.154
								l-26.465,11.188c-0.943,0.399-2.035,0.061-2.587-0.803C1638.819,1790.748,1626.827,1776.078,1621.041,1776.078z"/>
						</g>
						<path d="M1569.751,1867.567c-12.691,0-24.045-2.085-32.239-7.457c-0.969-0.636-1.24-1.937-0.604-2.906
							c0.634-0.968,1.939-1.238,2.904-0.605c30.11,19.736,110.366-9.463,126.146-15.515c1.087-0.418,2.298,0.126,2.713,1.208
							c0.416,1.083-0.126,2.296-1.207,2.711C1650.802,1851.393,1605.093,1867.567,1569.751,1867.567z"/>
						<path d="M1614.86,1827.682c-0.531,0-1.06-0.199-1.468-0.6l-16.819-16.471c-0.83-0.811-0.842-2.14-0.033-2.968
							c0.814-0.828,2.143-0.841,2.969-0.03l16.818,16.47c0.831,0.811,0.843,2.141,0.033,2.969
							C1615.948,1827.472,1615.405,1827.682,1614.86,1827.682z"/>
					</g>
				</g>
				<g>
					<g>
						<path fill="#FFFFFF" d="M1845.884,1255.641c0,0,12.581,229.161,19.165,308.27s-15.396,206.27-15.396,206.27l-62.672-3.314
							c0,0-4.296-154.613-8.952-197.549c0,0-26.472-58.205-34.318-110.116c-7.846-51.911-34.573-133.908-34.573-133.908
							s-21.704,409.259-23.797,441.412c0,0-49.146,2.203-66.765-8.956c0,0-31.221-149.229-26.737-230.42
							c4.482-81.19-0.441-282.916-0.441-282.916L1845.884,1255.641z"/>
						<path d="M1849.654,1772.278c-0.039,0-0.076-0.001-0.113-0.003l-62.673-3.314c-1.092-0.058-1.957-0.944-1.987-2.037
							c-0.041-1.542-4.323-154.232-8.904-197.05c-2.1-4.696-26.837-60.713-34.343-110.36c-6.036-39.943-23.517-98.46-31.013-122.57
							c-3.547,66.799-21.314,401.144-23.187,429.896c-0.07,1.068-0.934,1.912-2.001,1.961c-2.039,0.092-50.01,2.103-67.98-9.279
							c-0.48-0.304-0.816-0.789-0.932-1.344c-0.313-1.494-31.228-150.431-26.779-230.966c4.428-80.179-0.396-280.731-0.444-282.749
							c-0.015-0.581,0.213-1.143,0.629-1.549s0.978-0.613,1.562-0.599l254.487,11.229c1.078,0.047,1.944,0.904,2.003,1.98
							c0.125,2.292,12.655,230.038,19.16,308.21c6.531,78.468-15.2,205.527-15.419,206.803
							C1851.547,1771.548,1850.669,1772.278,1849.654,1772.278z M1789.022,1764.871l58.871,3.114
							c2.642-15.918,21.121-131.112,15.064-203.901c-6.193-74.422-17.838-284.198-19.064-306.431l-250.346-11.045
							c0.519,22.385,4.569,205.096,0.384,280.835c-4.237,76.743,23.947,216.471,26.516,228.985
							c15.486,9.002,53.96,8.492,62.917,8.242c2.66-43.28,23.464-435.466,23.677-439.489c0.056-1.011,0.819-1.839,1.821-1.969
							c0.992-0.131,1.958,0.468,2.271,1.429c0.267,0.821,26.871,82.758,34.65,134.245c7.71,51.015,33.893,108.982,34.155,109.562
							c0.092,0.204,0.15,0.42,0.176,0.643C1784.446,1609.015,1788.506,1746.863,1789.022,1764.871z"/>
					</g>
					<path d="M1808.729,1571.402h-19.161c-1.159,0-2.099-0.939-2.099-2.099s0.939-2.099,2.099-2.099h19.161
						c1.159,0,2.099,0.939,2.099,2.099S1809.888,1571.402,1808.729,1571.402z"/>
					<path d="M1653.106,1690.43c-1.143,0-2.079-0.915-2.1-2.062c-0.668-36.727-42.677-105.792-43.101-106.486
						c-0.607-0.988-0.295-2.279,0.693-2.886c0.986-0.604,2.279-0.293,2.885,0.695c1.757,2.87,43.031,70.734,43.72,108.602
						c0.021,1.158-0.901,2.114-2.061,2.137C1653.13,1690.43,1653.118,1690.43,1653.106,1690.43z"/>
				</g>
			</g>
			<g>
				<g>
					<path fill="#FFFFFF" d="M1552.768,893.115c-3.477-0.274-32.358,49.312-45.942,72.988c-3.862,6.731-12.474,8.922-19.057,4.858
						l-106.198-65.559c-8.666-5.35-16.109-12.518-21.714-21.056c-8.869-13.515-14.146-27.253-26.018-36.852
						c-9.656-7.809-19.436-16.485-22.363-18.755c-1.828-1.419-10.352,4.642-3.935,15.408c1.972,3.307,9.34,10.012,11.356,13.056
						c3.216,4.855,3.215,11.319-0.359,15.912c-3.813,4.898-6.992,12.744-2.712,23.665c6.328,16.151,20.671,20.149,28.792,21.088
						c4.079,0.472,7.827,2.448,10.537,5.554l98.001,112.295c15.204,17.422,40.624,21.357,60.32,9.326
						c31.863-19.463,72.885-58.684,102.435-108.26L1552.768,893.115z"/>
					<path d="M1488.842,1054.099c-13.869,0-27.547-5.86-37.268-17l-98.002-112.295c-2.369-2.716-5.634-4.438-9.196-4.85
						c-8.498-0.981-23.761-5.199-30.504-22.407c-4.708-12.015-0.961-20.618,3.009-25.718c2.968-3.813,3.077-9.225,0.267-13.465
						c-0.835-1.258-2.929-3.468-4.956-5.604c-2.595-2.734-5.275-5.562-6.453-7.535c-4.646-7.793-2.396-14.005,0.94-16.958
						c2.128-1.884,4.572-2.356,6.084-1.185c1.266,0.981,3.729,3.087,6.849,5.752c4.201,3.591,9.956,8.509,15.548,13.028
						c8.696,7.033,13.892,16.058,19.393,25.612c2.208,3.841,4.495,7.813,7.06,11.721c5.355,8.16,12.638,15.221,21.062,20.421
						l106.198,65.56c2.693,1.665,5.862,2.152,8.918,1.374c3.07-0.778,5.632-2.728,7.217-5.49
						c42.701-74.437,45.819-74.179,47.928-74.037c0.369,0.029,0.724,0.156,1.026,0.367l63.145,43.67
						c0.91,0.627,1.175,1.852,0.61,2.801c-31.773,53.3-74.113,91.241-103.144,108.975
						C1506.563,1051.726,1497.662,1054.099,1488.842,1054.099z M1310.563,830.693c-0.574,0.214-1.711,1.014-2.492,2.527
						c-0.974,1.888-1.543,5.131,1.272,9.854c0.937,1.574,3.568,4.348,5.891,6.796c2.251,2.371,4.377,4.611,5.413,6.175
						c3.804,5.747,3.622,13.125-0.455,18.362c-4.802,6.168-5.613,13.439-2.414,21.609c5.943,15.164,19.518,18.896,27.081,19.77
						c4.602,0.531,8.819,2.753,11.878,6.258l98.002,112.295c14.55,16.678,38.799,20.429,57.642,8.915
						c28.298-17.285,69.458-54.102,100.718-105.861l-60.371-41.752c-3.726,3.817-16.94,24.198-44.082,71.508
						c-2.153,3.756-5.643,6.409-9.824,7.47c-4.17,1.062-8.487,0.394-12.156-1.871l-106.197-65.56
						c-8.942-5.521-16.676-13.021-22.365-21.69c-2.631-4.011-4.95-8.038-7.19-11.93c-5.297-9.206-10.303-17.9-18.393-24.441
						c-5.635-4.556-11.414-9.495-15.635-13.102C1314.102,833.646,1311.847,831.72,1310.563,830.693z"/>
				</g>
				<g>
					<path d="M1917.256,985.337c0,0,7.064-130.548-91.626-167.222c-76.425-28.399-174.015-16.149-204.6-5.54
						c-75.304,26.122-112.371,125.618-112.371,125.618l88.255,12.437c0,0-26.601,285.871-15.063,349.629
						c0,0,71.023,8.338,101.146-3.604c30.124-11.941,129.17-28.672,176.517-6.776l-8.604-305.768L1917.256,985.337z"/>
					<path fill="#FFFFFF" d="M1631.966,1305.223c-25.337,0-48.686-2.683-50.358-2.88c-0.918-0.107-1.656-0.802-1.821-1.71
						c-11.079-61.229,12.319-320.634,14.854-348.204l-86.273-12.158c-0.63-0.089-1.185-0.458-1.511-1.004
						c-0.326-0.546-0.385-1.211-0.164-1.806c0.375-1.004,38.285-100.725,113.65-126.867c33.384-11.579,131.19-22.25,206.018,5.554
						c41.005,15.237,70.091,49.387,84.112,98.758c10.543,37.129,8.896,70.216,8.88,70.546c-0.062,1.115-0.983,1.985-2.096,1.985
						c-0.014,0-0.025,0-0.04,0l-64.148-1.188l8.543,303.57c0.021,0.726-0.336,1.411-0.943,1.812
						c-0.605,0.399-1.376,0.459-2.037,0.152c-47.265-21.856-145.232-4.922-174.861,6.824
						C1670.845,1303.73,1650.851,1305.222,1631.966,1305.223z M1583.652,1298.345c10.543,1.118,71.727,7.004,98.572-3.641
						c29.487-11.691,125.729-28.372,175.098-8.071l-8.513-302.464c-0.015-0.574,0.205-1.128,0.606-1.536
						c0.406-0.408,1.007-0.607,1.531-0.622l64.273,1.19c0.316-16.592-0.901-129.89-90.323-163.119
						c-73.835-27.438-170.277-16.936-203.178-5.523c-66.986,23.235-103.826,106.558-110.123,121.929l85.609,12.064
						c1.109,0.157,1.9,1.157,1.799,2.272C1598.74,953.657,1572.975,1232.65,1583.652,1298.345z"/>
				</g>
				<path fill="#FFFFFF" d="M1794.247,1228.961c-0.12,0-0.245-0.01-0.368-0.032c-115.206-20.494-148.902-101.225-149.229-102.037
					c-0.432-1.075,0.089-2.297,1.164-2.729c1.066-0.43,2.296,0.086,2.73,1.162c0.32,0.791,33.26,79.403,146.067,99.473
					c1.142,0.203,1.902,1.292,1.699,2.434C1796.131,1228.246,1795.245,1228.961,1794.247,1228.961z"/>
				<g>
					<polygon fill="#FFFFFF" points="1583.679,1090.496 1728.268,1090.496 1682.979,927.925 1538.392,927.925 					"/>
					<path d="M1728.269,1092.597H1583.68c-0.943,0-1.77-0.629-2.021-1.536l-45.288-162.572c-0.176-0.632-0.046-1.311,0.351-1.833
						c0.396-0.522,1.015-0.829,1.671-0.829h144.589c0.943,0,1.769,0.628,2.021,1.535l45.287,162.572
						c0.176,0.633,0.048,1.311-0.35,1.834C1729.544,1092.289,1728.924,1092.597,1728.269,1092.597z M1585.274,1088.398h140.231
						l-44.119-158.375h-140.232L1585.274,1088.398z"/>
				</g>
				<g>
					<path fill="#FFFFFF" d="M1900.12,985.457l-63.585-2.887c0,0-0.479,53.897-6.215,54.86c-20.439,3.429-63.243,3.599-91.101,0.215
						c-9.701-1.179-17.384-8.651-19.207-18.314c-1.379-7.298-5.304-15.87-15.263-22.04c-9.627-5.963-0.134,12.799-9.135,24.88
						c-4.837,6.491-20.146,3.614-41.024-1.254c-20.877-4.867-26.179,17.589-2.78,31.163c25.367,14.714,41.484,13.062,49.573,14.784
						c16.112,3.433,158.578,25.907,180.568,13.877C1898.942,1071.445,1900.12,985.457,1900.12,985.457z"/>
					<path d="M1854.315,1086.383c-50.814,0-145.309-15.75-153.367-17.467c-1.62-0.344-3.686-0.556-6.08-0.801
						c-9.47-0.966-23.778-2.426-44.111-14.221c-14.731-8.544-18.34-20.259-15.458-27.526c2.123-5.358,8.435-10.134,19.771-7.497
						c18.823,4.391,34.746,7.575,38.862,2.046c4.021-5.398,3.962-12.524,3.919-17.726c-0.035-4.295-0.062-7.398,2.242-8.693
						c1.94-1.093,4.218,0.052,5.762,1.008c8.74,5.414,14.35,13.519,16.22,23.435c1.678,8.881,8.669,15.56,17.397,16.62
						c27.452,3.335,69.459,3.257,90.191-0.149c2.69-3.28,4.567-29.764,4.772-52.86c0.006-0.57,0.242-1.113,0.655-1.506
						c0.413-0.392,0.971-0.599,1.538-0.573l63.585,2.887c1.134,0.052,2.019,0.992,2.004,2.126
						c-0.122,8.926-1.701,87.489-19.258,97.096C1878.002,1085.294,1867.66,1086.383,1854.315,1086.383z M1649.106,1022.345
						c-4.854,0-8.477,1.963-9.905,5.569c-2.239,5.648,1.082,15.051,13.662,22.348c19.551,11.342,33.321,12.748,42.431,13.678
						c2.516,0.256,4.687,0.478,6.526,0.87c16.421,3.498,158.021,25.633,179.128,14.088c12.692-6.943,16.538-66.481,17.038-91.437
						l-59.384-2.696c-0.071,4.376-0.295,14.706-0.929,25.003c-1.639,26.626-4.359,29.288-7.007,29.731
						c-20.935,3.511-63.786,3.619-91.7,0.229c-10.553-1.282-18.999-9.322-21.016-20.008c-1.671-8.854-6.485-15.8-14.307-20.646
						c-0.677-0.418-1.128-0.625-1.407-0.727c-0.222,0.973-0.204,3.153-0.189,4.808c0.045,5.471,0.115,13.739-4.75,20.269
						c-5.658,7.594-21.466,4.598-43.184-0.465C1652.341,1022.547,1650.66,1022.345,1649.106,1022.345z"/>
				</g>
			</g>
			<g>
				<g>
					<g>
						<path fill="#FFFFFF" d="M1681.165,814.903c0,0,16.464-10.131,16.303-16.052l4.7-30.404c0.047-2.784-1.671-5.283-4.258-6.196
							l-19.471-6.685c-2.481-0.875-4.081-3.324-3.914-5.987l1.518-24.162l-7.631-6.756c-0.599-0.53-0.672-1.443-0.164-2.062
							l12.054-14.688c3.942-5.55,7.898-18.832,11.125-17.922c0,0,68.684-7.935,72.032,26.699c0.484,5.013-1.023,10.022-3.931,14.12
							l-6.084,8.576c-6.108,8.612-9.324,19.166-8.24,29.72c0.226,2.192,3.078,16.308,4.988,25.641
							c1.086,5.299,4.027,10.011,8.296,13.298c5.366,4.133,11.898,9.396,10.832,9.737c0,0-7.606,5.586-19.613,10.537
							c-21.324,8.792-45.574,6.605-65.279-5.421L1681.165,814.903z"/>
						<path d="M1722.611,829.744c-13.627,0-27.273-3.731-39.274-11.058l-3.265-1.992c-0.623-0.38-1.004-1.056-1.007-1.787
							c-0.001-0.729,0.377-1.409,0.998-1.792c7.424-4.57,15.386-11.3,15.305-14.206c-0.002-0.125,0.006-0.252,0.024-0.377
							l4.675-30.249c-0.02-1.833-1.155-3.452-2.856-4.052l-19.455-6.68c-3.368-1.189-5.55-4.52-5.325-8.104l1.454-23.138
							l-6.864-6.077c-1.452-1.285-1.626-3.466-0.395-4.965l12.052-14.687c1.294-1.831,2.756-4.967,4.165-7.998
							c2.902-6.234,5.229-11.199,8.677-10.715c4.438-0.478,45.296-4.393,64.403,11.051c5.705,4.61,8.943,10.521,9.624,17.568
							c0.521,5.37-1.009,10.887-4.307,15.536l-6.083,8.577c-6.066,8.553-8.86,18.601-7.864,28.291
							c0.092,0.913,0.863,5.433,4.956,25.434c0.981,4.795,3.652,9.077,7.521,12.058c12.133,9.345,11.981,10.21,11.73,11.643
							c-0.098,0.552-0.465,1.094-0.939,1.443c-0.318,0.234-7.949,5.799-20.054,10.791
							C1741.597,827.93,1732.109,829.744,1722.611,829.744z M1685.112,814.853l0.41,0.251c19.231,11.737,42.926,13.708,63.385,5.272
							c8.414-3.47,14.67-7.29,17.498-9.148c-1.242-1.165-3.827-3.386-9.198-7.523c-4.666-3.594-7.888-8.758-9.069-14.54
							c-3.15-15.39-4.84-24.086-5.021-25.848c-1.1-10.703,1.961-21.765,8.618-31.148l6.083-8.576
							c2.715-3.827,3.975-8.338,3.552-12.703c-0.578-5.969-3.222-10.779-8.082-14.708c-18.438-14.902-61.193-10.157-61.619-10.109
							c-0.143,0.017-0.28,0.018-0.42,0.007c-1.155,0.875-3.297,5.478-4.599,8.272c-1.489,3.203-3.033,6.515-4.637,8.774
							l-11.771,14.351l7.193,6.369c0.483,0.429,0.743,1.057,0.702,1.703l-1.517,24.162c-0.107,1.722,0.927,3.315,2.519,3.877
							l19.454,6.68c3.461,1.222,5.734,4.522,5.673,8.217c-0.002,0.095-0.01,0.19-0.024,0.285l-4.676,30.244
							C1699.468,804.443,1690.242,811.399,1685.112,814.853z"/>
					</g>
					<path d="M1689.142,631.277c15.65-0.805-4.14,15.324,53.842-1.34c23.09-6.636,11.229,20.453,17.224,18.748
						c22.138-6.298,21.376-6.107,32.137-3.17c7.124,1.944,11.671,15.274,10.253,25.2c-1.873,13.102-16.569,33.901-29.73,55.886
						c-6.814,11.384-18.882,12.416-33.475-4.528c-1.554-1.804,6.386-12.427,2.241-17.007c-10.77-11.905-15.556,6.078-24.249,0.527
						c-8.348-5.33-11.796-8.777-20.618-16.836c-10.675-9.752-28.598,5.425-34.78-16.523
						C1658.762,660.785,1667.716,632.379,1689.142,631.277z"/>
				</g>
			</g>
		</g>
		<g>
			<g>
				<g>
					<g>
						<g>
							<path fill="#FFFFFF" d="M1176.805,1830.91c0,0,4.791,0.019,9.382-3.236c14.2-10.069,43.722-32.56,63.89-29.75
								c33.776,4.705,37.777,32.283,37.777,32.283s28.486-1.057,27.918,17.896c-0.436,14.55-8.721,33.033-31.752,43.206
								c-31.396,13.866-62.867,24.43-97.604,1.672c-6.743-4.419-14.746-6.479-22.763-5.671
								c-19.518,1.965-310.381,8.229-310.381,8.229c-66.534,0-127.575-36.919-158.469-95.847l-61.308-116.937l70.239-196.257
								l110.142,255.867C867.241,1815.204,1171.249,1832.176,1176.805,1830.91z"/>
							<path d="M1228.823,1908.264c-14.07,0-28.578-3.712-43.558-13.527c-6.394-4.188-13.993-6.082-21.402-5.338
								c-19.377,1.952-298.666,7.984-310.546,8.24c-67.58,0-129.014-37.157-160.373-96.971l-61.307-116.938
								c-0.272-0.52-0.313-1.129-0.116-1.682l70.239-196.256c0.289-0.812,1.048-1.364,1.91-1.391
								c0.854-0.05,1.652,0.477,1.993,1.268l110.046,255.646c51.723,69.887,348.972,88.989,360.726,87.528
								c0.152-0.035,0.209-0.036,0.371-0.033c0.125-0.003,4.262-0.083,8.165-2.85l3.297-2.353
								c15.913-11.401,42.543-30.488,62.097-27.764c29.817,4.154,37.527,25.82,39.172,32.258c4.564,0.083,16.783,0.962,23.604,7.732
								c3.285,3.262,4.876,7.41,4.729,12.33c-0.22,7.248-3.24,31.919-33.003,45.063
								C1266.978,1901.131,1248.321,1908.264,1228.823,1908.264z M1167.034,1885.042c7.19,0,14.364,2.144,20.531,6.184
								c34.011,22.282,64.63,11.845,95.605-1.836c27.516-12.152,30.303-34.722,30.503-41.349c0.111-3.761-1.027-6.777-3.483-9.22
								c-7.016-6.977-22.108-6.52-22.263-6.516c-0.023,0.001-0.05,0.001-0.075,0.001c-1.038,0-1.927-0.762-2.077-1.798
								c-0.159-1.059-4.261-26.086-35.988-30.506c-17.879-2.482-44.679,16.704-59.076,27.019l-3.312,2.365
								c-5.089,3.607-10.443,3.578-10.603,3.622c-7.28,0.402-83.241-3.755-163.855-16.509
								c-76.035-12.03-172.583-34.44-200.756-72.894c-0.094-0.126-0.173-0.266-0.235-0.409l-108.033-250.973l-68.133,190.372
								l60.879,116.122c30.631,58.427,90.641,94.722,156.609,94.722c2.863-0.063,290.959-6.284,310.169-8.22
								C1164.637,1885.101,1165.838,1885.042,1167.034,1885.042z"/>
						</g>
						<g>
							<g>
								<path fill="#FFFFFF" d="M1100.385,1778.308l28.129-49.237l23.09,14.981c1.273,0.826,2.337,1.942,3.099,3.255l1.38,2.378
									c1.738,2.993,4.955,4.834,8.375,4.793c1.855-0.022,3.691,0.512,5.27,1.534l171.715,111.213
									c1.416,0.917,2.707,2.018,3.838,3.271l34.701,38.468l-48.301-10.912c-2.631-0.595-5.18-1.531-7.583-2.788l-180.711-94.475
									c-1.543-0.807-2.843-2.02-3.755-3.503l-0.229-0.372c-1.753-2.852-4.866-4.599-8.172-4.586l-1.67,0.007
									c-1.53,0.005-3.048-0.367-4.419-1.084L1100.385,1778.308z"/>
								<path d="M1379.981,1911.062c-0.153,0-0.308-0.017-0.463-0.052l-48.303-10.912c-2.805-0.634-5.528-1.635-8.09-2.975
									l-180.712-94.476c-1.879-0.981-3.459-2.456-4.571-4.264l-0.227-0.369c-1.363-2.216-3.794-3.589-6.353-3.589
									c-0.009,0-0.018,0-0.025,0l-1.67,0.006c-0.018,0-0.032,0-0.046,0c-1.849,0-3.697-0.456-5.354-1.321l-24.755-12.942
									c-0.507-0.265-0.882-0.723-1.044-1.27c-0.159-0.547-0.09-1.137,0.193-1.632l28.129-49.237
									c0.287-0.501,0.766-0.862,1.326-0.998c0.562-0.137,1.153-0.036,1.637,0.278l23.089,14.981
									c1.542,0.998,2.847,2.368,3.771,3.961l1.382,2.377c1.347,2.32,3.81,3.752,6.447,3.752c0.072-0.001,0.152-0.004,0.234-0.002
									c2.225,0,4.396,0.645,6.288,1.871l171.715,111.213c1.571,1.019,3.004,2.238,4.255,3.627l34.702,38.467
									c0.613,0.68,0.716,1.677,0.254,2.466C1381.41,1910.676,1380.715,1911.062,1379.981,1911.062z M1131.264,1790.229
									c4.008,0,7.809,2.138,9.925,5.586l0.228,0.368c0.718,1.166,1.734,2.113,2.941,2.745l180.712,94.476
									c2.242,1.171,4.621,2.046,7.073,2.6l41.85,9.454l-30.271-33.555c-1.008-1.117-2.157-2.099-3.422-2.916l-171.714-111.213
									c-1.236-0.801-2.632-1.261-4.102-1.197c-0.046,0-0.092,0.001-0.138,0.001c-4.134,0-7.985-2.229-10.078-5.841l-1.381-2.376
									c-0.596-1.024-1.435-1.905-2.427-2.547l-21.226-13.773l-25.948,45.417l22.827,11.934c1.067,0.557,2.223,0.83,3.437,0.844
									l1.671-0.006C1131.235,1790.229,1131.25,1790.229,1131.264,1790.229z"/>
							</g>
							<path d="M1332.759,1891.06c-0.324,0-0.654-0.075-0.961-0.233c-1.029-0.532-1.433-1.798-0.901-2.829l10.314-19.98
								c0.533-1.027,1.798-1.432,2.829-0.901c1.029,0.532,1.433,1.798,0.901,2.828l-10.314,19.98
								C1334.253,1890.646,1333.52,1891.06,1332.759,1891.06z"/>
							<g>
								<path d="M1088.514,1704.689l40.922,24.731l-28.871,49.16l-40.922-24.731c-7.498-4.531-10.067-14.176-5.741-21.544
									l13.203-22.481C1071.431,1702.457,1081.016,1700.158,1088.514,1704.689z"/>
								<path d="M1100.564,1780.68c-0.38,0-0.755-0.102-1.088-0.302l-40.922-24.731c-8.462-5.117-11.363-16.063-6.464-24.403
									l13.203-22.481c2.343-3.988,6.114-6.813,10.619-7.954c4.652-1.176,9.511-0.437,13.688,2.085l40.92,24.732
									c0.982,0.594,1.306,1.867,0.724,2.858l-28.87,49.161c-0.285,0.483-0.75,0.833-1.296,0.971
									C1100.909,1780.659,1100.736,1780.68,1100.564,1780.68z M1080.271,1704.46c-1.11,0-2.226,0.139-3.325,0.417
									c-3.41,0.863-6.263,2.998-8.031,6.01l-13.203,22.482c-3.741,6.37-1.491,14.751,5.017,18.685l39.103,23.632l26.745-45.54
									l-39.147-23.659C1085.214,1705.146,1082.753,1704.46,1080.271,1704.46z"/>
							</g>
							<path d="M1140.863,1787.406c-0.369,0-0.742-0.097-1.08-0.302c-0.994-0.597-1.313-1.888-0.715-2.88l13.924-23.125
								c0.597-0.994,1.89-1.314,2.88-0.715c0.994,0.598,1.314,1.888,0.715,2.88l-13.925,23.125
								C1142.27,1787.044,1141.574,1787.406,1140.863,1787.406z"/>
							<path d="M1223.042,1806.962c-0.381,0-0.767-0.104-1.112-0.32l-51.242-32.164c-0.982-0.616-1.279-1.911-0.663-2.894
								c0.617-0.979,1.912-1.275,2.893-0.662l51.242,32.163c0.981,0.618,1.278,1.912,0.662,2.895
								C1224.424,1806.614,1223.74,1806.962,1223.042,1806.962z"/>
							<path d="M1329.86,1873.218c-0.378,0-0.763-0.102-1.106-0.315l-20.017-12.464c-0.984-0.612-1.284-1.907-0.672-2.892
								s1.908-1.282,2.89-0.673l20.017,12.463c0.983,0.613,1.286,1.908,0.672,2.893
								C1331.245,1872.868,1330.562,1873.218,1329.86,1873.218z"/>
							<path fill="#FFFFFF" d="M1096.002,1760.922c-0.376,0-0.755-0.101-1.097-0.311l-31.184-19.147
								c-0.987-0.606-1.297-1.898-0.69-2.887c0.608-0.989,1.9-1.297,2.889-0.689l31.183,19.147c0.987,0.606,1.296,1.898,0.689,2.887
								C1097.396,1760.566,1096.706,1760.922,1096.002,1760.922z"/>
						</g>
						<path fill="#FFFFFF" d="M1176.805,1830.91c0,0,41.914-5.219,68.604-1.519c20.785,2.881,82.315-11.892,69.46,27.911
							c-2.768,8.57-4.229,14.28-11.845,22.367c-4.166,4.421-15.57,13.535-22.029,16.388c-31.427,13.88-59.905,19.694-94.683-3.145
							c-6.697-4.399-14.68-6.407-22.649-5.604C1159.019,1887.777,1175.333,1831.245,1176.805,1830.91z"/>
						<path d="M1233.146,1910.339c-15.375,0.001-30.992-4.51-47.985-15.671c-6.312-4.145-13.853-6.016-21.287-5.271
							c-5.115,0.516-21.519,1.086-22.216,1.11c-1.158,0.061-2.129-0.865-2.168-2.025c-0.042-1.158,0.864-2.13,2.024-2.17
							c0.168-0.005,16.958-0.591,21.938-1.092c8.373-0.84,16.901,1.266,24.013,5.938c33.29,21.861,60.142,17.35,92.681,2.979
							c6.018-2.658,17.223-11.527,21.351-15.909c6.774-7.193,8.388-12.233,10.826-19.864l0.549-1.706
							c2.385-7.383,2.176-12.797-0.642-16.554c-6.242-8.327-24.808-7.801-41.196-7.345c-10.304,0.29-20.037,0.564-26.249-1.365
							c-31.662-9.834-66.978,1.396-67.331,1.511c-1.749,0.405-6.308,0.268-17.008-0.461c-1.155-0.079-2.029-1.081-1.951-2.237
							c0.08-1.155,1.057-2.029,2.237-1.951c9.3,0.634,14.544,0.837,15.607,0.606c1.308-0.434,36.731-11.715,69.691-1.477
							c5.542,1.723,14.939,1.459,24.884,1.179c17.412-0.491,37.129-1.044,44.676,9.024c3.642,4.856,4.07,11.707,1.274,20.359
							l-0.543,1.693c-2.521,7.885-4.343,13.58-11.771,21.465c-4.34,4.607-16.045,13.927-22.709,16.869
							C1265.03,1905.402,1249.222,1910.338,1233.146,1910.339z"/>
					</g>
					<g>
						<path fill="#FFFFFF" d="M532.307,1348.988c0,0,129.077,17.102,171.945,69.339c54.294,66.156,77.696,164.452,85.301,206.937
							c2.233,12.479,1.968,25.268-0.787,37.642l-3.158,14.189c-11.149,50.086-56.831,84.803-108.073,82.134l2.565,0.008
							c-8.281-0.432-20.363-3.169-23.871-10.685l-13.561-24.742l-1.274,8.917c-10.195,65.831,43.01,156.01,43.01,156.01
							l-152.669-20.598c-78.438-7.875-153.078-38.78-212.957-90.053c-32.514-27.84-57.652-53.884-68.497-85.518
							c-18.415-53.71-16.733-69.016-21.897-134.181c-3.518-44.37,9.504-88.697,37.332-123.434
							C306.613,1383.906,385.342,1330.344,532.307,1348.988z"/>
						<path d="M684.404,1890.835c-0.094,0-0.187-0.006-0.281-0.018l-152.67-20.599c-80.238-8.055-154.275-39.365-214.04-90.539
							c-29.03-24.857-57.497-52.532-69.118-86.43c-15.564-45.396-16.848-63.42-19.947-106.962
							c-0.584-8.215-1.234-17.34-2.058-27.734c-3.617-45.623,9.804-89.983,37.787-124.912
							c40.079-50.022,119.185-105.68,268.493-86.735c0.004,0.002,0.007,0.002,0.012,0.003
							c5.305,0.702,130.392,17.811,173.293,70.087c57.594,70.177,80.19,176.869,85.744,207.896
							c2.295,12.818,2.023,25.762-0.804,38.47l-3.159,14.188c-11.414,51.273-57.736,86.51-110.232,83.774
							c-0.352-0.019-0.678-0.123-0.963-0.292c-9.102-1.069-18.844-4.541-22.135-11.595l-10.471-19.1l-0.385,2.685
							c-9.969,64.37,42.212,153.751,42.741,154.646c0.409,0.692,0.386,1.557-0.06,2.227
							C685.761,1890.488,685.102,1890.835,684.404,1890.835z M475.1,1347.317c-111.135,0-173.759,46.527-207.746,88.949
							c-27.313,34.091-40.41,77.402-36.879,121.955c0.825,10.407,1.475,19.544,2.061,27.768
							c3.072,43.157,4.344,61.021,19.729,105.899c11.298,32.947,39.299,60.132,67.878,84.602
							c59.109,50.614,132.35,81.584,211.802,89.56l148.531,20.038c-9.987-17.877-50.298-94.651-41.156-153.682l1.272-8.894
							c0.127-0.895,0.813-1.606,1.701-1.768c0.883-0.152,1.782,0.265,2.215,1.057l13.563,24.741c3,6.42,13.791,9.162,22.139,9.598
							c0.2,0.011,0.39,0.048,0.569,0.109c49.07,1.12,92.041-32.367,102.78-80.611l3.159-14.189
							c2.708-12.161,2.966-24.548,0.77-36.816c-5.509-30.775-27.906-136.582-84.857-205.975
							c-41.859-51.005-169.315-68.419-170.599-68.589C511.777,1348.501,492.82,1347.317,475.1,1347.317z"/>
					</g>
					<path d="M651.43,1749.148c-0.783,0-1.535-0.441-1.896-1.197l-36.151-75.92c-0.498-1.047-0.055-2.299,0.992-2.797
						c1.045-0.495,2.298-0.056,2.797,0.992l36.152,75.921c0.499,1.046,0.055,2.299-0.992,2.797
						C652.041,1749.082,651.733,1749.148,651.43,1749.148z"/>
				</g>
				<g>
					<path d="M552.541,1090.463l9.479-6.318c7.606-5.071,10.811-14.697,7.638-23.271c-9.521-25.727-44.237-70.563-170.524-36.509
						c-128.77,34.724-106.004,241.339,3.695,285.494c109.697,44.156,146.953-182.829,146.953-182.829L552.541,1090.463z"/>
					<g>
						<path fill="#FFFFFF" d="M536.712,1095.195c1.47-7.882,11.962-9.615,15.93-2.649c9.635,16.913,14.229,28.679,15.769,35.862
							c2.069,9.66-6.9,19.318-2.07,29.667c4.829,10.35,12.419,22.078,13.107,40.706c0.676,18.202,19.137,101.62-45.678,98.987
							c-2.543-0.104-4.672,1.9-4.641,4.446c0.158,12.699,0.838,47.624,3.657,66.531c1.537,10.303-4.885,20.102-14.909,22.932
							c-25.947,7.327-74.254,17.643-110.403,5.888c-9.397-3.057-14.33-13.356-10.981-22.653
							c4.275-11.864,10.244-45.212,6.336-65.054c0,0,21.646-2.131,45.752-13.191c37.051-16.998,55.281-58.386,45.043-97.844
							c-2.202-8.487-6.966-20.551-2.002-33.327c12.799-32.963,31.943,0.169,31.943,0.169L536.712,1095.195z"/>
						<path d="M445.604,1404.98c-13.411,0-26.749-1.507-38.78-5.419c-5.049-1.641-9.119-5.183-11.464-9.973
							c-2.372-4.845-2.671-10.311-0.843-15.388c4.135-11.48,10.089-44.453,6.251-63.937c-0.114-0.58,0.022-1.183,0.374-1.656
							c0.354-0.476,0.891-0.779,1.479-0.838c0.215-0.021,21.607-2.239,45.082-13.01c35.543-16.308,54.002-56.434,43.889-95.411
							c-0.294-1.13-0.633-2.323-0.988-3.573c-2.316-8.158-5.488-19.33-0.94-31.041c3.921-10.093,8.976-15.447,15.028-15.912
							c7.403-0.571,14.084,6.552,17.75,11.426l12.207-65.439c0.831-4.456,4.258-7.822,8.725-8.573
							c4.473-0.757,8.837,1.313,11.092,5.27c10.843,19.032,14.684,30.334,15.996,36.464c1.023,4.773-0.313,9.392-1.607,13.858
							c-1.531,5.29-2.979,10.289-0.611,15.359c0.797,1.709,1.67,3.457,2.576,5.267c4.516,9.032,10.136,20.271,10.728,36.248
							c0.081,2.212,0.453,5.586,0.884,9.494c2.266,20.555,6.48,58.816-12.283,78.925c-8.488,9.095-20.766,13.392-36.461,12.744
							c-0.689-0.024-1.299,0.211-1.771,0.668c-0.449,0.438-0.695,1.027-0.687,1.656c0.17,13.736,0.866,47.688,3.636,66.247
							c1.682,11.283-5.375,22.143-16.416,25.261C501.016,1398.62,473.158,1404.979,445.604,1404.98z M405.278,1311.673
							c3.226,20.635-2.576,52.195-6.811,63.951c-1.441,3.999-1.206,8.304,0.663,12.118c1.841,3.761,5.033,6.541,8.99,7.826
							c35.694,11.608,83.729,1.277,109.185-5.91c9.015-2.546,14.777-11.403,13.404-20.603c-2.806-18.813-3.508-52.993-3.68-66.815
							c-0.022-1.792,0.674-3.468,1.96-4.717s3.049-1.924,4.865-1.853c14.44,0.587,25.607-3.254,33.221-11.413
							c17.451-18.701,13.373-55.716,11.182-75.602c-0.457-4.154-0.818-7.436-0.907-9.798c-0.558-15.068-5.728-25.406-10.287-34.527
							c-0.922-1.845-1.812-3.625-2.626-5.367c-3.033-6.501-1.217-12.771,0.386-18.303c1.201-4.15,2.336-8.07,1.532-11.813
							c-1.022-4.781-4.403-15.719-15.538-35.265c-1.664-2.922-4.575-3.573-6.748-3.209c-2.157,0.363-4.681,1.921-5.294,5.205
							l-13.148,70.471c-0.16,0.863-0.842,1.534-1.705,1.683c-0.855,0.147-1.732-0.258-2.174-1.017
							c-2.314-3.994-9.778-14.227-16.74-13.709c-4.301,0.334-8.146,4.791-11.432,13.247c-4.039,10.399-1.209,20.365,1.066,28.375
							c0.363,1.282,0.711,2.507,1.011,3.666c10.626,40.948-8.804,83.123-46.199,100.279
							C429.52,1307.722,411.471,1310.82,405.278,1311.673z"/>
					</g>
					<path d="M347.289,1066.127c0,0-63.365-30.241-109.448,12.962s-90.726,138.25-21.602,241.938
						c43.442,65.162,60.151,116.674,66.571,145.957c2.148,9.808,14.998,12.263,20.564,3.906
						c27.82-41.761,78.574-133.87,53.995-220.429C324.246,1133.813,347.289,1066.127,347.289,1066.127z"/>
					<path d="M579.629,1190.636c-0.714,0-1.408-0.363-1.803-1.019c-0.595-0.994-0.273-2.283,0.721-2.88
						c20.795-12.479,7.326-47.738,3.586-56.451l-58.838,30.038c-1.029,0.526-2.296,0.116-2.822-0.915
						c-0.525-1.032-0.117-2.297,0.916-2.823l60.805-31.043c0.502-0.257,1.089-0.301,1.623-0.119c0.535,0.18,0.976,0.568,1.222,1.077
						c0.934,1.938,22.603,47.675-4.331,63.835C580.369,1190.539,579.996,1190.636,579.629,1190.636z"/>
					<path d="M581.307,1214.758c-0.54,0-1.081-0.207-1.49-0.622c-0.816-0.822-0.812-2.151,0.012-2.967l8.295-8.223
						c2.525-2.503,2.854-6.418,0.782-9.309l-5.705-7.959c-0.675-0.942-0.458-2.254,0.484-2.929c0.94-0.677,2.253-0.459,2.928,0.484
						l5.705,7.959c3.277,4.576,2.757,10.771-1.239,14.733l-8.295,8.223C582.375,1214.555,581.84,1214.758,581.307,1214.758z"/>
					<path d="M514.576,1221.978c-1.35,0-2.788-0.153-4.289-0.526c-7.176-1.781-13.34-7.92-18.317-18.241
						c-0.503-1.045-0.065-2.298,0.979-2.803c1.044-0.503,2.299-0.067,2.804,0.979c4.395,9.114,9.605,14.489,15.489,15.978
						c6.321,1.599,11.413-2.002,11.464-2.04c0.939-0.675,2.248-0.472,2.93,0.462c0.68,0.934,0.482,2.239-0.449,2.925
						C524.967,1218.871,520.66,1221.978,514.576,1221.978z"/>
					<g>
						<path fill="#FFFFFF" d="M331.365,1060.417c0,0,58.877,17.731,34.775,74.198c0,0,27.201-19.626,26.512-50.269
							c-0.688-30.644-23.414-40.629-38.563-40.285C338.94,1044.407,331.365,1060.417,331.365,1060.417z"/>
						<path d="M366.141,1136.714c-0.465,0-0.929-0.153-1.313-0.461c-0.734-0.588-0.988-1.595-0.619-2.462
							c6.854-16.054,7.444-30.373,1.754-42.561c-9.752-20.893-34.951-28.729-35.204-28.805c-0.583-0.178-1.063-0.601-1.311-1.158
							c-0.247-0.559-0.241-1.196,0.021-1.749c0.332-0.701,8.314-17.186,24.574-17.554c9.361-0.209,18.854,3.067,26.082,8.997
							c6.449,5.291,14.222,15.368,14.625,33.338c0.707,31.387-26.234,51.189-27.383,52.018
							C367.001,1136.581,366.57,1136.714,366.141,1136.714z M334.43,1059.254c6.938,2.593,26.521,11.348,35.324,30.173
							c5.262,11.253,5.676,24.047,1.246,38.124c7.728-7.651,20.008-23.03,19.555-43.157c-0.292-12.963-4.818-23.401-13.092-30.187
							c-6.371-5.225-15.122-8.198-23.324-8.046C343.635,1046.399,336.973,1055.164,334.43,1059.254z"/>
					</g>
				</g>
			</g>
			<g>
				<path d="M219.094,1543.133c48.591,29.367,147.416,71.236,306.463,61.526c11.695-0.714,22.508,6.221,26.636,17.188l9.921,39.709
					c17.445,69.819,50.252,134.866,96.027,190.396l23.761,28.825c3.656,4.437,0.214,11.094-5.521,10.672l-104.863-7.703
					c-179.998-23.813-319.84-114.092-364.691-278.55l-11.964-43.865C190.98,1547.095,206.464,1535.499,219.094,1543.133z"/>
			</g>
		</g>
		<g>
			<g>
				<path fill="#FFFFFF" d="M1208.384,424.431h345.295c19.55,0,34.503,15.905,34.503,35.455v99.929
					c0,19.55-14.953,35.341-34.503,35.341c-0.179,0-5.437,0-12.484,0v66.732l-45.435-66.732c-66.038,0-287.376,0-287.376,0
					c-19.55,0-36.293-15.792-36.293-35.341v-99.929C1172.091,440.335,1188.834,424.431,1208.384,424.431z"/>
				<path d="M1541.195,663.986c-0.681,0-1.336-0.333-1.734-0.917l-44.813-65.815h-286.266c-20.81,0-38.391-17.146-38.391-37.44
					v-99.93c0-20.356,17.581-37.554,38.391-37.554h345.296c20.525,0,36.603,16.496,36.603,37.554v99.93
					c0,20.994-16.077,37.44-36.603,37.44h-10.384v64.633c0,0.921-0.602,1.734-1.481,2.005
					C1541.609,663.957,1541.4,663.986,1541.195,663.986z M1208.383,426.529c-18.535,0-34.192,15.275-34.192,33.355v99.93
					c0,18.019,15.657,33.242,34.192,33.242h287.378c0.693,0,1.343,0.344,1.732,0.917l41.604,61.102v-59.92
					c0-1.159,0.939-2.099,2.099-2.099h12.483c18.171,0,32.405-14.601,32.405-33.242v-99.93c0-18.704-14.234-33.355-32.405-33.355
					H1208.383z"/>
			</g>
			<g>
				<path d="M1338.045,534.562c-0.289,0-0.584-0.06-0.865-0.188l-47.557-21.569c-0.75-0.339-1.232-1.086-1.232-1.909
					c0-0.822,0.48-1.57,1.229-1.912l47.557-21.702c1.056-0.484,2.3-0.017,2.781,1.038c0.479,1.054,0.017,2.299-1.039,2.78
					l-43.359,19.787l43.355,19.664c1.056,0.479,1.522,1.723,1.046,2.779C1339.606,534.104,1338.845,534.562,1338.045,534.562z"/>
				<path d="M1406.172,534.563c-0.799,0-1.563-0.458-1.915-1.233c-0.478-1.056-0.01-2.3,1.045-2.779l43.358-19.664l-43.362-19.787
					c-1.055-0.481-1.519-1.726-1.038-2.78c0.48-1.056,1.721-1.52,2.781-1.038l47.559,21.702c0.748,0.341,1.228,1.089,1.228,1.912
					c0,0.823-0.481,1.57-1.232,1.909l-47.558,21.569C1406.756,534.502,1406.461,534.563,1406.172,534.563z"/>
				<path d="M1352.332,559.881c-0.25,0-0.502-0.045-0.749-0.14c-1.083-0.414-1.624-1.627-1.21-2.709l37.022-96.855
					c0.413-1.084,1.629-1.623,2.712-1.211c1.081,0.414,1.623,1.628,1.208,2.709l-37.021,96.856
					C1353.975,559.366,1353.178,559.881,1352.332,559.881z"/>
			</g>
		</g>
		<g>
			<g>
				<path d="M1284.395,1728.016c-0.806,0-1.574-0.466-1.921-1.249c-0.469-1.06,0.008-2.299,1.067-2.77
					c108.3-47.97,206.522-125.696,284.054-224.779c0.708-0.912,2.031-1.076,2.944-0.359c0.912,0.714,1.074,2.032,0.358,2.946
					c-77.952,99.623-176.73,177.783-285.655,226.031C1284.966,1727.958,1284.678,1728.016,1284.395,1728.016z"/>
				<path d="M1274.009,1783.334c-0.84,0-1.633-0.509-1.958-1.34c-0.417-1.082,0.117-2.297,1.2-2.716
					c104.187-40.417,197.53-104.501,277.437-190.471c0.791-0.849,2.121-0.896,2.965-0.108c0.849,0.789,0.898,2.117,0.109,2.966
					c-80.342,86.438-174.208,150.879-278.995,191.525C1274.52,1783.288,1274.262,1783.334,1274.009,1783.334z"/>
			</g>
			<g>
				<path d="M814.948,260.03c-0.955,0-1.82-0.655-2.044-1.627c-0.261-1.129,0.444-2.255,1.574-2.517
					c108.434-25.003,215.852-26.68,319.264-4.984c1.136,0.237,1.861,1.35,1.623,2.485c-0.237,1.134-1.35,1.857-2.483,1.622
					c-102.815-21.569-209.625-19.897-317.461,4.968C815.262,260.013,815.104,260.03,814.948,260.03z"/>
				<path d="M1174.053,216.217c-0.174,0.001-0.354-0.021-0.529-0.067c-88.608-22.975-181.35-28.782-275.65-17.263
					c-1.151,0.132-2.196-0.678-2.338-1.829c-0.14-1.15,0.68-2.197,1.83-2.338c94.825-11.584,188.091-5.742,277.212,17.367
					c1.121,0.291,1.795,1.436,1.504,2.558C1175.837,215.59,1174.985,216.217,1174.053,216.217z"/>
			</g>
			<ellipse cx="1233.521" cy="1732.522" rx="14.04" ry="14.03"/>
			<g>
				<path d="M256.717,912.679c-0.521,0-1.045-0.194-1.451-0.583c-0.838-0.803-0.865-2.131-0.064-2.968l7.723-8.061
					c0.803-0.837,2.133-0.864,2.969-0.063c0.837,0.802,0.865,2.13,0.063,2.968l-7.723,8.061
					C257.82,912.463,257.27,912.679,256.717,912.679z"/>
				<path d="M229.688,940.896c-0.523,0-1.045-0.194-1.451-0.583c-0.838-0.801-0.865-2.131-0.064-2.968l7.724-8.063
					c0.802-0.836,2.133-0.864,2.968-0.063c0.837,0.801,0.865,2.131,0.063,2.968l-7.723,8.062
					C230.793,940.68,230.24,940.896,229.688,940.896z"/>
				<path d="M237.266,913.111c-0.532,0-1.064-0.201-1.473-0.603l-7.84-7.715c-0.826-0.814-0.837-2.143-0.023-2.969
					c0.813-0.826,2.143-0.835,2.969-0.023l7.84,7.716c0.826,0.813,0.836,2.142,0.022,2.969
					C238.35,912.902,237.809,913.111,237.266,913.111z"/>
				<path d="M264.702,940.118c-0.532,0-1.063-0.201-1.472-0.603l-7.84-7.716c-0.826-0.814-0.836-2.143-0.023-2.969
					c0.814-0.827,2.143-0.834,2.969-0.024l7.84,7.716c0.824,0.814,0.835,2.143,0.022,2.969
					C265.787,939.909,265.244,940.118,264.702,940.118z"/>
			</g>
			<path d="M1216.605,255.041c-2.515,0-5.029-0.469-7.445-1.408c-5.258-2.043-9.398-6.058-11.658-11.301
				c-4.62-10.706,0.17-23.256,10.68-27.974c5.062-2.273,10.689-2.418,15.854-0.411c5.256,2.043,9.398,6.057,11.659,11.302
				c4.619,10.706-0.17,23.255-10.679,27.975C1222.322,254.433,1219.465,255.04,1216.605,255.041z M1216.594,216.741
				c-2.277,0-4.55,0.484-6.692,1.446c-8.428,3.784-12.263,13.869-8.547,22.482c1.814,4.204,5.127,7.419,9.326,9.051
				c4.104,1.596,8.588,1.482,12.613-0.326c8.43-3.786,12.262-13.872,8.547-22.484c-1.814-4.204-5.126-7.419-9.326-9.051
				C1220.595,217.114,1218.592,216.741,1216.594,216.741z M1209.04,216.272h0.021H1209.04z"/>
		</g>
	</g>
</g>
</svg>
